<?xml version="1.0" encoding="utf-8"?>
<!-- Generator: Adobe Illustrator 22.0.0, SVG Export Plug-In . SVG Version: 6.00 Build 0)  -->
<svg version="1.1" id="Layer_1" xmlns="http://www.w3.org/2000/svg" xmlns:xlink="http://www.w3.org/1999/xlink" x="0px" y="0px"
	 viewBox="0 0 50 50" style="enable-background:new 0 0 50 50;" xml:space="preserve">
<style type="text/css">
	.st0{fill:#013F44;}
	.st1{fill:#FFE600;}
</style>
<g>
	<path class="st0" d="M36.01,35.95c-0.28,0-0.5-0.22-0.5-0.5v-0.23L22,35.17l-0.05,0.28c0,0.27-0.22,0.5-0.5,0.5h-2.61
		c-0.28,0-0.5-0.22-0.5-0.5v-3.92c0.01-0.86,0.6-1.58,1.44-1.74l0.04-2.09c0.01-0.86,0.72-1.57,1.58-1.57h6.19
		c0.39,0,0.77,0.14,1.06,0.4c0.35-0.26,0.73-0.4,1.11-0.4h6.16c0.87,0,1.58,0.7,1.59,1.56v2.03c0.93,0.17,1.58,0.91,1.59,1.81v3.92
		c0,0.27-0.22,0.5-0.5,0.5H36.01z M21.95,34.12l13.5,0.05l0.05-1.62L21.95,32.5V34.12z M29.78,27.13c-0.16,0-0.3,0.06-0.41,0.17
		c-0.11,0.12-0.18,0.27-0.17,0.43l0,3.72l6.26,0.05c0.08-0.69,0.46-1.27,1.04-1.55l0.03-2.25c0-0.31-0.26-0.57-0.58-0.57H29.78z
		 M21.41,27.13c-0.32,0-0.58,0.26-0.58,0.57v2.15c0.66,0.31,1.09,0.92,1.12,1.6l6.2,0.05l0.05-3.8c0-0.31-0.26-0.57-0.58-0.57H21.41
		z"/>
	<path class="st0" d="M11.39,35.95c-0.28,0-0.5-0.22-0.5-0.5c0-0.27,0.22-0.5,0.5-0.5h1.9l0.05-15.25c0.02-3.11,2.44-5.65,5.41-5.65
		c2.78,0,5.15,2.27,5.39,5.16c1.55,0.3,2.64,1.6,2.65,3.13v0.52c0,0.27-0.22,0.5-0.5,0.5h-5.25c-0.28,0-0.5-0.22-0.5-0.5v-0.52
		c0-1.51,1.08-2.8,2.56-3.07c-0.19-2.43-2.08-4.22-4.34-4.22c-2.43,0-4.41,2.09-4.41,4.66l0,15.2l2.3,0.05c0.28,0,0.5,0.22,0.5,0.5
		c0,0.28-0.22,0.5-0.5,0.5H11.39z M23.66,20.21c-1.16,0-2.11,0.94-2.13,2.1l4.2,0.05C25.77,21.16,24.81,20.21,23.66,20.21z"/>
	<path class="st1" d="M19.4,34.85l0.05-3.31c0.01-0.38,0.32-0.68,0.7-0.68c0.39,0.01,0.69,0.31,0.71,0.68v3.32H19.4z"/>
	<path class="st1" d="M36.55,34.85l0.05-3.31c0.01-0.38,0.32-0.68,0.7-0.68c0.39,0.01,0.69,0.31,0.71,0.68v3.32H36.55z"/>
	<path class="st1" d="M23.72,24.35c0.59,0,1.12-0.38,1.34-0.93h-2.69C22.59,23.97,23.13,24.35,23.72,24.35z"/>
</g>
</svg>
