<?xml version="1.0" encoding="utf-8"?>
<!-- Generator: Adobe Illustrator 22.0.0, SVG Export Plug-In . SVG Version: 6.00 Build 0)  -->
<svg version="1.1" id="Layer_1" xmlns="http://www.w3.org/2000/svg" xmlns:xlink="http://www.w3.org/1999/xlink" x="0px" y="0px"
	 viewBox="0 0 50 50" style="enable-background:new 0 0 50 50;" xml:space="preserve">
<style type="text/css">
	.st0{fill:#013F44;}
	.st1{fill:#FFE600;}
</style>
<g>
	<path class="st0" d="M36.45,22.59l-3.15-6.9c-0.31-0.68-0.66-1.05-1.35-1.39l-3.48-1.75c-0.11-0.05-0.24-0.07-0.35-0.04
		c-2.42,0.65-3.82,0.65-6.24,0c-0.12-0.03-0.24-0.02-0.35,0.04l-3.48,1.75c-0.68,0.34-1.04,0.71-1.35,1.39l-3.15,6.9
		c-0.1,0.23-0.02,0.5,0.19,0.63l3.77,2.35V37c0,0.27,0.22,0.5,0.5,0.5h14c0.28,0,0.5-0.22,0.5-0.5V25.58l3.76-2.35
		C36.48,23.09,36.56,22.82,36.45,22.59 M27.66,13.66c-0.31,1.07-1.39,1.86-2.66,1.86c-1.28,0-2.35-0.79-2.66-1.86
		C24.29,14.12,25.71,14.12,27.66,13.66 M32.5,24.4v-3.1c0-0.28-0.22-0.5-0.5-0.5c-0.28,0-0.5,0.22-0.5,0.5v15.2h-13V21.3
		c0-0.28-0.22-0.5-0.5-0.5c-0.28,0-0.5,0.22-0.5,0.5v3.1l-2.86-1.79l2.97-6.5c0.22-0.47,0.41-0.67,0.89-0.91l1.02-0.51
		c0.51,1.43,1.63,2.62,3.08,3.25c0.07,0.03,0.13,0.04,0.2,0.04c0.19,0,0.38-0.11,0.46-0.3c0.11-0.25-0.01-0.55-0.26-0.66
		c-1.24-0.54-2.18-1.56-2.58-2.78l0.92-0.46c0.36,1.58,1.87,2.76,3.67,2.76c1.79,0,3.3-1.18,3.66-2.76l0.92,0.46
		c-0.4,1.22-1.34,2.25-2.58,2.78c-0.25,0.11-0.37,0.4-0.26,0.66c0.08,0.19,0.27,0.3,0.46,0.3c0.07,0,0.13-0.01,0.2-0.04
		c1.46-0.63,2.58-1.82,3.08-3.25l1.02,0.51c0.48,0.24,0.67,0.44,0.89,0.91l2.97,6.5L32.5,24.4z"/>
	<path class="st0" d="M25,17.43L25,17.43c-0.28,0-0.5,0.22-0.5,0.5c0,0.28,0.22,0.5,0.5,0.5c0.28,0,0.5-0.22,0.5-0.5
		C25.5,17.65,25.28,17.43,25,17.43"/>
	<path class="st0" d="M25,31.53c-0.42,0-0.79-0.26-0.94-0.65c-0.29-0.78-0.92-1.41-1.7-1.7c-0.39-0.14-0.65-0.52-0.65-0.94
		c0-0.42,0.26-0.79,0.65-0.94c0.79-0.29,1.41-0.91,1.7-1.7c0.15-0.39,0.52-0.65,0.94-0.65c0.42,0,0.79,0.26,0.94,0.65
		c0.29,0.79,0.91,1.41,1.7,1.7c0.39,0.14,0.65,0.52,0.65,0.94c0,0.42-0.26,0.79-0.65,0.94c-0.79,0.29-1.41,0.91-1.7,1.7
		C25.79,31.27,25.42,31.53,25,31.53z"/>
	<path class="st1" d="M25,25.95c0.39,1.06,1.23,1.9,2.29,2.29c-1.06,0.39-1.9,1.23-2.29,2.29c-0.39-1.05-1.25-1.91-2.29-2.29
		C23.76,27.85,24.61,27.01,25,25.95"/>
</g>
</svg>
