<?xml version="1.0" encoding="utf-8"?>
<!-- Generator: Adobe Illustrator 22.0.0, SVG Export Plug-In . SVG Version: 6.00 Build 0)  -->
<svg version="1.1" id="Layer_1" xmlns="http://www.w3.org/2000/svg" xmlns:xlink="http://www.w3.org/1999/xlink" x="0px" y="0px"
	 viewBox="0 0 50 50" style="enable-background:new 0 0 50 50;" xml:space="preserve">
<style type="text/css">
	.st0{fill:#013F44;}
	.st1{fill:#FFE600;}
</style>
<g>
	<path class="st0" d="M13.91,37.4c-0.79,0-1.43-0.64-1.43-1.43v-8.93c0-0.28,0.22-0.5,0.5-0.5h0.15l-0.03-2.61
		c0-0.27,0.22-0.5,0.5-0.5h0.16l-0.03-6.56c0-0.27,0.22-0.5,0.5-0.5c0.08,0,0.15,0.02,0.22,0.05l2.42,1.21
		c0.59,0.29,0.96,0.9,0.96,1.56v4.27l0.12-0.03c0.28,0,0.5,0.22,0.5,0.5v2.64l0.12-0.03c0.27,0,0.5,0.22,0.5,0.5v8.93
		c0,0.79-0.64,1.43-1.43,1.43H13.91z M13.48,35.97c0,0.24,0.19,0.43,0.43,0.43h3.73c0.24,0,0.43-0.19,0.43-0.43v-1.54l-4.59-1.34
		V35.97z M13.48,29.59l4.63,1.35l-0.04-3.43l-4.59,0.03V29.59z M14.1,26.58l3.38-0.03l-0.03-2.14l-3.35,0.03V26.58z M14.72,23.48
		l2.14-0.03l-0.03-4.24c0-0.28-0.16-0.54-0.41-0.66l-1.7-0.85V23.48z"/>
	<polygon class="st1" points="18.11,33.46 13.45,32.07 13.45,30.56 18.11,31.95 	"/>
	<path class="st0" d="M37.52,21.75c0-5.05-4.11-9.15-9.15-9.15s-9.15,4.11-9.15,9.15c0,4.89,3.86,8.9,8.69,9.14v1.76h-0.98
		c-1.6,0-2.9,1.3-2.9,2.9v1.35c0,0.26,0.21,0.47,0.47,0.47h7.76c0.26,0,0.47-0.21,0.47-0.47v-1.35c0-1.6-1.3-2.9-2.9-2.9h-0.98
		v-1.76C33.66,30.65,37.52,26.64,37.52,21.75 M29.81,33.58c1.08,0,1.97,0.88,1.97,1.97v0.89h-6.83v-0.89c0-1.08,0.88-1.97,1.97-1.97
		H29.81z"/>
	<path class="st1" d="M28.36,29.97c-4.53,0-8.22-3.69-8.22-8.22c0-4.53,3.69-8.22,8.22-8.22c4.53,0,8.22,3.69,8.22,8.22
		C36.58,26.28,32.9,29.97,28.36,29.97"/>
	<path class="st0" d="M23.36,23.69c-0.13,0-0.26-0.05-0.35-0.15c-0.09-0.1-0.15-0.22-0.15-0.35c0-0.13,0.05-0.26,0.15-0.35
		l6.78-6.78c0.09-0.09,0.22-0.15,0.35-0.15s0.26,0.05,0.35,0.15c0.19,0.19,0.19,0.51,0,0.71l-6.78,6.78
		C23.61,23.64,23.49,23.69,23.36,23.69"/>
	<path class="st0" d="M27.34,24.63c-0.13,0-0.26-0.05-0.35-0.15c-0.09-0.1-0.15-0.22-0.15-0.35c0-0.13,0.05-0.26,0.15-0.35
		l3.35-3.35c0.1-0.09,0.22-0.15,0.35-0.15s0.26,0.05,0.35,0.15c0.09,0.1,0.15,0.22,0.15,0.35c0,0.13-0.05,0.26-0.15,0.35l-3.35,3.35
		C27.59,24.58,27.47,24.63,27.34,24.63"/>
</g>
</svg>
