<?xml version="1.0" encoding="utf-8"?>
<!-- Generator: Adobe Illustrator 22.0.0, SVG Export Plug-In . SVG Version: 6.00 Build 0)  -->
<svg version="1.1" id="Layer_1" xmlns="http://www.w3.org/2000/svg" xmlns:xlink="http://www.w3.org/1999/xlink" x="0px" y="0px"
	 viewBox="0 0 50 50" style="enable-background:new 0 0 50 50;" xml:space="preserve">
<style type="text/css">
	.st0{fill:#013F44;}
	.st1{fill:#FFFFFF;}
	.st2{fill:#FFE600;}
</style>
<g>
	<path class="st0" d="M26.57,33.63c-0.28,0-0.5,0.23-0.5,0.5c0.01,0.34,0.27,0.5,0.5,0.5c0.24,0,0.49-0.16,0.5-0.5
		C27.07,33.86,26.85,33.63,26.57,33.63"/>
	<path class="st0" d="M37.58,35.48l-2.25-2.25c1.17-1.53,1.08-3.72-0.32-5.12c-1.52-1.52-3.99-1.52-5.51,0
		c-1.52,1.52-1.52,3.99,0,5.51c0.76,0.76,1.76,1.14,2.75,1.14c0.84,0,1.67-0.28,2.36-0.82l2.25,2.25c0.1,0.1,0.23,0.15,0.35,0.15
		s0.26-0.05,0.35-0.15C37.77,35.99,37.77,35.68,37.58,35.48 M34.3,32.92c-1.13,1.13-2.96,1.13-4.09,0c-1.13-1.13-1.13-2.96,0-4.09
		c0.56-0.56,1.3-0.85,2.05-0.85c0.74,0,1.48,0.28,2.05,0.85C35.43,29.95,35.43,31.79,34.3,32.92"/>
	<path class="st0" d="M24.56,33.64H14.44c-0.36,0-0.61-0.24-0.61-0.61v-7.21c0-0.3-0.2-0.5-0.5-0.5c-0.3,0-0.5,0.2-0.5,0.5v7.21
		c0,0.92,0.69,1.61,1.61,1.61h10.12c0.3,0,0.5-0.2,0.5-0.5C25.06,33.83,24.86,33.64,24.56,33.64"/>
	<path class="st0" d="M26.73,28v-1.82l8.29-1.78v0.96c0,0.3,0.2,0.5,0.5,0.5c0.3,0,0.5-0.19,0.5-0.5l0.02-1.5
		c0.35-0.32,0.54-0.73,0.54-1.16v-3.55c0-0.92-0.69-1.61-1.61-1.61h-6.16v-2.27c0-0.44-0.16-0.85-0.46-1.15
		c-0.3-0.3-0.71-0.46-1.15-0.46h-5.55c-0.92,0-1.61,0.69-1.61,1.61v2.27h-6.16c-0.92,0-1.61,0.69-1.61,1.61v3.55
		c0,0.74,0.52,1.39,1.23,1.55l8.61,1.96V28c0,0.37,0.3,0.67,0.67,0.67h3.27C26.43,28.68,26.73,28.37,26.73,28 M21.04,17.55v-2.27
		c0-0.37,0.24-0.61,0.61-0.61h5.55c0.37,0,0.61,0.24,0.61,0.61v2.27H21.04z"/>
	<rect x="23.12" y="25.06" class="st1" width="2.62" height="2.62"/>
	<path class="st2" d="M34.97,18.55H13.89c-0.36,0-0.61,0.25-0.61,0.61v3.55c0,0.31,0.19,0.55,0.49,0.61l8.35,1.87v-0.31v-0.04
		c0-0.37,0.3-0.67,0.68-0.67h3.27c0.37,0,0.67,0.3,0.67,0.67v0.04v0.24l8.35-1.8c0.3-0.06,0.49-0.3,0.49-0.61v-3.55
		C35.58,18.79,35.33,18.55,34.97,18.55"/>
</g>
</svg>
