<?xml version="1.0" encoding="utf-8"?>
<!-- Generator: Adobe Illustrator 22.0.0, SVG Export Plug-In . SVG Version: 6.00 Build 0)  -->
<svg version="1.1" id="Layer_1" xmlns="http://www.w3.org/2000/svg" xmlns:xlink="http://www.w3.org/1999/xlink" x="0px" y="0px"
	 viewBox="0 0 50 50" style="enable-background:new 0 0 50 50;" xml:space="preserve">
<style type="text/css">
	.st0{fill:#013F44;}
	.st1{fill:#FFE600;}
	.st2{fill:#FFFFFF;}
</style>
<g>
	<path class="st0" d="M34.05,21.95c-0.01-0.01-0.02-0.01-0.03-0.02c-0.01,0-0.01,0-0.01,0c-0.02-0.01-0.05,0-0.07-0.01
		c-0.04,0-0.07-0.01-0.1-0.01c-0.04,0-0.07,0.02-0.11,0.03c-0.02,0.01-0.04,0.01-0.06,0.02l-11.01,5.35v-0.98
		c0-0.82-0.13-1.64-0.38-2.42l-1.36-4.23l-0.93-2.89c0.36-0.05,0.63-0.34,0.63-0.71v-2.38c0-0.4-0.33-0.73-0.73-0.73h-4.61
		c-0.4,0-0.73,0.33-0.73,0.73v2.38c0,0.37,0.28,0.66,0.63,0.71l-0.9,2.81c-0.03,0.05-0.05,0.11-0.05,0.17l-1.33,4.14
		c-0.25,0.78-0.38,1.6-0.38,2.42v8.48c0,1.22,0.99,2.21,2.21,2.21h5.72c1.03,0,1.9-0.71,2.14-1.67h6.29h1.65h5.71
		c0.7,0,1.27-0.57,1.27-1.27v-2.42v-3.58C37.5,25.32,35.92,22.53,34.05,21.95 M19.65,15.85h-0.33h-3.49H15.5v-1.91h4.15V15.85z
		 M29.85,24.88c0.07,0.93,0.84,1.66,1.79,1.66c0.99,0,1.8-0.81,1.8-1.8c0-0.52-0.23-0.99-0.59-1.32l1.03-0.5
		c1.21,0.47,2.47,2.38,2.63,4.68h-0.84H24.25L29.85,24.88z M36.54,34.08c0,0.17-0.14,0.31-0.31,0.31h-4.56
		c0.19-0.33,0.3-0.71,0.3-1.11c0-1.26-1.02-2.28-2.28-2.28c-1.26,0-2.28,1.02-2.28,2.28c0,0.4,0.11,0.78,0.3,1.11h-5.07v-5.83h0.57
		c-0.14,0.25-0.22,0.54-0.22,0.85c0,0.99,0.81,1.8,1.8,1.8c0.99,0,1.8-0.81,1.8-1.8c0-0.31-0.09-0.6-0.22-0.85h8.16
		c-0.21,0.36-0.32,0.77-0.32,1.2c0,1.3,1.04,2.36,2.33,2.41V34.08z"/>
	<path class="st1" d="M20.44,36.06h-5.72c-0.69,0-1.25-0.56-1.25-1.25v-8.48c0-0.72,0.11-1.44,0.33-2.13l1.25-3.9h5.05l1.25,3.9
		c0.22,0.69,0.33,1.4,0.33,2.13v1.74v6.73C21.69,35.5,21.12,36.06,20.44,36.06"/>
	<path class="st0" d="M15.02,26.84c-0.27,0-0.48,0.22-0.48,0.48v7.01c0,0.26,0.21,0.48,0.48,0.48c0.27,0,0.48-0.21,0.48-0.48v-7.01
		C15.5,27.06,15.29,26.84,15.02,26.84"/>
	<path class="st0" d="M14.68,26.07c0.09,0.09,0.21,0.14,0.34,0.14c0.07,0,0.12-0.02,0.18-0.04c0.07-0.03,0.12-0.06,0.16-0.11
		c0.09-0.09,0.13-0.21,0.13-0.35c0-0.12-0.05-0.25-0.13-0.34c-0.05-0.05-0.1-0.08-0.16-0.11c-0.17-0.07-0.38-0.03-0.52,0.11
		c-0.09,0.09-0.14,0.21-0.14,0.34c0,0.07,0.02,0.12,0.04,0.19C14.6,25.98,14.63,26.02,14.68,26.07"/>
	<path class="st1" d="M36.54,31.22c-0.76-0.05-1.37-0.68-1.37-1.46c0-0.48,0.24-0.93,0.63-1.2h0.74V31.22z"/>
	<path class="st1" d="M32.48,24.73c0,0.46-0.38,0.84-0.84,0.84s-0.84-0.38-0.84-0.84c0-0.12,0.03-0.25,0.08-0.36l0.95-0.46
		C32.2,24,32.48,24.34,32.48,24.73"/>
	<path class="st1" d="M25.63,29.41c0,0.46-0.38,0.84-0.84,0.84s-0.84-0.38-0.84-0.84c0-0.46,0.38-0.84,0.84-0.84
		S25.63,28.94,25.63,29.41"/>
	<polygon class="st2" points="16.18,16.81 18.97,16.81 19.79,19.35 15.36,19.35 	"/>
	<path class="st1" d="M28.99,34.39c-0.38-0.24-0.62-0.66-0.62-1.11c0-0.73,0.59-1.32,1.32-1.32c0.72,0,1.31,0.59,1.31,1.32
		c0,0.46-0.23,0.88-0.62,1.11H28.99z"/>
</g>
</svg>
