<?xml version="1.0" encoding="utf-8"?>
<!-- Generator: Adobe Illustrator 22.0.0, SVG Export Plug-In . SVG Version: 6.00 Build 0)  -->
<svg version="1.1" id="Layer_1" xmlns="http://www.w3.org/2000/svg" xmlns:xlink="http://www.w3.org/1999/xlink" x="0px" y="0px"
	 viewBox="0 0 50 50" style="enable-background:new 0 0 50 50;" xml:space="preserve">
<style type="text/css">
	.st0{fill:#013F44;}
	.st1{fill:#FFE600;}
</style>
<g>
	<path class="st0" d="M17.93,12.5c-3,0-5.44,2.43-5.44,5.43c0,3,2.43,5.43,5.44,5.43c3,0,5.43-2.43,5.43-5.43
		C23.37,14.93,20.94,12.5,17.93,12.5 M17.93,22.37c-2.45,0-4.44-1.99-4.44-4.43c0-2.44,1.99-4.43,4.44-4.43
		c2.44,0,4.43,1.99,4.43,4.43C22.37,20.38,20.38,22.37,17.93,22.37"/>
	<path class="st0" d="M32.07,26.63c-3,0-5.44,2.43-5.44,5.43c0,3,2.43,5.43,5.44,5.43c3,0,5.43-2.43,5.43-5.43
		C37.5,29.06,35.07,26.63,32.07,26.63 M32.07,36.5c-2.45,0-4.44-1.99-4.44-4.43c0-2.44,1.99-4.43,4.44-4.43
		c2.44,0,4.43,1.99,4.43,4.43C36.5,34.51,34.51,36.5,32.07,36.5"/>
	<path class="st0" d="M37.5,17.93c0,3-2.43,5.44-5.44,5.44c-3,0-5.43-2.43-5.43-5.44c0-3,2.43-5.43,5.43-5.43
		C35.07,12.5,37.5,14.93,37.5,17.93"/>
	<path class="st1" d="M32.07,22.37c-2.45,0-4.44-1.99-4.44-4.43c0-2.44,1.99-4.43,4.44-4.43c2.44,0,4.43,1.99,4.43,4.43
		C36.5,20.38,34.51,22.37,32.07,22.37"/>
	<path class="st0" d="M17.93,37.5c-3,0-5.44-2.43-5.44-5.43c0-3,2.43-5.43,5.44-5.43c3,0,5.43,2.43,5.43,5.43
		C23.37,35.07,20.94,37.5,17.93,37.5"/>
	<path class="st1" d="M17.93,36.5c-2.45,0-4.44-1.99-4.44-4.43c0-2.44,1.99-4.43,4.44-4.43c2.44,0,4.43,1.99,4.43,4.43
		C22.37,34.51,20.38,36.5,17.93,36.5"/>
</g>
</svg>
