<?xml version="1.0" encoding="utf-8"?>
<!-- Generator: Adobe Illustrator 22.0.0, SVG Export Plug-In . SVG Version: 6.00 Build 0)  -->
<svg version="1.1" id="Layer_1" xmlns="http://www.w3.org/2000/svg" xmlns:xlink="http://www.w3.org/1999/xlink" x="0px" y="0px"
	 viewBox="0 0 50 50" style="enable-background:new 0 0 50 50;" xml:space="preserve">
<style type="text/css">
	.st0{fill:#013F44;}
	.st1{fill:#FFE600;}
</style>
<g>
	<path class="st0" d="M36.1,22.62h-4.6c-0.67,0-1.22,0.55-1.22,1.22v8.95c0,0.67,0.55,1.22,1.22,1.22h4.6
		c0.67,0,1.22-0.55,1.22-1.22v-8.95C37.33,23.17,36.78,22.62,36.1,22.62z M37.03,32.79c0,0.51-0.42,0.93-0.93,0.93h-4.6
		c-0.51,0-0.93-0.42-0.93-0.93v-0.06h6.46V32.79z M37.03,23.9h-6.46v-0.06c0-0.51,0.42-0.93,0.93-0.93h4.6
		c0.51,0,0.93,0.42,0.93,0.93V23.9z"/>
	<path class="st0" d="M17.37,23.87c-0.09,0.09-0.15,0.22-0.15,0.35c0,0.13,0.05,0.26,0.15,0.35c0.09,0.09,0.22,0.15,0.35,0.15
		c0.13,0,0.26-0.05,0.35-0.15c0.09-0.09,0.15-0.22,0.15-0.35c0-0.13-0.05-0.26-0.15-0.35c-0.09-0.09-0.22-0.15-0.35-0.15
		C17.59,23.73,17.46,23.78,17.37,23.87"/>
	<path class="st0" d="M17.37,23.87c-0.09,0.09-0.15,0.22-0.15,0.35c0,0.13,0.05,0.26,0.15,0.35c0.09,0.09,0.22,0.15,0.35,0.15
		c0.13,0,0.26-0.05,0.35-0.15c0.09-0.09,0.15-0.22,0.15-0.35c0-0.13-0.05-0.26-0.15-0.35c-0.09-0.09-0.22-0.15-0.35-0.15
		C17.59,23.73,17.46,23.78,17.37,23.87"/>
	<rect x="30.57" y="24.2" class="st1" width="6.46" height="8.24"/>
	<path class="st0" d="M34.54,33.08h-1.47c-0.08,0-0.15,0.07-0.15,0.15s0.07,0.15,0.15,0.15h1.47c0.08,0,0.15-0.07,0.15-0.15
		S34.62,33.08,34.54,33.08z"/>
	<path class="st0" d="M32.1,15.67H14.88c-1.21,0-2.2,0.99-2.2,2.2v10.6c0,1.22,0.99,2.2,2.2,2.2h8.11v2.64h-2.65
		c-0.28,0-0.5,0.23-0.5,0.5s0.22,0.5,0.5,0.5h6.3c0.28,0,0.5-0.22,0.5-0.5s-0.22-0.5-0.5-0.5h-2.65v-2.64h4.65
		c0.28,0,0.5-0.22,0.5-0.5s-0.23-0.5-0.5-0.5H14.88c-0.51,0-0.95-0.33-1.12-0.78l2.9-2.9c0.2-0.19,0.2-0.51,0-0.71
		c-0.19-0.19-0.51-0.19-0.71,0l-2.28,2.28v-9.69c0-0.66,0.54-1.2,1.2-1.2h5.78l-5.21,5.21c-0.2,0.2-0.2,0.51,0,0.71
		c0.1,0.1,0.23,0.15,0.35,0.15c0.13,0,0.26-0.05,0.35-0.15l5.88-5.88c0.01-0.01,0.02-0.02,0.03-0.03H32.1c0.66,0,1.2,0.54,1.2,1.2
		v3.11c0,0.28,0.22,0.5,0.5,0.5s0.5-0.22,0.5-0.5v-3.11C34.3,16.66,33.31,15.67,32.1,15.67z"/>
</g>
</svg>
