<?xml version="1.0" encoding="utf-8"?>
<!-- Generator: Adobe Illustrator 22.0.0, SVG Export Plug-In . SVG Version: 6.00 Build 0)  -->
<svg version="1.1" id="Layer_1" xmlns="http://www.w3.org/2000/svg" xmlns:xlink="http://www.w3.org/1999/xlink" x="0px" y="0px"
	 viewBox="0 0 50 50" style="enable-background:new 0 0 50 50;" xml:space="preserve">
<style type="text/css">
	.st0{fill:#013F44;}
	.st1{fill:#FFE600;}
</style>
<g>
	<path class="st0" d="M25,27.84c-2.63,0-4.77,2.14-4.77,4.77c0,2.63,2.14,4.77,4.77,4.77c0.44,0,0.88-0.06,1.3-0.18
		c0.12-0.03,0.21-0.11,0.27-0.21c0.06-0.1,0.07-0.23,0.04-0.34c-0.05-0.19-0.23-0.33-0.43-0.33c-0.04,0-0.08,0.01-0.12,0.02
		c-0.34,0.1-0.7,0.15-1.06,0.15c-2.14,0-3.87-1.74-3.87-3.87c0-2.13,1.74-3.87,3.87-3.87c2.13,0,3.87,1.74,3.87,3.87
		c0,1.17-0.52,2.26-1.42,3c-0.19,0.16-0.22,0.44-0.06,0.63c0.09,0.1,0.21,0.17,0.35,0.17c0.1,0,0.21-0.04,0.28-0.1
		c1.11-0.91,1.75-2.26,1.75-3.69C29.77,29.98,27.63,27.84,25,27.84"/>
	<path class="st0" d="M36.09,24.22v-0.5c0-6.12-4.98-11.09-11.09-11.09c-1.57,0-3.08,0.32-4.5,0.96c-1.37,0.61-2.59,1.48-3.62,2.59
		c-0.08,0.09-0.12,0.2-0.12,0.32c0.01,0.12,0.06,0.23,0.14,0.31c0.08,0.08,0.19,0.12,0.3,0.12c0.12,0,0.24-0.05,0.33-0.14
		c1.93-2.07,4.65-3.26,7.47-3.26c5.47,0,9.95,4.34,10.19,9.75c-0.22-0.38-0.63-0.64-1.09-0.64l-0.9,0.06
		c-0.24-1.94-1.17-3.74-2.62-5.07c-1.53-1.4-3.51-2.18-5.58-2.18c-2.09,0-4.08,0.78-5.62,2.21c-1.43,1.33-2.35,3.12-2.52,4.98H15.9
		c-0.46,0-0.87,0.26-1.09,0.64c0.08-1.87,0.67-3.67,1.71-5.22c0.14-0.2,0.08-0.48-0.12-0.62c-0.07-0.05-0.16-0.08-0.25-0.08
		c-0.15,0-0.29,0.07-0.37,0.2c-1.23,1.83-1.88,3.96-1.88,6.17l0.07,0.43c-1.11,0.07-1.97,1-1.97,2.11v6.06
		c0,1.17,0.95,2.11,2.11,2.11l0.54-0.07v0.33c0,0.69,0.56,1.25,1.25,1.25h1.65c0.69,0,1.25-0.56,1.25-1.25v-10.8
		c0-0.63-0.48-1.17-1.05-1.17c-0.02,0-0.03,0-0.05,0c0.5-3.63,3.64-6.37,7.3-6.37c3.54,0,6.58,2.55,7.29,5.92
		c0.02,0.12,0.05,0.25,0.07,0.37c-0.65,0.05-1.16,0.59-1.16,1.24v10.8c0,0.69,0.56,1.25,1.25,1.25h1.65c0.69,0,1.25-0.56,1.25-1.25
		l-0.07-0.26h0.61c1.16,0,2.11-0.95,2.11-2.11v-6.06C38,25.15,37.13,24.22,36.09,24.22"/>
	<path class="st1" d="M37.1,32.32c0,0.67-0.55,1.22-1.22,1.22l-0.54,0.07V27.7c0-0.25-0.2-0.45-0.45-0.45
		c-0.25,0-0.45,0.2-0.45,0.45v6.99c0,0.19-0.16,0.35-0.36,0.35h-1.65c-0.2,0-0.35-0.16-0.35-0.35V23.88c0-0.2,0.16-0.35,0.35-0.35
		h1.65c0.2,0,0.36,0.16,0.36,0.35v2.02c0,0.25,0.2,0.45,0.45,0.45c0.25,0,0.45-0.2,0.45-0.45l-0.07-0.87h0.61
		c0.67,0,1.22,0.55,1.22,1.22V32.32z"/>
	<path class="st1" d="M15.55,34.69v-10.8c0-0.2,0.16-0.35,0.35-0.35h1.65c0.2,0,0.35,0.16,0.35,0.35v10.8c0,0.2-0.16,0.35-0.35,0.35
		H15.9C15.71,35.04,15.55,34.88,15.55,34.69"/>
	<path class="st1" d="M14.11,33.53c-0.67,0-1.22-0.55-1.22-1.22v-6.06c0-0.67,0.54-1.22,1.22-1.22l0.54-0.07h0l0.07,8.54v0.02H14.11
		z"/>
	<path class="st0" d="M21.97,25.97c0.25,0,0.45-0.2,0.45-0.45v-3.07c0-0.25-0.2-0.45-0.45-0.45c-0.25,0-0.45,0.2-0.45,0.45v3.07
		C21.52,25.77,21.72,25.97,21.97,25.97"/>
	<path class="st0" d="M29.54,22.54c-0.25,0-0.45,0.2-0.45,0.45V25c0,0.25,0.2,0.45,0.45,0.45c0.25,0,0.45-0.2,0.45-0.45v-2.01
		C29.99,22.74,29.79,22.54,29.54,22.54"/>
	<path class="st0" d="M23.93,26.38v-4.77c0-0.25-0.2-0.45-0.45-0.45c-0.25,0-0.45,0.2-0.45,0.45v4.77c0,0.25,0.2,0.45,0.45,0.45
		C23.73,26.83,23.93,26.63,23.93,26.38"/>
	<path class="st0" d="M25.45,25.95v-3.92c0-0.25-0.2-0.45-0.45-0.45c-0.25,0-0.45,0.2-0.45,0.45v3.92c0,0.25,0.2,0.45,0.45,0.45
		C25.25,26.4,25.45,26.2,25.45,25.95"/>
	<path class="st0" d="M28.48,26.38v-4.77c0-0.25-0.2-0.45-0.45-0.45c-0.25,0-0.45,0.2-0.45,0.45v4.77c0,0.25,0.2,0.45,0.45,0.45
		C28.28,26.83,28.48,26.63,28.48,26.38"/>
	<path class="st0" d="M26.96,24.47v-0.95c0-0.25-0.2-0.45-0.45-0.45c-0.25,0-0.45,0.2-0.45,0.45v0.95c0,0.25,0.2,0.45,0.45,0.45
		C26.76,24.92,26.96,24.72,26.96,24.47"/>
	<path class="st0" d="M20.91,24.47v-0.95c0-0.25-0.2-0.45-0.45-0.45s-0.45,0.2-0.45,0.45v0.95c0,0.25,0.2,0.45,0.45,0.45
		S20.91,24.72,20.91,24.47"/>
	<path class="st0" d="M27.55,32.61c0-0.27-0.14-0.51-0.38-0.65l-2.96-1.71c-0.11-0.07-0.24-0.1-0.38-0.1c-0.13,0-0.26,0.04-0.37,0.1
		c-0.23,0.14-0.38,0.38-0.38,0.65v3.42c0,0.27,0.14,0.51,0.38,0.65c0.12,0.07,0.24,0.1,0.37,0.1c0.13,0,0.26-0.04,0.38-0.1
		l2.96-1.71C27.41,33.12,27.55,32.88,27.55,32.61"/>
	<polygon class="st1" points="26.51,32.61 23.98,34.07 23.98,31.15 	"/>
</g>
</svg>
