<?xml version="1.0" encoding="utf-8"?>
<!-- Generator: Adobe Illustrator 22.0.0, SVG Export Plug-In . SVG Version: 6.00 Build 0)  -->
<svg version="1.1" id="Layer_1" xmlns="http://www.w3.org/2000/svg" xmlns:xlink="http://www.w3.org/1999/xlink" x="0px" y="0px"
	 viewBox="0 0 50 50" style="enable-background:new 0 0 50 50;" xml:space="preserve">
<style type="text/css">
	.st0{fill:#013F44;}
	.st1{fill:#FFE600;}
	.st2{fill:#FFFFFF;}
</style>
<g>
	<path class="st0" d="M37.47,21.23c-1.59-4.82-6.12-8.31-11.47-8.31c-0.06,0-0.12,0.01-0.18,0.01c-0.02,0-0.05,0-0.07,0
		c-1.73,0.04-3.37,0.44-4.85,1.13c-0.03,0.01-0.06,0.01-0.08,0.02c-0.03,0.01-0.05,0.04-0.07,0.05c-2.92,1.42-5.19,3.97-6.22,7.09
		c-1.63,0.48-2.78,1.98-2.78,3.69c0,1.71,1.11,3.18,2.72,3.67c1.53,4.91,6.12,8.48,11.53,8.48c5.41,0,9.99-3.57,11.53-8.48
		c1.61-0.5,2.72-1.96,2.72-3.67C40.25,23.21,39.09,21.71,37.47,21.23z M14.15,27.39c-0.85-0.5-1.4-1.42-1.4-2.46
		c0-1.04,0.57-1.98,1.44-2.48C14,23.28,13.91,24.14,13.91,25C13.91,25.81,13.99,26.6,14.15,27.39z M37.85,27.39
		c0.16-0.78,0.24-1.58,0.24-2.39c0-0.86-0.09-1.72-0.27-2.56c0.87,0.5,1.44,1.44,1.44,2.48C39.25,25.96,38.7,26.88,37.85,27.39z"/>
	<path class="st1" d="M26,36.08c-5.22,0-9.59-3.63-10.76-8.49c-0.05-0.21-0.1-0.42-0.13-0.63c-0.04-0.23-0.08-0.46-0.11-0.69
		c-0.03-0.24-0.04-0.48-0.05-0.71c-0.01-0.18-0.03-0.36-0.03-0.55c0-4.24,2.4-7.93,5.91-9.79c1.34,2.51,3.5,4.46,6.15,5.52
		c0.06,0.02,0.12,0.04,0.19,0.04c0.2,0,0.39-0.12,0.46-0.31c0.1-0.26-0.02-0.55-0.28-0.65c-2.42-0.97-4.39-2.75-5.62-5.03
		c1.2-0.5,2.5-0.79,3.86-0.84c0.92,1.4,2.12,2.62,3.52,3.53c0.08,0.06,0.18,0.08,0.27,0.08c0.16,0,0.32-0.08,0.42-0.23
		c0.15-0.23,0.08-0.54-0.15-0.69c-1.09-0.71-2.05-1.63-2.84-2.67c5.72,0.43,10.25,5.21,10.25,11.03c0,0.19-0.02,0.38-0.03,0.57
		c-0.01,0.23-0.02,0.46-0.05,0.69c-0.03,0.24-0.07,0.47-0.11,0.7c-0.04,0.21-0.08,0.42-0.13,0.62C35.59,32.45,31.22,36.08,26,36.08z
		"/>
	<path class="st2" d="M33.49,17.88c-0.19-0.2-0.51-0.21-0.71-0.02c-0.2,0.19-0.21,0.51-0.02,0.71c1.66,1.74,2.57,4.03,2.57,6.43
		c0,0.28,0.22,0.5,0.5,0.5s0.5-0.22,0.5-0.5C36.33,22.34,35.32,19.81,33.49,17.88z"/>
	<path class="st2" d="M31.76,17.65c0.09,0.07,0.2,0.11,0.31,0.11c0.15,0,0.3-0.07,0.4-0.19c0.17-0.22,0.13-0.53-0.09-0.7l-0.15-0.12
		c-0.22-0.17-0.53-0.12-0.7,0.1c-0.17,0.22-0.12,0.53,0.1,0.7L31.76,17.65z"/>
	<path class="st0" d="M30.52,24.26c-1.3,0-2.35,1.06-2.35,2.35c0,0.28,0.22,0.5,0.5,0.5s0.5-0.22,0.5-0.5
		c0-0.75,0.61-1.35,1.35-1.35s1.35,0.61,1.35,1.35c0,0.28,0.22,0.5,0.5,0.5s0.5-0.22,0.5-0.5C32.87,25.32,31.82,24.26,30.52,24.26z"
		/>
	<path class="st0" d="M23.34,27.11c0.28,0,0.5-0.22,0.5-0.5c0-1.3-1.06-2.35-2.35-2.35s-2.35,1.06-2.35,2.35
		c0,0.28,0.22,0.5,0.5,0.5s0.5-0.22,0.5-0.5c0-0.75,0.61-1.35,1.35-1.35s1.35,0.61,1.35,1.35C22.84,26.89,23.06,27.11,23.34,27.11z"
		/>
	<path class="st0" d="M25.26,28.42h1.49c0.28,0,0.5-0.22,0.5-0.5s-0.22-0.5-0.5-0.5h-1.49c-0.28,0-0.5,0.22-0.5,0.5
		S24.98,28.42,25.26,28.42z"/>
	<path class="st0" d="M28.42,30.37c-1.3,1.26-3.54,1.26-4.84,0c-0.2-0.19-0.52-0.19-0.71,0.01c-0.19,0.2-0.19,0.52,0.01,0.71
		c0.84,0.81,1.95,1.26,3.12,1.26s2.28-0.45,3.12-1.26c0.2-0.19,0.2-0.51,0.01-0.71C28.94,30.18,28.62,30.17,28.42,30.37z"/>
</g>
</svg>
