<?xml version="1.0" encoding="utf-8"?>
<!-- Generator: Adobe Illustrator 22.0.0, SVG Export Plug-In . SVG Version: 6.00 Build 0)  -->
<svg version="1.1" id="Layer_1" xmlns="http://www.w3.org/2000/svg" xmlns:xlink="http://www.w3.org/1999/xlink" x="0px" y="0px"
	 viewBox="0 0 50 50" style="enable-background:new 0 0 50 50;" xml:space="preserve">
<style type="text/css">
	.st0{fill:#FFE600;}
	.st1{fill:#013F44;}
</style>
<g>
	<path class="st0" d="M21.72,19.96l1.97-6.12c0.4-1.26,2.18-1.26,2.58,0l1.99,6.13h6.47c1.32,0,1.86,1.69,0.8,2.46l-5.22,3.79
		l2.01,6.11c0.41,1.25-1.02,2.3-2.09,1.52l-5.2-3.78l-5.22,3.8c-1.06,0.78-2.5-0.27-2.09-1.52l2-6.14l-5.23-3.78
		c-1.07-0.77-0.52-2.46,0.8-2.46H21.72z"/>
	<path class="st1" d="M19,34.62c-0.38,0-0.76-0.12-1.09-0.36c-0.66-0.48-0.93-1.29-0.67-2.07l1.89-5.8l-4.94-3.57
		c-0.66-0.48-0.93-1.29-0.68-2.07c0.25-0.78,0.94-1.28,1.76-1.28h6.09l1.86-5.78c0.25-0.78,0.94-1.28,1.76-1.28h0
		c0.82,0,1.51,0.5,1.76,1.28l1.88,5.79h0.66c0.27,0,0.49,0.22,0.49,0.49s-0.22,0.49-0.49,0.49h-1.02c-0.21,0-0.4-0.14-0.47-0.34
		l-1.99-6.13c-0.14-0.44-0.52-0.6-0.82-0.6h0c-0.3,0-0.68,0.16-0.82,0.6l-1.97,6.12c-0.06,0.2-0.25,0.34-0.47,0.34h-6.45
		c-0.46,0-0.73,0.31-0.82,0.6c-0.09,0.29-0.06,0.7,0.32,0.97L20,25.8c0.17,0.12,0.25,0.35,0.18,0.55l-2,6.14
		c-0.14,0.44,0.07,0.79,0.31,0.97c0.25,0.18,0.64,0.27,1.02,0l5.22-3.8c0.17-0.12,0.41-0.13,0.58,0l5.2,3.78
		c0.38,0.27,0.77,0.18,1.02,0c0.25-0.18,0.46-0.53,0.31-0.97l-2.01-6.11c-0.07-0.2,0.01-0.43,0.18-0.55l5.22-3.79
		c0.38-0.27,0.41-0.68,0.32-0.97c-0.09-0.29-0.36-0.6-0.82-0.6h-1.02c-0.27,0-0.49-0.22-0.49-0.49s0.22-0.49,0.49-0.49h1.02
		c0.82,0,1.51,0.5,1.76,1.28c0.25,0.78-0.01,1.59-0.67,2.07l-4.93,3.57l1.89,5.77c0.26,0.78-0.01,1.59-0.67,2.07s-1.52,0.48-2.18,0
		l-4.91-3.57l-4.93,3.59C19.76,34.5,19.38,34.62,19,34.62"/>
	<path class="st1" d="M25,37.6c-0.27,0-0.49-0.22-0.49-0.49v-3.98c0-0.27,0.22-0.49,0.49-0.49c0.27,0,0.49,0.22,0.49,0.49v3.98
		C25.49,37.38,25.27,37.6,25,37.6"/>
	<path class="st1" d="M37.01,28.88c-0.05,0-0.1-0.01-0.15-0.02l-3.79-1.23c-0.26-0.08-0.4-0.36-0.32-0.62
		c0.08-0.26,0.36-0.4,0.62-0.31l3.79,1.23c0.26,0.08,0.4,0.36,0.32,0.62C37.41,28.75,37.21,28.88,37.01,28.88"/>
	<path class="st1" d="M30.08,17.98c-0.1,0-0.2-0.03-0.29-0.09c-0.22-0.16-0.27-0.47-0.11-0.69l2.34-3.22
		c0.16-0.22,0.47-0.27,0.69-0.11c0.22,0.16,0.27,0.47,0.11,0.69l-2.34,3.22C30.38,17.91,30.23,17.98,30.08,17.98"/>
	<path class="st1" d="M19.92,17.98c-0.15,0-0.3-0.07-0.4-0.2l-2.34-3.22c-0.16-0.22-0.11-0.53,0.11-0.69
		c0.22-0.16,0.53-0.11,0.69,0.11l2.34,3.22c0.16,0.22,0.11,0.53-0.11,0.69C20.12,17.95,20.02,17.98,19.92,17.98"/>
	<path class="st1" d="M12.99,28.88c-0.21,0-0.4-0.13-0.47-0.34c-0.08-0.26,0.06-0.54,0.32-0.62l3.79-1.23
		c0.26-0.08,0.54,0.06,0.62,0.31c0.08,0.26-0.06,0.54-0.32,0.62l-3.79,1.23C13.09,28.87,13.04,28.88,12.99,28.88"/>
	<path class="st1" d="M31.5,20.45c-0.13,0-0.26-0.05-0.35-0.14c-0.09-0.09-0.14-0.22-0.14-0.35c0-0.13,0.05-0.26,0.14-0.35
		c0.09-0.09,0.22-0.14,0.35-0.14c0.13,0,0.26,0.05,0.35,0.14c0.09,0.09,0.14,0.22,0.14,0.35c0,0.13-0.05,0.26-0.14,0.35
		C31.75,20.4,31.63,20.45,31.5,20.45"/>
</g>
</svg>
