<?xml version="1.0" encoding="utf-8"?>
<!-- Generator: Adobe Illustrator 22.0.0, SVG Export Plug-In . SVG Version: 6.00 Build 0)  -->
<svg version="1.1" id="Layer_1" xmlns="http://www.w3.org/2000/svg" xmlns:xlink="http://www.w3.org/1999/xlink" x="0px" y="0px"
	 viewBox="0 0 50 50" style="enable-background:new 0 0 50 50;" xml:space="preserve">
<style type="text/css">
	.st0{fill:#013F44;}
	.st1{fill:#FFE600;}
</style>
<g>
	<path class="st0" d="M33.15,34.66c-0.28,0-0.5,0.22-0.5,0.5c0,0.28,0.22,0.5,0.5,0.5c0.28,0,0.5-0.22,0.5-0.5
		C33.66,34.88,33.43,34.66,33.15,34.66"/>
	<path class="st0" d="M37.2,20.97l-1.56-6.25c-0.06-0.22-0.26-0.38-0.49-0.38H14.84c-0.23,0-0.43,0.16-0.49,0.38l-1.56,6.25
		c-0.01,0.04-0.02,0.08-0.02,0.12c0,1.16,0.54,2.26,1.45,2.95c0.07,0.05,0.11,0.14,0.11,0.23v10.89c0,0.28,0.22,0.5,0.5,0.5h7.81
		c0.28,0,0.5-0.23,0.5-0.5v-5.47c0-0.15,0.13-0.28,0.28-0.28h3.12c0.16,0,0.28,0.12,0.28,0.28v5.47c0,0.28,0.22,0.5,0.5,0.5h3.81
		c0.28,0,0.5-0.23,0.5-0.5c0-0.28-0.22-0.5-0.5-0.5h-3.03c-0.15,0-0.28-0.13-0.28-0.28v-5.47c0-0.28-0.22-0.5-0.5-0.5h-4.69
		c-0.28,0-0.5,0.22-0.5,0.5v5.47c0,0.15-0.13,0.28-0.28,0.28h-6.25c-0.15,0-0.28-0.13-0.28-0.28v-9.44c0-0.08,0.04-0.16,0.1-0.21
		c0.05-0.04,0.12-0.07,0.18-0.07c0.02,0,0.03,0,0.05,0c0.18,0.03,0.35,0.06,0.54,0.06c1.06,0,2.05-0.51,2.7-1.4
		c0.05-0.07,0.14-0.11,0.23-0.11c0.09,0,0.17,0.04,0.23,0.11c0.66,0.89,1.64,1.4,2.7,1.4c1.06,0,2.05-0.51,2.7-1.4
		c0.05-0.07,0.14-0.11,0.23-0.11s0.17,0.04,0.23,0.11c0.66,0.89,1.64,1.4,2.7,1.4c1.06,0,2.05-0.51,2.7-1.4
		c0.05-0.07,0.14-0.11,0.22-0.11s0.17,0.04,0.23,0.11c0.66,0.89,1.64,1.4,2.7,1.4c0.18,0,0.36-0.03,0.54-0.06c0.02,0,0.03,0,0.05,0
		c0.07,0,0.13,0.02,0.18,0.07c0.06,0.05,0.1,0.13,0.1,0.21v10.22c0,0.28,0.22,0.5,0.5,0.5c0.28,0,0.5-0.23,0.5-0.5c0,0,0,0,0-0.01
		V24.27c0-0.09,0.04-0.17,0.11-0.23c0.91-0.68,1.45-1.79,1.45-2.95C37.22,21.05,37.21,21.01,37.2,20.97"/>
	<path class="st1" d="M33.79,23.72c-1.34,0-2.43-1.18-2.43-2.62c0-0.27-0.22-0.5-0.5-0.5c-0.28,0-0.5,0.23-0.5,0.5
		c0,1.45-1.09,2.62-2.43,2.62c-1.34,0-2.43-1.18-2.43-2.62c0-0.27-0.22-0.5-0.5-0.5s-0.5,0.23-0.5,0.5c0,1.45-1.09,2.62-2.43,2.62
		c-1.34,0-2.43-1.18-2.43-2.62c0-0.27-0.22-0.5-0.5-0.5c-0.28,0-0.5,0.23-0.5,0.5c0,1.45-1.09,2.62-2.43,2.62
		c-1.31,0-2.38-1.11-2.42-2.6l1.39-5.56c0.03-0.12,0.14-0.21,0.27-0.21h19.09c0.13,0,0.24,0.09,0.27,0.21l1.4,5.64
		C36.17,22.61,35.1,23.72,33.79,23.72"/>
</g>
</svg>
