<?xml version="1.0" encoding="utf-8"?>
<!-- Generator: Adobe Illustrator 22.0.0, SVG Export Plug-In . SVG Version: 6.00 Build 0)  -->
<svg version="1.1" id="Layer_1" xmlns="http://www.w3.org/2000/svg" xmlns:xlink="http://www.w3.org/1999/xlink" x="0px" y="0px"
	 viewBox="0 0 50 50" style="enable-background:new 0 0 50 50;" xml:space="preserve">
<style type="text/css">
	.st0{fill:#013F44;}
	.st1{fill:#FFE600;}
</style>
<g>
	<path class="st0" d="M43.49,25.45c-0.04-0.19-0.52-1.87-3.84-3.1c-2.7-1-5.04-0.74-5.76-0.62c-0.77-0.47-3.8-2.11-8.85-2.41
		c-1.76-0.12-6.78,0.55-7.09,0.59c0,0,0,0,0,0c0,0,0,0,0,0c0,0-0.01,0-0.01,0L8.99,21.2C7.57,21.4,6.5,22.64,6.5,24.07v0.78
		c0,1.25,0.79,2.39,1.97,2.81l1.83,0.66c0.43,1.37,1.7,2.38,3.22,2.38c1.28,0,2.39-0.73,2.96-1.78H33.2
		c0.57,1.06,1.68,1.78,2.96,1.78c1.28,0,2.39-0.73,2.96-1.78h2.77c0.89,0,1.61-0.72,1.61-1.61v-1.74
		C43.5,25.53,43.5,25.49,43.49,25.45z M42.44,27.31c0,0.31-0.25,0.55-0.55,0.55h-2.4c0.03-0.18,0.06-0.36,0.06-0.55
		c0-1.87-1.52-3.39-3.39-3.39c-1.26,0-2.35,0.7-2.93,1.72H21.29c-0.6,0-1.18-0.22-1.63-0.61l-1.12-0.98
		c-0.22-0.19-0.55-0.17-0.75,0.05c-0.19,0.22-0.17,0.55,0.05,0.75l1.12,0.98c0.64,0.56,1.47,0.87,2.32,0.87h11.55
		c-0.04,0.2-0.06,0.4-0.06,0.61c0,0.19,0.03,0.37,0.06,0.55H16.85c0.03-0.18,0.06-0.36,0.06-0.55c0-1.87-1.52-3.39-3.39-3.39
		c-1.81,0-3.28,1.43-3.37,3.21l-1.31-0.48c-0.76-0.28-1.27-1.01-1.27-1.82v-0.78c0-0.91,0.68-1.7,1.58-1.83l8.4-1.21l0.12,1.03
		c0.03,0.22,0.19,0.41,0.41,0.45l1.75,0.38c0.04,0.01,0.08,0.01,0.11,0.01c0.24,0,0.46-0.17,0.52-0.42c0.06-0.28-0.12-0.57-0.4-0.63
		l-1.39-0.3l-0.08-0.68c1.36-0.17,5.02-0.6,6.38-0.52c3.69,0.22,6.25,1.21,7.54,1.83l-1.68,0.64c-0.7,0.27-1.46,0.35-2.21,0.24
		l-6.4-0.92c-0.29-0.04-0.56,0.16-0.6,0.45c-0.04,0.29,0.16,0.56,0.45,0.6l6.4,0.92c0.26,0.04,0.52,0.06,0.78,0.06
		c0.66,0,1.33-0.12,1.95-0.36l2.71-1.03c0.16-0.03,2.57-0.49,5.36,0.55c1.54,0.57,2.35,1.23,2.76,1.7h-0.84
		c-0.29,0-0.53,0.24-0.53,0.53c0,0.29,0.24,0.53,0.53,0.53h1.25V27.31z"/>
	<circle class="st1" cx="13.52" cy="27.32" r="2.33"/>
	<path class="st1" d="M36.16,29.65c-1.28,0-2.33-1.04-2.33-2.33s1.05-2.33,2.33-2.33s2.33,1.04,2.33,2.33S37.44,29.65,36.16,29.65z"
		/>
	<path class="st0" d="M13.59,26.5l-0.89,0.89c-0.21,0.21-0.21,0.54,0,0.75c0.1,0.1,0.24,0.15,0.37,0.15c0.14,0,0.27-0.05,0.37-0.15
		l0.89-0.89c0.21-0.21,0.21-0.54,0-0.75C14.13,26.29,13.79,26.29,13.59,26.5z"/>
	<path class="st0" d="M36.09,26.5c-0.21-0.21-0.54-0.21-0.75,0c-0.21,0.21-0.21,0.54,0,0.75l0.89,0.89c0.1,0.1,0.24,0.15,0.37,0.15
		c0.14,0,0.27-0.05,0.37-0.15c0.21-0.21,0.21-0.54,0-0.75L36.09,26.5z"/>
</g>
</svg>
