<?xml version="1.0" encoding="utf-8"?>
<!-- Generator: Adobe Illustrator 22.0.0, SVG Export Plug-In . SVG Version: 6.00 Build 0)  -->
<svg version="1.1" id="Layer_1" xmlns="http://www.w3.org/2000/svg" xmlns:xlink="http://www.w3.org/2000/xlink" 
	  width="50" height="50" >
<style type="text/css">
	.st0{fill:#013F44;}
	.st1{fill:#FFE600;}
</style>
<g>
	<path class="st0" d="M16.21,36.54c-0.28,0-0.5-0.22-0.5-0.5V25.1l-0.37,0.19c-0.28,0.14-0.58,0.21-0.89,0.21
		c-0.07,0-0.13,0-0.19-0.01c-0.91-0.09-1.52-0.62-1.72-1.5c-0.17-0.77,0.1-1.54,0.72-2.02l3.5-2.69c0.09-0.07,0.19-0.1,0.3-0.1
		c0.16,0,0.3,0.07,0.4,0.2c0.17,0.22,0.13,0.53-0.09,0.7l-3.5,2.69c-0.31,0.24-0.44,0.62-0.36,1c0.1,0.46,0.36,0.68,0.84,0.73h0.01
		c0.3,0,0.5-0.06,0.67-0.19c0.07-0.06,9.52-7.33,9.68-7.44c0.08-0.06,0.18-0.09,0.29-0.09c0.11,0,0.22,0.04,0.3,0.1
		c0.44,0.34,9.11,7.01,9.66,7.43c0.17,0.13,0.37,0.2,0.58,0.2c0.53,0,0.96-0.43,0.96-0.96c0-0.3-0.14-0.58-0.38-0.77l-10.55-8.11
		c-0.17-0.13-0.37-0.19-0.58-0.19c-0.21,0-0.41,0.07-0.58,0.2l-3.87,2.97c-0.09,0.07-0.19,0.1-0.3,0.1c-0.16,0-0.3-0.07-0.4-0.2
		c-0.08-0.11-0.12-0.24-0.1-0.37c0.02-0.13,0.08-0.25,0.19-0.33l3.87-2.97c0.35-0.26,0.76-0.4,1.19-0.4c0.43,0,0.84,0.14,1.19,0.4
		l4.17,3.2v-2.13c0-0.28,0.23-0.5,0.5-0.5h2.93c0.28,0,0.5,0.22,0.5,0.5v5.15l2.45,1.88c0.49,0.37,0.77,0.94,0.77,1.56
		c0,1.08-0.88,1.97-1.97,1.97c-0.32,0-0.62-0.07-0.89-0.21l-0.36-0.19v10.93c0,0.28-0.22,0.5-0.5,0.5H16.21z M16.71,24.28v11.26
		h16.58V24.28L25,17.9L16.71,24.28z"/>
	<path class="st0" d="M18.65,18.96c-0.28,0-0.5-0.22-0.5-0.5c0-0.28,0.22-0.5,0.5-0.5c0.28,0,0.5,0.23,0.5,0.5
		C19.15,18.73,18.93,18.96,18.65,18.96"/>
	<path class="st0" d="M25,32.8c-0.38,0-0.75-0.14-1.03-0.39c-0.26-0.23-0.51-0.44-0.74-0.64c-1.52-1.3-2.72-2.32-2.72-4.06
		c0-1.78,1.33-3.17,3.03-3.17c0.53,0,1.03,0.13,1.47,0.4c0.44-0.26,0.93-0.4,1.47-0.4c1.7,0,3.03,1.39,3.03,3.17
		c0,1.74-1.2,2.77-2.72,4.06c-0.24,0.2-0.49,0.41-0.75,0.64C25.74,32.66,25.38,32.8,25,32.8"/>
	<path class="st1" d="M23.53,25.53c-1.14,0-2.03,0.96-2.03,2.17c0,1.28,0.94,2.09,2.37,3.3c0.24,0.21,0.49,0.42,0.76,0.65
		c0.1,0.09,0.24,0.14,0.37,0.14c0.14,0,0.27-0.05,0.37-0.14c0.26-0.23,0.51-0.44,0.76-0.65c1.43-1.22,2.37-2.02,2.37-3.3
		c0-1.22-0.89-2.17-2.03-2.17c-0.58,0-1.08,0.24-1.47,0.69C24.61,25.77,24.11,25.53,23.53,25.53"/>
	<path class="st0" d="M18.65,18.96c-0.28,0-0.5-0.22-0.5-0.5c0-0.28,0.22-0.5,0.5-0.5c0.28,0,0.5,0.23,0.5,0.5
		C19.15,18.73,18.93,18.96,18.65,18.96"/>
	<polygon class="st1" points="33.29,19.32 33.29,15.44 31.36,15.44 31.36,17.84 	"/>
</g>
</svg>
