<svg width="40" height="40" id="Layer_1" data-name="Layer 1" xmlns="http://www.w3.org/2000/svg" viewBox="0 0 37 11.41"><defs><style>.cls-1{fill:#013f44;}.cls-2{fill:#ffe600;}</style></defs><title>bolbol_icons_nəqliyyat</title><path class="cls-1" d="M37,6.16c-.05-.19-.52-1.87-3.85-3.11a11.7,11.7,0,0,0-5.76-.62A19.73,19.73,0,0,0,18.53,0a61,61,0,0,0-7.09.6h0L2.49,1.9A2.92,2.92,0,0,0,0,4.78v.77A3,3,0,0,0,2,8.37L3.8,9a3.36,3.36,0,0,0,6.18.6H26.7a3.35,3.35,0,0,0,5.92,0h2.77A1.62,1.62,0,0,0,37,8V6.27A.37.37,0,0,0,37,6.16ZM35.94,8a.55.55,0,0,1-.55.55H33A3.31,3.31,0,0,0,33.05,8a3.38,3.38,0,0,0-6.32-1.66H14.79a2.49,2.49,0,0,1-1.63-.61L12,4.77a.53.53,0,0,0-.7.8l1.12,1a3.52,3.52,0,0,0,2.33.88H26.33a3.93,3.93,0,0,0-.06.6,3.31,3.31,0,0,0,.06.55h-16A3.31,3.31,0,0,0,10.4,8a3.38,3.38,0,0,0-6.75-.17L2.33,7.37A1.93,1.93,0,0,1,1.06,5.55V4.78A1.86,1.86,0,0,1,2.64,3L11,1.73l.12,1a.53.53,0,0,0,.42.45l1.75.39h.11A.53.53,0,0,0,14,3.2a.54.54,0,0,0-.4-.63l-1.39-.3-.08-.68a54.86,54.86,0,0,1,6.38-.52A20.09,20.09,0,0,1,26,2.9l-1.68.63a4.35,4.35,0,0,1-2.2.25l-6.4-.93a.53.53,0,0,0-.15,1l6.4.92a5.12,5.12,0,0,0,.78.06,5.43,5.43,0,0,0,1.95-.36l2.7-1A10.41,10.41,0,0,1,32.77,4a6.64,6.64,0,0,1,2.77,1.71h-.85a.53.53,0,1,0,0,1h1.25Z" transform="translate(0 0)"/><circle class="cls-2" cx="7.02" cy="8.02" r="2.33"/><path class="cls-2" d="M29.66,10.35A2.33,2.33,0,1,1,32,8,2.33,2.33,0,0,1,29.66,10.35Z" transform="translate(0 0)"/><path class="cls-1" d="M7.09,7.21,6.2,8.1a.51.51,0,0,0,0,.74A.5.5,0,0,0,6.57,9a.49.49,0,0,0,.37-.16L7.83,8a.52.52,0,0,0-.74-.74Z" transform="translate(0 0)"/><path class="cls-1" d="M29.59,7.21a.53.53,0,0,0-.75,0,.51.51,0,0,0,0,.74l.89.89A.5.5,0,0,0,30.1,9a.52.52,0,0,0,.38-.16.53.53,0,0,0,0-.74Z" transform="translate(0 0)"/></svg>