<svg width="40" height="40" id="Layer_1" data-name="Layer 1" xmlns="http://www.w3.org/2000/svg" viewBox="0 0 25 25"><defs><style>.cls-1{fill:#013f44;}.cls-2{fill:#ffe600;}</style></defs><title>bolbol_icons_digər</title><path class="cls-1" d="M5.43,0a5.44,5.44,0,1,0,5.44,5.43A5.43,5.43,0,0,0,5.43,0m0,9.87A4.44,4.44,0,1,1,9.87,5.43,4.44,4.44,0,0,1,5.43,9.87" transform="translate(0 0)"/><path class="cls-1" d="M19.57,14.13A5.44,5.44,0,1,0,25,19.57a5.43,5.43,0,0,0-5.43-5.44m0,9.87A4.44,4.44,0,1,1,24,19.57,4.44,4.44,0,0,1,19.57,24" transform="translate(0 0)"/><path class="cls-1" d="M25,5.43A5.44,5.44,0,1,1,19.57,0,5.43,5.43,0,0,1,25,5.43" transform="translate(0 0)"/><path class="cls-2" d="M19.57,9.87A4.44,4.44,0,1,1,24,5.43a4.44,4.44,0,0,1-4.43,4.44" transform="translate(0 0)"/><path class="cls-1" d="M5.43,25a5.44,5.44,0,1,1,5.44-5.43A5.43,5.43,0,0,1,5.43,25" transform="translate(0 0)"/><path class="cls-2" d="M5.43,24a4.44,4.44,0,1,1,4.44-4.44A4.44,4.44,0,0,1,5.43,24" transform="translate(0 0)"/></svg>