<svg width="40" height="40" id="Layer_1" data-name="Layer 1" xmlns="http://www.w3.org/2000/svg" viewBox="0 0 25 25.2"><defs><style>.cls-1{fill:#ffe600;}.cls-2{fill:#013f44;}</style></defs><title>bolbol_icons_super fürsət</title><path class="cls-1" d="M9.22,7.56l2-6.13a1.36,1.36,0,0,1,2.59,0l2,6.13h6.47A1.36,1.36,0,0,1,23,10L17.81,13.8l2,6.11a1.36,1.36,0,0,1-2.09,1.53l-5.2-3.79L7.3,21.46a1.36,1.36,0,0,1-2.09-1.52l2-6.14L2,10a1.36,1.36,0,0,1,.8-2.46Z" transform="translate(0 0)"/><path class="cls-2" d="M6.5,22.22a1.86,1.86,0,0,1-1.76-2.43L6.63,14,1.69,10.42A1.85,1.85,0,0,1,2.77,7.07H8.86l1.86-5.79A1.82,1.82,0,0,1,12.48,0h0a1.84,1.84,0,0,1,1.77,1.28l1.87,5.79h.66a.49.49,0,0,1,0,1h-1a.48.48,0,0,1-.46-.34l-2-6.13a.85.85,0,0,0-.83-.6h0a.84.84,0,0,0-.82.61l-2,6.12a.49.49,0,0,1-.47.34H2.77a.85.85,0,0,0-.83.6.86.86,0,0,0,.32,1L7.5,13.4a.5.5,0,0,1,.18.55l-2,6.14a.83.83,0,0,0,.31,1,.85.85,0,0,0,1,0l5.22-3.8a.48.48,0,0,1,.58,0L18,21a.85.85,0,0,0,1,0,.83.83,0,0,0,.31-1l-2-6.11a.5.5,0,0,1,.18-.56l5.22-3.78a.87.87,0,0,0-.51-1.57h-1a.49.49,0,1,1,0-1h1a1.85,1.85,0,0,1,1.09,3.35L18.39,14l1.89,5.77a1.85,1.85,0,0,1-2.85,2.07l-4.91-3.57-4.93,3.6a1.85,1.85,0,0,1-1.09.36" transform="translate(0 0)"/><path class="cls-2" d="M12.5,25.2a.49.49,0,0,1-.49-.49v-4a.49.49,0,0,1,1,0v4a.49.49,0,0,1-.49.49" transform="translate(0 0)"/><path class="cls-2" d="M24.51,16.48l-.15,0-3.79-1.23a.51.51,0,0,1-.32-.63.5.5,0,0,1,.62-.31l3.79,1.23a.49.49,0,0,1,.32.62.5.5,0,0,1-.47.34" transform="translate(0 0)"/><path class="cls-2" d="M17.58,5.58a.52.52,0,0,1-.29-.09.5.5,0,0,1-.11-.69l2.34-3.22a.49.49,0,0,1,.8.58L18,5.38a.51.51,0,0,1-.4.2" transform="translate(0 0)"/><path class="cls-2" d="M7.42,5.58a.51.51,0,0,1-.4-.2L4.68,2.16a.49.49,0,0,1,.8-.58L7.82,4.8a.5.5,0,0,1-.11.69.52.52,0,0,1-.29.09" transform="translate(0 0)"/><path class="cls-2" d="M.49,16.48a.49.49,0,0,1-.15-1l3.79-1.23a.5.5,0,0,1,.62.31.51.51,0,0,1-.32.63L.64,16.46l-.15,0" transform="translate(0 0)"/><path class="cls-2" d="M19,8.05a.49.49,0,1,1,0-1,.52.52,0,0,1,.35.14.51.51,0,0,1,0,.7.52.52,0,0,1-.35.14" transform="translate(0 0)"/></svg>