<svg width="40" height="40" id="Layer_1" data-name="Layer 1" xmlns="http://www.w3.org/2000/svg" viewBox="0 0 23 25"><defs><style>.cls-1{fill:#013f44;}.cls-2{fill:#ffe600;}</style></defs><title>bolbol_icons_geyim</title><path class="cls-1" d="M23,10.09,19.8,3.19A2.58,2.58,0,0,0,18.45,1.8L15,.05a.5.5,0,0,0-.36,0A10.23,10.23,0,0,1,8.38,0,.5.5,0,0,0,8,.05L4.55,1.8A2.58,2.58,0,0,0,3.2,3.19L.05,10.09a.48.48,0,0,0,.19.63L4,13.08V24.5a.5.5,0,0,0,.5.5h14a.5.5,0,0,0,.5-.5V13.08l3.76-2.36a.48.48,0,0,0,.19-.63M14.16,1.16A2.73,2.73,0,0,1,11.5,3,2.73,2.73,0,0,1,8.84,1.16a10.43,10.43,0,0,0,5.32,0M19,11.9V8.8a.5.5,0,0,0-1,0V24H5V8.8a.5.5,0,0,0-1,0v3.1L1.14,10.11l3-6.5A1.54,1.54,0,0,1,5,2.7l1-.52A5.64,5.64,0,0,0,9.1,5.43a.45.45,0,0,0,.2,0,.49.49,0,0,0,.45-.3.5.5,0,0,0-.25-.66A4.57,4.57,0,0,1,6.92,1.73l.91-.46A3.72,3.72,0,0,0,11.5,4a3.72,3.72,0,0,0,3.67-2.76l.91.46A4.57,4.57,0,0,1,13.5,4.51a.49.49,0,0,0-.25.66.49.49,0,0,0,.45.3.45.45,0,0,0,.2,0A5.64,5.64,0,0,0,17,2.18l1,.52a1.54,1.54,0,0,1,.89.91l3,6.5Z" transform="translate(0 0)"/><path class="cls-1" d="M11.5,4.93h0a.5.5,0,0,0-.5.5.5.5,0,0,0,1,0,.5.5,0,0,0-.5-.5" transform="translate(0 0)"/><path class="cls-1" d="M11.5,19a1,1,0,0,1-.94-.65,2.88,2.88,0,0,0-1.7-1.7,1,1,0,0,1,0-1.88,2.86,2.86,0,0,0,1.7-1.7,1,1,0,0,1,1.88,0,2.86,2.86,0,0,0,1.7,1.7,1,1,0,0,1,0,1.88,2.87,2.87,0,0,0-1.7,1.69A1,1,0,0,1,11.5,19Z" transform="translate(0 0)"/><path class="cls-2" d="M11.5,13.45a3.87,3.87,0,0,0,2.29,2.29A3.87,3.87,0,0,0,11.5,18a3.92,3.92,0,0,0-2.29-2.29,3.89,3.89,0,0,0,2.29-2.29" transform="translate(0 0)"/></svg>