<svg width="40" height="40" id="Layer_1" data-name="Layer 1" xmlns="http://www.w3.org/2000/svg" viewBox="0 0 25 24.05"><defs><style>.cls-1{fill:#013f44;}.cls-2{fill:#ffe600;}.cls-3{fill:#fff;}</style></defs><title>bolbol_icons_ərzaq</title><path class="cls-1" d="M21.55,9h-.12a.21.21,0,0,0-.11,0l-.11,0h-.06l-11,5.35v-1a8,8,0,0,0-.38-2.42L8.41,6.71l-.94-2.9a.71.71,0,0,0,.64-.7V.73A.73.73,0,0,0,7.38,0H2.77A.73.73,0,0,0,2,.73V3.11a.71.71,0,0,0,.63.7l-.9,2.82a.44.44,0,0,0-.06.16L.38,10.94A8,8,0,0,0,0,13.36v8.48a2.21,2.21,0,0,0,2.21,2.21H7.93a2.21,2.21,0,0,0,2.14-1.68H23.73A1.27,1.27,0,0,0,25,21.1v-6c0-2.76-1.58-5.54-3.45-6.13M7.15,2.87H3V1H7.15Zm10.2,9a1.8,1.8,0,1,0,3-1.46l1-.5c1.2.47,2.46,2.39,2.63,4.68H11.75ZM24,21.1a.31.31,0,0,1-.31.31H19.17a2.22,2.22,0,0,0,.3-1.11,2.28,2.28,0,1,0-4.56,0,2.23,2.23,0,0,0,.31,1.11H10.15V15.58h.56a1.88,1.88,0,0,0-.22.85,1.8,1.8,0,0,0,3.6,0,1.76,1.76,0,0,0-.22-.85H22a2.5,2.5,0,0,0-.32,1.2A2.42,2.42,0,0,0,24,19.2Z" transform="translate(0 0)"/><path class="cls-2" d="M7.94,23.09H2.21A1.26,1.26,0,0,1,1,21.84V13.36a6.69,6.69,0,0,1,.34-2.13L2.55,7.34H7.6l1.25,3.89a7,7,0,0,1,.34,2.13v8.48a1.26,1.26,0,0,1-1.25,1.25" transform="translate(0 0)"/><path class="cls-1" d="M2.52,13.87a.47.47,0,0,0-.48.48v7a.48.48,0,0,0,1,0v-7a.47.47,0,0,0-.48-.48" transform="translate(0 0)"/><path class="cls-1" d="M2.18,13.1a.52.52,0,0,0,.34.14.58.58,0,0,0,.18,0,.62.62,0,0,0,.16-.1A.5.5,0,0,0,3,12.75a.48.48,0,0,0-.14-.34.62.62,0,0,0-.16-.1.5.5,0,0,0-.52.1.48.48,0,0,0-.14.34.63.63,0,0,0,0,.19.57.57,0,0,0,.11.16" transform="translate(0 0)"/><path class="cls-2" d="M24,18.24a1.46,1.46,0,0,1-.74-2.66H24Z" transform="translate(0 0)"/><path class="cls-2" d="M20,11.76a.84.84,0,0,1-1.68,0,.86.86,0,0,1,.08-.36l.94-.46a.85.85,0,0,1,.66.82" transform="translate(0 0)"/><path class="cls-2" d="M13.13,16.43a.84.84,0,1,1-.84-.84.84.84,0,0,1,.84.84" transform="translate(0 0)"/><polygon class="cls-3" points="3.68 3.83 6.47 3.83 7.29 6.38 2.86 6.38 3.68 3.83"/><path class="cls-2" d="M16.49,21.41a1.3,1.3,0,0,1-.61-1.11,1.32,1.32,0,1,1,2,1.11Z" transform="translate(0 0)"/></svg>