<svg width="40" height="40" id="Layer_1" data-name="Layer 1" xmlns="http://www.w3.org/2000/svg" viewBox="0 0 37 11.41"><defs><style>.cls-1{fill:#013f44;}.cls-2{fill:#ffe600;}</style></defs><title>bolbol_icons_elektronika</title><path class="cls-1" d="M23.43,7h-4.6A1.23,1.23,0,0,0,17.6,8.17v9a1.22,1.22,0,0,0,1.23,1.22h4.6a1.22,1.22,0,0,0,1.22-1.22v-9A1.22,1.22,0,0,0,23.43,7Zm.93,10.17a.93.93,0,0,1-.93.93h-4.6a.93.93,0,0,1-.93-.93v-.06h6.46Zm0-8.89H17.9V8.17a.93.93,0,0,1,.93-.93h4.6a.93.93,0,0,1,.93.93Z" transform="translate(0 0)"/><path class="cls-1" d="M4.7,8.2a.49.49,0,0,0-.15.36.47.47,0,0,0,.15.35.48.48,0,0,0,.7,0,.47.47,0,0,0,.15-.35A.49.49,0,0,0,5.4,8.2a.51.51,0,0,0-.7,0" transform="translate(0 0)"/><path class="cls-1" d="M4.7,8.2a.49.49,0,0,0-.15.36.47.47,0,0,0,.15.35.48.48,0,0,0,.7,0,.47.47,0,0,0,.15-.35A.49.49,0,0,0,5.4,8.2a.51.51,0,0,0-.7,0" transform="translate(0 0)"/><rect class="cls-2" x="17.9" y="8.53" width="6.46" height="8.24"/><path class="cls-1" d="M21.86,17.41H20.39a.14.14,0,0,0-.14.15.14.14,0,0,0,.14.14h1.47a.15.15,0,0,0,.15-.14A.15.15,0,0,0,21.86,17.41Z" transform="translate(0 0)"/><path class="cls-1" d="M19.42,0H2.2A2.21,2.21,0,0,0,0,2.2V12.81A2.21,2.21,0,0,0,2.2,15h8.11v2.64H7.66a.51.51,0,0,0,0,1H14a.51.51,0,0,0,0-1H11.32V15H16a.5.5,0,0,0,.51-.5A.51.51,0,0,0,16,14H2.2a1.19,1.19,0,0,1-1.11-.78L4,10.32a.5.5,0,0,0,0-.7.5.5,0,0,0-.71,0L1,11.9V2.2A1.2,1.2,0,0,1,2.2,1H8L2.77,6.21a.5.5,0,0,0,0,.71.47.47,0,0,0,.35.14.5.5,0,0,0,.36-.14L9.36,1l0,0h10a1.21,1.21,0,0,1,1.21,1.2V5.31a.5.5,0,0,0,.5.5.5.5,0,0,0,.5-.5V2.2A2.21,2.21,0,0,0,19.42,0Z" transform="translate(0 0)"/></svg>