<svg width="40" height="40" id="Layer_1" data-name="Layer 1" xmlns="http://www.w3.org/2000/svg" viewBox="0 0 24.77 24.77"><defs><style>.cls-1{fill:#013f44;}.cls-2{fill:#ffe600;}</style></defs><title>bolbol_icons_pulsuz</title><path class="cls-1" d="M.05,11.19v.14c0,.33,0,.65,0,1,0,.14,0,.27,0,.41s0,.47,0,.7,0,.33.05.5l.09.61c0,.17.07.34.11.52s.08.38.13.57l.15.52.21.57c.06.16.11.32.18.48s.2.45.31.67.11.23.17.34c.17.33.36.65.56,1H2a12.47,12.47,0,0,0,1.57,1.94s0,0,0,0,0,0,0,0a12.08,12.08,0,0,0,1.94,1.58h0c.31.2.62.39,1,.56l.34.17.67.31.27.11,0,0,.33.11.38.13.1,0,.15.05.38.1.37.08.35.09.3,0,.39.07.41.05.3,0,.37,0,.44,0h.63l.47,0h.33l.25,0,.47-.07.37-.05.24-.06.45-.1.39-.1.26-.08.07,0,.32-.11.4-.15.28-.1.32-.15.43-.2h0a5.77,5.77,0,0,0,.55-.29L18.8,23l.27-.17.31-.2.32-.23.32-.25.26-.2.25-.22.36-.33.25-.23L21.3,21c.12-.12.23-.25.34-.38l.36-.41.33-.43c.1-.14.2-.27.3-.42l.13-.18c.06-.09.11-.19.17-.29s.17-.29.25-.43.18-.33.26-.49.16-.31.23-.47.14-.32.2-.48.14-.35.2-.52l.15-.46c.06-.19.11-.38.16-.56s.07-.31.11-.46.08-.39.11-.58,0-.33.07-.49,0-.22,0-.33,0-.15,0-.22,0-.35,0-.53,0-.34,0-.51,0-.37,0-.56l0-.49c0-.08,0-.17,0-.25s0-.21-.05-.32,0-.32-.07-.48-.07-.35-.11-.53l-.12-.51c0-.16-.09-.31-.14-.46s-.12-.38-.18-.57-.1-.26-.16-.39-.16-.39-.25-.59a3.78,3.78,0,0,0-.17-.35,6.19,6.19,0,0,0-.3-.57c-.07-.12-.14-.25-.22-.37s-.11-.19-.17-.29l-.06-.08h0a12.39,12.39,0,0,0-1.52-1.88l0,0,0,0,0,0s0,0,0,0l-.13,0h-.2l-.13,0-.07,0-.07.05h0L19,5,5,19l-1,1A11.67,11.67,0,0,1,2.31,17.7l-.05-.1c-.14-.28-.27-.56-.39-.85l-.09-.24c-.1-.25-.19-.51-.27-.76,0-.09-.05-.18-.08-.27-.07-.26-.13-.52-.19-.78,0-.08,0-.16,0-.24a8.89,8.89,0,0,1-.13-.88c0-.05,0-.1,0-.14a11.54,11.54,0,0,1,.41-4.25L1.53,9c.08-.25.16-.5.26-.75l.15-.35q.12-.3.27-.6l.21-.38a6.05,6.05,0,0,1,.32-.55c.07-.12.15-.24.23-.36s.28-.39.43-.59l.2-.25c.23-.28.47-.55.73-.82h0A11.38,11.38,0,0,1,18.59,2.84a.51.51,0,0,0,.7-.15.5.5,0,0,0-.07-.62A.27.27,0,0,0,19.14,2,12.38,12.38,0,0,0,3.63,3.63a10.73,10.73,0,0,0-.79.86c-.1.13-.19.26-.29.38l-.39.53c-.11.16-.21.33-.31.5s-.19.3-.28.45l-.29.56-.21.45C1,7.55.9,7.74.83,7.94s-.12.34-.18.51S.53,8.81.48,9s-.12.45-.17.67-.07.27-.09.41a10.41,10.41,0,0,0-.16,1.1Z" transform="translate(0 0)"/><path class="cls-2" d="M5.74,19.74l14-14h0l1-1a11.58,11.58,0,0,1,1.3,1.72l.21.35.27.51.16.33c.08.18.16.36.23.54s.09.24.14.37.12.33.17.51.09.28.12.43l.12.46c0,.17.07.34.1.5l.06.43a5,5,0,0,1,.06.54c0,.14,0,.28,0,.43s0,.35,0,.53,0,.31,0,.46l0,.49c0,.17,0,.34-.05.51s0,.3-.07.45-.06.35-.1.52-.06.29-.1.43-.09.34-.14.51-.09.29-.14.44l-.18.46c-.06.15-.12.3-.19.45l-.2.42c-.08.16-.16.31-.25.46s-.15.26-.23.39l-.27.43-.3.42-.28.36c-.11.14-.23.28-.35.41l-.28.31-.34.33c-.16.16-.33.31-.5.45l-.29.24-.12.1-.45.32-.2.14-.3.19a5.09,5.09,0,0,1-.5.3h0l-.42.22-.55.25-.39.17c-.23.09-.46.17-.7.24l-.23.07-.11,0c-.28.07-.56.15-.85.2l-.22,0q-.42.08-.84.12l-.22,0a8.38,8.38,0,0,1-.86,0h-.19c-.32,0-.64,0-1-.05h0l-.17,0q-.42,0-.84-.12l-.27,0-.75-.19L9,23.26c-.25-.08-.49-.16-.74-.26L8,22.9c-.28-.12-.57-.25-.85-.39l-.1-.05A11.19,11.19,0,0,1,4.7,20.77Z" transform="translate(0 0)"/><path class="cls-1" d="M13.16,11.76l-.28-.07V6.58l-.48,0a4.41,4.41,0,0,0-.52,0v4.83l-.27-.08c-1.15-.37-2.33-1-2.33-2.49,0-1.68,1.08-2.56,3.12-2.56a8.62,8.62,0,0,1,2.79.48.93.93,0,0,0,.22,0,.52.52,0,0,0,.2-1,8.87,8.87,0,0,0-3.21-.51c-2.66,0-4.24,1.33-4.24,3.56S9.74,12,11.61,12.5l.27.08v5.63h.32a3.82,3.82,0,0,0,.68-.07V12.86l.28.08h0c1.14.37,2.41,1,2.41,2.59,0,2-1.75,3-3.37,3a10,10,0,0,1-3.37-.61.4.4,0,0,0-.19,0,.54.54,0,0,0-.57.5.56.56,0,0,0,.36.51,10,10,0,0,0,3.77.64c2.16,0,4.49-1.25,4.49-4C16.69,13.24,15.06,12.33,13.16,11.76Z" transform="translate(0 0)"/><path class="cls-1" d="M12.88,5V4.43a.5.5,0,0,0-.5-.5.5.5,0,0,0-.5.5V5c.18,0,.34,0,.52,0Z" transform="translate(0 0)"/><path class="cls-1" d="M11.88,19.76v.58a.5.5,0,0,0,.5.5.5.5,0,0,0,.5-.5v-.61a5.07,5.07,0,0,1-.68,0Z" transform="translate(0 0)"/></svg>