<svg width="40" height="40" id="Layer_1" data-name="Layer 1" xmlns="http://www.w3.org/2000/svg" viewBox="0 0 26 24.75"><defs><style>.cls-1{fill:#013f44;}.cls-2{fill:#ffe600;}</style></defs><title>bolbol_icons_idman_musiqi_hobbi</title><path class="cls-1" d="M13,15.22a4.77,4.77,0,1,0,1.3,9.35.44.44,0,0,0,.27-.21.45.45,0,0,0-.39-.67l-.12,0a3.77,3.77,0,0,1-1.06.15A3.88,3.88,0,1,1,15.45,23a.45.45,0,0,0-.06.63.42.42,0,0,0,.34.17.48.48,0,0,0,.29-.1,4.77,4.77,0,0,0-3-8.46" transform="translate(0 0)"/><path class="cls-1" d="M24.09,11.59v-.5A11.11,11.11,0,0,0,13,0,11.09,11.09,0,0,0,4.88,3.55a.45.45,0,0,0-.12.32.45.45,0,0,0,.14.31.48.48,0,0,0,.31.12.44.44,0,0,0,.32-.15,10.2,10.2,0,0,1,17.66,6.5A1.27,1.27,0,0,0,22.1,10l-.9.06A8.27,8.27,0,0,0,7.38,5a7.92,7.92,0,0,0-2.52,5h-1a1.27,1.27,0,0,0-1.09.64A10.11,10.11,0,0,1,4.53,5.42a.45.45,0,0,0-.12-.62.47.47,0,0,0-.25-.07.46.46,0,0,0-.38.2,11.05,11.05,0,0,0-1.87,6.16l.06.43a2.13,2.13,0,0,0-2,2.11v6.06a2.12,2.12,0,0,0,2.11,2.12l.54-.07v.32A1.25,1.25,0,0,0,3.9,23.31H5.55A1.25,1.25,0,0,0,6.8,22.06V11.26a1.13,1.13,0,0,0-1-1.17h0A7.39,7.39,0,0,1,13,3.72a7.51,7.51,0,0,1,7.29,5.92c0,.13.05.25.07.37a1.26,1.26,0,0,0-1.16,1.25v10.8a1.25,1.25,0,0,0,1.25,1.25H22.1a1.25,1.25,0,0,0,1.25-1.25l-.07-.25h.61A2.12,2.12,0,0,0,26,19.69V13.63a2,2,0,0,0-1.91-2" transform="translate(0 0)"/><path class="cls-2" d="M25.1,19.69a1.22,1.22,0,0,1-1.21,1.22l-.54.07V15.07a.45.45,0,0,0-.9,0v7a.36.36,0,0,1-.35.36H20.45a.36.36,0,0,1-.35-.36V11.26a.36.36,0,0,1,.35-.36H22.1a.36.36,0,0,1,.35.36v2a.45.45,0,1,0,.9,0l-.07-.87h.61a1.22,1.22,0,0,1,1.21,1.22Z" transform="translate(0 0)"/><path class="cls-2" d="M3.55,22.06V11.26a.36.36,0,0,1,.35-.36H5.55a.36.36,0,0,1,.35.36v10.8a.36.36,0,0,1-.35.36H3.9a.36.36,0,0,1-.35-.36" transform="translate(0 0)"/><path class="cls-2" d="M2.11,20.91A1.22,1.22,0,0,1,.9,19.69V13.63a1.22,1.22,0,0,1,1.21-1.22l.54-.07h0l.07,8.55v0Z" transform="translate(0 0)"/><path class="cls-1" d="M10,13.35a.45.45,0,0,0,.45-.45V9.84a.45.45,0,0,0-.9,0V12.9a.45.45,0,0,0,.45.45" transform="translate(0 0)"/><path class="cls-1" d="M17.54,9.92a.45.45,0,0,0-.44.45v2a.45.45,0,1,0,.89,0v-2a.45.45,0,0,0-.45-.45" transform="translate(0 0)"/><path class="cls-1" d="M11.93,13.75V9A.45.45,0,1,0,11,9v4.76a.45.45,0,1,0,.89,0" transform="translate(0 0)"/><path class="cls-1" d="M13.45,13.33V9.41a.45.45,0,0,0-.9,0v3.92a.45.45,0,0,0,.9,0" transform="translate(0 0)"/><path class="cls-1" d="M16.48,13.75V9a.45.45,0,1,0-.9,0v4.76a.45.45,0,1,0,.9,0" transform="translate(0 0)"/><path class="cls-1" d="M15,11.85V10.9a.45.45,0,1,0-.89,0v.95a.45.45,0,0,0,.89,0" transform="translate(0 0)"/><path class="cls-1" d="M8.91,11.85V10.9a.45.45,0,1,0-.9,0v.95a.45.45,0,0,0,.9,0" transform="translate(0 0)"/><path class="cls-1" d="M15.55,20a.72.72,0,0,0-.38-.65l-3-1.71a.7.7,0,0,0-.37-.11.76.76,0,0,0-.38.11.73.73,0,0,0-.37.65V21.7a.73.73,0,0,0,.37.64.76.76,0,0,0,.38.11.7.7,0,0,0,.37-.11l3-1.7a.74.74,0,0,0,.38-.65" transform="translate(0 0)"/><polygon class="cls-2" points="14.51 19.99 11.98 21.44 11.98 18.53 14.51 19.99"/></svg>