<svg width="40" height="40" id="Layer_1" data-name="Layer 1" xmlns="http://www.w3.org/2000/svg" viewBox="0 0 24.44 21.31"><defs><style>.cls-1{fill:#013f44;}.cls-2{fill:#ffe600;}</style></defs><title>bolbol_icons_mağaza və şirkətlər</title><path class="cls-1" d="M20.37,20.31a.51.51,0,0,0-.5.5.5.5,0,0,0,.5.5.5.5,0,0,0,.5-.5.5.5,0,0,0-.5-.5" transform="translate(0 0)"/><path class="cls-1" d="M24.42,6.63,22.86.38A.49.49,0,0,0,22.38,0H2.06a.49.49,0,0,0-.48.38L0,6.63a.5.5,0,0,0,0,.12A3.69,3.69,0,0,0,1.45,9.7a.28.28,0,0,1,.11.22V20.81a.5.5,0,0,0,.5.5H9.88a.5.5,0,0,0,.5-.5V15.34a.28.28,0,0,1,.28-.28h3.12a.28.28,0,0,1,.28.28v5.47a.5.5,0,0,0,.5.5h3.81a.5.5,0,0,0,.5-.5.5.5,0,0,0-.5-.5h-3a.28.28,0,0,1-.28-.28V14.56a.5.5,0,0,0-.5-.5H9.88a.5.5,0,0,0-.5.5V20a.28.28,0,0,1-.29.28H2.84A.28.28,0,0,1,2.56,20V10.59a.28.28,0,0,1,.1-.21.31.31,0,0,1,.18-.07h.05a3.31,3.31,0,0,0,.54.06A3.33,3.33,0,0,0,6.13,9a.28.28,0,0,1,.46,0A3.3,3.3,0,0,0,12,9a.31.31,0,0,1,.23-.12.27.27,0,0,1,.22.12,3.31,3.31,0,0,0,5.41,0,.31.31,0,0,1,.23-.12A.27.27,0,0,1,18.3,9,3.37,3.37,0,0,0,21,10.38a3.31,3.31,0,0,0,.54-.06h0a.34.34,0,0,1,.19.07.28.28,0,0,1,.1.21V20.81a.5.5,0,0,0,.5.5.5.5,0,0,0,.5-.5h0V9.92A.28.28,0,0,1,23,9.7a3.69,3.69,0,0,0,1.45-2.95.5.5,0,0,0,0-.12" transform="translate(0 0)"/><path class="cls-2" d="M21,9.38a2.54,2.54,0,0,1-2.43-2.63.51.51,0,0,0-.5-.5.5.5,0,0,0-.5.5,2.54,2.54,0,0,1-2.43,2.63,2.54,2.54,0,0,1-2.43-2.63.51.51,0,0,0-.5-.5.5.5,0,0,0-.5.5A2.54,2.54,0,0,1,9.29,9.38,2.54,2.54,0,0,1,6.86,6.75a.5.5,0,0,0-1,0A2.54,2.54,0,0,1,3.43,9.38,2.53,2.53,0,0,1,1,6.77L2.4,1.21A.29.29,0,0,1,2.67,1h19.1a.28.28,0,0,1,.27.21l1.4,5.64A2.52,2.52,0,0,1,21,9.38" transform="translate(0 0)"/></svg>