<svg width="40" height="40" id="Layer_1" data-name="Layer 1" xmlns="http://www.w3.org/2000/svg" viewBox="0 0 28.5 24.15"><defs><style>.cls-1{fill:#013f44;}.cls-2{fill:#ffe600;}.cls-3{fill:#fff;}</style></defs><title>bolbol_icons_uşaq aləmi</title><path class="cls-1" d="M25.72,8.31A12.1,12.1,0,0,0,14.25,0H14A12.11,12.11,0,0,0,9.15,1.14l-.08,0A.18.18,0,0,0,9,1.22,12.14,12.14,0,0,0,2.78,8.31,3.86,3.86,0,0,0,0,12a3.82,3.82,0,0,0,2.72,3.67,12.08,12.08,0,0,0,23.06,0,3.84,3.84,0,0,0-.06-7.37ZM2.4,14.46a2.86,2.86,0,0,1,0-4.94,11.54,11.54,0,0,0-.28,2.56A11.86,11.86,0,0,0,2.4,14.46Zm23.7,0a11.86,11.86,0,0,0,.24-2.38,11.54,11.54,0,0,0-.28-2.56,2.86,2.86,0,0,1,0,4.94Z" transform="translate(0 0)"/><path class="cls-2" d="M14.25,23.15A11.08,11.08,0,0,1,3.49,14.67c-.05-.21-.1-.43-.13-.64s-.08-.46-.11-.69,0-.48,0-.72,0-.36,0-.54A11.09,11.09,0,0,1,9.08,2.29a12.06,12.06,0,0,0,6.15,5.52.46.46,0,0,0,.19,0,.48.48,0,0,0,.46-.32.5.5,0,0,0-.27-.65,11,11,0,0,1-5.63-5A11.07,11.07,0,0,1,13.85,1a12.08,12.08,0,0,0,3.52,3.53.47.47,0,0,0,.27.08.5.5,0,0,0,.28-.91A11.14,11.14,0,0,1,15.08,1a11.09,11.09,0,0,1,10.25,11c0,.19,0,.38,0,.56s0,.47-.05.7-.07.46-.11.7-.08.41-.13.62A11.09,11.09,0,0,1,14.25,23.15Z" transform="translate(0 0)"/><path class="cls-3" d="M21.74,5a.5.5,0,0,0-.73.69,9.26,9.26,0,0,1,2.57,6.43.51.51,0,0,0,.5.5.5.5,0,0,0,.5-.5A10.27,10.27,0,0,0,21.74,5Z" transform="translate(0 0)"/><path class="cls-3" d="M20,4.73a.48.48,0,0,0,.7-.09.5.5,0,0,0-.09-.7l-.15-.11a.5.5,0,1,0-.6.79Z" transform="translate(0 0)"/><path class="cls-1" d="M18.77,11.34a2.36,2.36,0,0,0-2.36,2.35.5.5,0,0,0,.5.5.5.5,0,0,0,.5-.5,1.36,1.36,0,0,1,2.71,0,.5.5,0,0,0,.5.5.5.5,0,0,0,.5-.5A2.35,2.35,0,0,0,18.77,11.34Z" transform="translate(0 0)"/><path class="cls-1" d="M11.59,14.19a.5.5,0,0,0,.5-.5,2.36,2.36,0,0,0-4.71,0,.5.5,0,0,0,.5.5.5.5,0,0,0,.5-.5,1.36,1.36,0,0,1,2.71,0A.5.5,0,0,0,11.59,14.19Z" transform="translate(0 0)"/><path class="cls-1" d="M13.51,15.5H15a.5.5,0,1,0,0-1H13.51a.5.5,0,1,0,0,1Z" transform="translate(0 0)"/><path class="cls-1" d="M16.67,17.44a3.57,3.57,0,0,1-4.84,0,.5.5,0,1,0-.7.72,4.49,4.49,0,0,0,6.24,0,.5.5,0,0,0-.7-.72Z" transform="translate(0 0)"/></svg>