<svg width="40" height="40" id="Layer_1" data-name="Layer 1" xmlns="http://www.w3.org/2000/svg" viewBox="0 0 25.45 22.67"><defs><style>.cls-1{fill:#013f44;}.cls-2{fill:#fff;}.cls-3{fill:#ffe600;}</style></defs><title>bolbol_icons_iş elanları</title><path class="cls-1" d="M14.29,20a.51.51,0,0,0-.5.5.5.5,0,0,0,.5.5.49.49,0,0,0,.5-.5.5.5,0,0,0-.5-.5" transform="translate(0 0)"/><path class="cls-1" d="M25.3,21.82l-2.25-2.25a3.93,3.93,0,1,0-.71.71l2.25,2.24a.51.51,0,0,0,.36.15.5.5,0,0,0,.35-.15.48.48,0,0,0,0-.7M22,19.25A2.89,2.89,0,1,1,20,14.31,2.9,2.9,0,0,1,22,19.25" transform="translate(0 0)"/><path class="cls-1" d="M12.28,20H2.16a.58.58,0,0,1-.61-.61V12.15a.47.47,0,0,0-.5-.5.47.47,0,0,0-.5.5v7.21A1.58,1.58,0,0,0,2.16,21H12.28a.5.5,0,1,0,0-1" transform="translate(0 0)"/><path class="cls-1" d="M14.46,14.34V12.52l8.29-1.78v1a.46.46,0,0,0,.5.5.47.47,0,0,0,.5-.5V10.2A1.55,1.55,0,0,0,24.3,9V5.49a1.57,1.57,0,0,0-1.61-1.61H16.53V1.61A1.61,1.61,0,0,0,16.07.46,1.59,1.59,0,0,0,14.92,0H9.38A1.57,1.57,0,0,0,7.77,1.61V3.88H1.61A1.57,1.57,0,0,0,0,5.49V9A1.62,1.62,0,0,0,1.23,10.6l8.61,2v1.78a.67.67,0,0,0,.68.67h3.26a.67.67,0,0,0,.68-.67M8.77,3.88V1.61A.57.57,0,0,1,9.38,1h5.54a.57.57,0,0,1,.61.61V3.88Z" transform="translate(0 0)"/><rect class="cls-2" x="10.84" y="11.39" width="2.62" height="2.62"/><path class="cls-3" d="M22.69,4.88H1.61A.58.58,0,0,0,1,5.49V9a.6.6,0,0,0,.49.61l8.35,1.87v-.34a.67.67,0,0,1,.68-.68h3.26a.67.67,0,0,1,.68.68v.27l8.35-1.8A.6.6,0,0,0,23.3,9V5.49a.58.58,0,0,0-.61-.61" transform="translate(0 0)"/></svg>