<svg width="40" height="40" id="Layer_1" data-name="Layer 1" xmlns="http://www.w3.org/2000/svg" viewBox="0 0 25.03 24.8"><defs><style>.cls-1{fill:#013f44;}.cls-2{fill:#ffe600;}</style></defs><title>bolbol_icons_kosmetika</title><path class="cls-1" d="M1.43,24.8A1.43,1.43,0,0,1,0,23.37V14.45A.5.5,0,0,1,.5,14H.65l0-2.61a.5.5,0,0,1,.5-.5h.16l0-6.56a.51.51,0,0,1,.5-.5A.43.43,0,0,1,2,3.84L4.38,5.05a1.74,1.74,0,0,1,1,1.55v4.28l.12,0a.51.51,0,0,1,.5.5V14l.12,0a.5.5,0,0,1,.5.5v8.92A1.43,1.43,0,0,1,5.16,24.8ZM1,23.37a.44.44,0,0,0,.43.44H5.16a.44.44,0,0,0,.43-.44V21.83L1,20.49ZM1,17l4.63,1.36,0-3.44L1,15Zm.62-3L5,14l0-2.14-3.35,0Zm.62-3.1,2.14,0,0-4.24a.73.73,0,0,0-.41-.66l-1.7-.85Z" transform="translate(0 0)"/><polygon class="cls-2" points="5.62 20.86 0.96 19.48 0.96 17.96 5.62 19.35 5.62 20.86"/><path class="cls-1" d="M25,9.15a9.15,9.15,0,1,0-9.62,9.14v1.76h-1a2.9,2.9,0,0,0-2.9,2.9v1.36a.47.47,0,0,0,.47.46h7.76a.47.47,0,0,0,.47-.46V23a2.9,2.9,0,0,0-2.9-2.9h-1V18.29A9.16,9.16,0,0,0,25,9.15M17.33,21a2,2,0,0,1,2,2v.89H12.46V23a2,2,0,0,1,2-2Z" transform="translate(0 0)"/><path class="cls-2" d="M15.88,17.37A8.22,8.22,0,1,1,24.1,9.15a8.23,8.23,0,0,1-8.22,8.22" transform="translate(0 0)"/><path class="cls-1" d="M10.87,11.09a.5.5,0,0,1-.35-.85L17.3,3.46a.47.47,0,0,1,.35-.15.49.49,0,0,1,.36.15.5.5,0,0,1,0,.7l-6.78,6.78a.49.49,0,0,1-.36.15" transform="translate(0 0)"/><path class="cls-1" d="M14.85,12a.5.5,0,0,1-.35-.14.49.49,0,0,1-.15-.36.49.49,0,0,1,.15-.35l3.35-3.35a.51.51,0,0,1,.35-.15.53.53,0,0,1,.36.15.5.5,0,0,1,.14.35.52.52,0,0,1-.14.36l-3.35,3.35a.54.54,0,0,1-.36.14" transform="translate(0 0)"/></svg>