<svg width="40" height="40" id="Layer_1" data-name="Layer 1" xmlns="http://www.w3.org/2000/svg" viewBox="0 0 25.02 23.07"><defs><style>.cls-1{fill:#013f44;}.cls-2{fill:#ffe600;}</style></defs><title>bolbol_icons_daşınmaz əmlak</title><path class="cls-1" d="M3.72,23.07a.5.5,0,0,1-.5-.5V11.63l-.36.19A2,2,0,0,1,2,12h-.2A1.84,1.84,0,0,1,.05,10.52a1.94,1.94,0,0,1,.73-2l3.5-2.69a.46.46,0,0,1,.3-.11.49.49,0,0,1,.4.2.51.51,0,0,1-.09.7L1.38,9.3a1,1,0,0,0-.35,1,.84.84,0,0,0,.84.73h0a1,1,0,0,0,.67-.19c.07-.06,9.52-7.33,9.68-7.44a.47.47,0,0,1,.28-.09.5.5,0,0,1,.31.1l9.66,7.43a.92.92,0,0,0,.58.19,1,1,0,0,0,1-1,1,1,0,0,0-.38-.77L13.09,1.19A1,1,0,0,0,12.51,1a1,1,0,0,0-.58.2l-3.87,3a.47.47,0,0,1-.3.1.49.49,0,0,1-.5-.56.51.51,0,0,1,.19-.33l3.87-3A2,2,0,0,1,12.51,0,1.94,1.94,0,0,1,13.7.4l4.17,3.2V1.48a.5.5,0,0,1,.5-.5H21.3a.5.5,0,0,1,.5.5V6.63l2.45,1.88A1.94,1.94,0,0,1,25,10.07a2,2,0,0,1-2,2,1.92,1.92,0,0,1-.89-.22l-.37-.19V22.57a.5.5,0,0,1-.5.5Zm.5-12.26V22.07H20.8V10.81L12.51,4.44Z" transform="translate(0 0)"/><path class="cls-1" d="M6.16,5.49a.5.5,0,0,1-.5-.5.51.51,0,0,1,.5-.5.5.5,0,0,1,.5.5.5.5,0,0,1-.5.5" transform="translate(0 0)"/><path class="cls-1" d="M12.51,19.33a1.57,1.57,0,0,1-1-.39c-.26-.22-.51-.43-.74-.64C9.21,17,8,16,8,14.24a3.07,3.07,0,0,1,3-3.17,2.84,2.84,0,0,1,1.47.39A2.86,2.86,0,0,1,14,11.07a3.07,3.07,0,0,1,3,3.17C17,16,15.81,17,14.29,18.3l-.75.65a1.6,1.6,0,0,1-1,.38" transform="translate(0 0)"/><path class="cls-2" d="M11,12.07a2.08,2.08,0,0,0-2,2.17c0,1.28,1,2.08,2.37,3.3l.76.65a.56.56,0,0,0,.74,0l.76-.65c1.43-1.22,2.37-2,2.37-3.3a2.08,2.08,0,0,0-2-2.17,1.86,1.86,0,0,0-1.47.69A1.86,1.86,0,0,0,11,12.07" transform="translate(0 0)"/><path class="cls-1" d="M6.16,5.49a.5.5,0,0,1-.5-.5.51.51,0,0,1,.5-.5.5.5,0,0,1,.5.5.5.5,0,0,1-.5.5" transform="translate(0 0)"/><polygon class="cls-2" points="20.8 5.86 20.8 1.98 18.87 1.98 18.87 4.37 20.8 5.86"/></svg>