<svg width="40" height="40" id="Layer_1" data-name="Layer 1" xmlns="http://www.w3.org/2000/svg" viewBox="0 0 25 24.96"><defs><style>.cls-1{fill:#013f44;}.cls-2{fill:#ffe600;}</style></defs><title>bolbol_icons_xidmətlər</title><path class="cls-1" d="M3.9,22a.49.49,0,1,1,0-.7.5.5,0,0,1,0,.7" transform="translate(0 0)"/><path class="cls-1" d="M22.24,24.15c-.15.55-.82.68-1,.72a4.58,4.58,0,0,1-.83.08,4.42,4.42,0,0,1-4-2.42.49.49,0,0,1,.78-.57.47.47,0,0,1,.09.12,3.4,3.4,0,0,0,.63.87A3.47,3.47,0,0,0,21,23.9l.14,0L19.25,22a2.07,2.07,0,0,1-.1-2.82,2.09,2.09,0,0,1,2.88.05L23.8,21c0,.06.09.1.12.14L24,21A3.46,3.46,0,0,0,23,17.87a3.52,3.52,0,0,0-3.92-.7.47.47,0,0,1-.55-.1l-1.05-1h-.12a1.66,1.66,0,0,1-1.16-.47,1.63,1.63,0,0,1-.48-1.16,1.84,1.84,0,0,1,0-.33,1.78,1.78,0,0,1-1-.51,1.81,1.81,0,0,1-.53-1.13,2.78,2.78,0,0,1-1.13-.09,4.31,4.31,0,0,1-1.36-.67,3.29,3.29,0,0,1-.33,1.11l5.73,5.72a.49.49,0,0,1,.1.55,3.39,3.39,0,0,0-.31,1.6.57.57,0,0,1-.13.36.54.54,0,0,1-.34.16.47.47,0,0,1-.37-.15.48.48,0,0,1-.15-.32A4.67,4.67,0,0,1,16.18,19l-.69-.69a3.19,3.19,0,0,1-1.73.41l-.4-.06c-.7-.12-.75-.13-1.37.49L9.81,21.29a1.45,1.45,0,0,1,.1.51,1.31,1.31,0,0,1-.39.93L7.68,24.57a1.32,1.32,0,0,1-1.87,0L4.6,23.37a.49.49,0,0,1,.7-.7l1.21,1.21a.33.33,0,0,0,.47,0L8.83,22a.37.37,0,0,0,.1-.24.33.33,0,0,0-.1-.23L6.75,19.49a.49.49,0,0,1,0-.69.47.47,0,0,1,.35-.15.49.49,0,0,1,.35.15l1.73,1.72,2.11-2.11a2,2,0,0,1,2.23-.76l.38.06a1.82,1.82,0,0,0,.85-.18l-3.93-3.92-.21.23a.5.5,0,0,1-.35.14.48.48,0,0,1-.49-.49.5.5,0,0,1,.14-.35,2.65,2.65,0,0,0,.84-1.81,1.2,1.2,0,0,0-.34-.9.49.49,0,0,1-.14-.37.49.49,0,0,1,.15-.34.5.5,0,0,1,.68,0l1,1c.57.54,1.73,1.06,2.45.61a.79.79,0,0,1,.18-.25,7,7,0,0,0-.61-.67L11,7.32a.21.21,0,0,0-.3,0L8.48,9.55a2,2,0,0,0-.55,1.54c.07,1.25-.52,2.4-2,3.85L4.77,16.12,6.25,17.6a.5.5,0,0,1-.7.7L3.73,16.47a.34.34,0,0,0-.48,0L1.41,18.31a.35.35,0,0,0-.1.24.34.34,0,0,0,.1.23l1.08,1.08a.49.49,0,1,1-.7.7L.71,19.48h0a1.3,1.3,0,0,1,0-1.86l1.85-1.84A1.3,1.3,0,0,1,4,15.5l1.25-1.26C6.5,13,7,12.08,7,11.15a3,3,0,0,1,.17-1.23L6,8.8a4.49,4.49,0,0,1-4.7-1,4.45,4.45,0,0,1-1.22-4c0-.22.17-.9.72-1a1,1,0,0,1,1,.36c.08.07.14.15.19.2S3.67,5,3.67,5a1.09,1.09,0,0,0,1.47.07,1.1,1.1,0,0,0-.08-1.45L3.33,1.94a2.59,2.59,0,0,1-.21-.18,1,1,0,0,1-.36-1C2.91.24,3.59.12,3.81.08a4.44,4.44,0,0,1,5,5.9l.92.93L10,6.63a1.2,1.2,0,0,1,1.68,0l1-1A1.81,1.81,0,0,1,15.8,6.88v0a1.8,1.8,0,0,1,1.8,2.22,1.8,1.8,0,0,1,1,.51,1.78,1.78,0,0,1,.52,1.27V11a1.63,1.63,0,0,1,1.1,2.79l-1.79,1.79.53.54a4.44,4.44,0,0,1,5.92,5c0,.22-.17.89-.72,1a1,1,0,0,1-1-.36l-.19-.2L21.33,19.9a1.1,1.1,0,0,0-1.47-.06,1.09,1.09,0,0,0,.08,1.44L21.67,23l.21.19a1,1,0,0,1,.36,1" transform="translate(0 0)"/><path class="cls-2" d="M7.62,9l.17-.17L9,7.6,7.89,6.45a.51.51,0,0,1-.1-.55A3.46,3.46,0,0,0,4,1l-.15,0c.05,0,.11.11.18.18L5.75,3a2.07,2.07,0,0,1,.1,2.82A2.1,2.1,0,0,1,3,5.74L1.2,4l-.12-.13s0,.09,0,.15A3.46,3.46,0,0,0,5.91,7.77a.51.51,0,0,1,.55.1Z" transform="translate(0 0)"/><path class="cls-2" d="M14.58,7.46a.82.82,0,0,0,0-1.16.82.82,0,0,0-1.16,0l-1,1,1.16,1.16Z" transform="translate(0 0)"/><path class="cls-2" d="M16.45,9.3a.82.82,0,0,0-1.18-1.15l-1,1c.28.28.87.88,1.13,1.19Z" transform="translate(0 0)"/><path class="cls-2" d="M17.94,11.51a.8.8,0,0,0,.24-.58.79.79,0,0,0-.23-.57h0a.83.83,0,0,0-.58-.24.84.84,0,0,0-.58.24l-1.36,1.36a.83.83,0,0,0-.24.58.76.76,0,0,0,.24.57.79.79,0,0,0,.58.25.83.83,0,0,0,.58-.24Z" transform="translate(0 0)"/><path class="cls-2" d="M19.57,13.13a.66.66,0,0,0,.19-.46A.65.65,0,0,0,19.1,12a.66.66,0,0,0-.46.19L16.9,13.94a.64.64,0,0,0-.19.46.66.66,0,0,0,.19.46.65.65,0,0,0,.93,0Z" transform="translate(0 0)"/></svg>