<svg width="40" height="40" id="Layer_1" data-name="Layer 1" xmlns="http://www.w3.org/2000/svg" viewBox="0 0 28.22 21.9"><defs><style>.cls-1{fill:#013f44;}.cls-2{fill:#ffe600;}</style></defs><title>bolbol_icons_ev_bağ</title><path class="cls-1" d="M25.11,21.9a.5.5,0,0,1-.5-.5v-.23l-13.5-.05,0,.28a.5.5,0,0,1-.5.5H8a.5.5,0,0,1-.5-.5V17.48A1.78,1.78,0,0,1,8.9,15.74l0-2.09a1.59,1.59,0,0,1,1.58-1.57h6.19a1.57,1.57,0,0,1,1.06.4,1.89,1.89,0,0,1,1.12-.4H25a1.59,1.59,0,0,1,1.59,1.57v2a1.86,1.86,0,0,1,1.59,1.8V21.4a.5.5,0,0,1-.5.5Zm-14-1.83,13.5.05.05-1.62-13.55-.05Zm7.83-7a.57.57,0,0,0-.41.17.55.55,0,0,0-.17.43V17.4l6.27.05a1.94,1.94,0,0,1,1-1.55l0-2.25a.58.58,0,0,0-.58-.57Zm-8.37,0a.59.59,0,0,0-.58.57v2.16a1.86,1.86,0,0,1,1.12,1.59l6.2.05,0-3.8a.58.58,0,0,0-.58-.57Z" transform="translate(0 0)"/><path class="cls-1" d="M.5,21.9a.5.5,0,0,1-.5-.5.5.5,0,0,1,.5-.5H2.4L2.45,5.65A5.56,5.56,0,0,1,7.86,0a5.54,5.54,0,0,1,5.38,5.16,3.21,3.21,0,0,1,2.65,3.13v.52a.5.5,0,0,1-.5.5H10.14a.5.5,0,0,1-.5-.5V8.29A3.12,3.12,0,0,1,12.2,5.22,4.44,4.44,0,0,0,7.86,1,4.54,4.54,0,0,0,3.45,5.65v15.2l2.3,0a.5.5,0,0,1,.5.5.5.5,0,0,1-.5.5ZM12.76,6.16a2.14,2.14,0,0,0-2.12,2.1l4.2.06A2.08,2.08,0,0,0,12.76,6.16Z" transform="translate(0 0)"/><path class="cls-2" d="M8.51,20.8l.05-3.31a.71.71,0,0,1,1.41,0V20.8Z" transform="translate(0 0)"/><path class="cls-2" d="M25.66,20.8l.05-3.31a.71.71,0,0,1,1.41,0V20.8Z" transform="translate(0 0)"/><path class="cls-2" d="M12.83,10.3a1.46,1.46,0,0,0,1.34-.94H11.48A1.47,1.47,0,0,0,12.83,10.3Z" transform="translate(0 0)"/></svg>