<?xml version="1.0" encoding="utf-8"?>
<!-- Generator: Adobe Illustrator 22.0.0, SVG Export Plug-In . SVG Version: 6.00 Build 0)  -->
<svg version="1.1" id="Layer_1" xmlns="http://www.w3.org/2000/svg" xmlns:xlink="http://www.w3.org/1999/xlink" x="0px" y="0px"
	 viewBox="0 0 50 50" style="enable-background:new 0 0 50 50;" xml:space="preserve">
<style type="text/css">
	.st0{fill:#013F44;}
	.st1{fill:#FFE600;}
</style>
<g>
	<path class="st0" d="M25.11,21.9c-0.28,0-0.5-0.22-0.5-0.5v-0.23l-13.5-0.05l-0.05,0.28c0,0.27-0.22,0.5-0.5,0.5H7.96
		c-0.28,0-0.5-0.22-0.5-0.5v-3.92c0.01-0.86,0.6-1.58,1.44-1.74l0.04-2.09c0.01-0.86,0.72-1.57,1.58-1.57h6.19
		c0.39,0,0.77,0.14,1.06,0.4c0.35-0.26,0.73-0.4,1.11-0.4h6.16c0.87,0,1.58,0.7,1.59,1.56v2.03c0.93,0.17,1.58,0.91,1.59,1.81v3.92
		c0,0.27-0.22,0.5-0.5,0.5H25.11z M11.06,20.07l13.5,0.05l0.05-1.62l-13.55-0.05V20.07z M18.89,13.08c-0.16,0-0.3,0.06-0.41,0.17
		c-0.11,0.12-0.18,0.27-0.17,0.43l0,3.72l6.26,0.05c0.08-0.69,0.46-1.27,1.04-1.55l0.03-2.25c0-0.31-0.26-0.57-0.58-0.57H18.89z
		 M10.52,13.08c-0.32,0-0.58,0.26-0.58,0.57v2.15c0.66,0.31,1.09,0.92,1.12,1.6l6.2,0.05l0.05-3.8c0-0.31-0.26-0.57-0.58-0.57H10.52
		z"/>
	<path class="st0" d="M0.5,21.9c-0.28,0-0.5-0.22-0.5-0.5c0-0.27,0.22-0.5,0.5-0.5h1.9L2.45,5.65C2.47,2.53,4.89,0,7.86,0
		c2.78,0,5.15,2.27,5.39,5.16c1.55,0.3,2.64,1.6,2.65,3.13v0.52c0,0.27-0.22,0.5-0.5,0.5h-5.25c-0.28,0-0.5-0.22-0.5-0.5V8.29
		c0-1.51,1.08-2.8,2.56-3.07C12,2.79,10.12,1,7.86,1C5.43,1,3.45,3.09,3.45,5.65l0,15.2l2.3,0.05c0.28,0,0.5,0.22,0.5,0.5
		c0,0.28-0.22,0.5-0.5,0.5H0.5z M12.76,6.16c-1.16,0-2.11,0.94-2.13,2.1l4.2,0.05C14.88,7.11,13.92,6.16,12.76,6.16z"/>
	<path class="st1" d="M8.51,20.8l0.05-3.31c0.01-0.38,0.32-0.68,0.7-0.68c0.39,0.01,0.69,0.31,0.71,0.68v3.32H8.51z"/>
	<path class="st1" d="M25.66,20.8l0.05-3.31c0.01-0.38,0.32-0.68,0.7-0.68c0.39,0.01,0.69,0.31,0.71,0.68v3.32H25.66z"/>
	<path class="st1" d="M12.83,10.3c0.59,0,1.12-0.38,1.34-0.93h-2.69C11.7,9.92,12.24,10.3,12.83,10.3z"/>
</g>
</svg>
