<?xml version="1.0" encoding="utf-8"?>
<!-- Generator: Adobe Illustrator 22.0.0, SVG Export Plug-In . SVG Version: 6.00 Build 0)  -->
<svg version="1.1" id="Layer_1" xmlns="http://www.w3.org/2000/svg" xmlns:xlink="http://www.w3.org/1999/xlink" x="0px" y="0px"
	 viewBox="0 0 50 50" style="enable-background:new 0 0 50 50;" xml:space="preserve">
<style type="text/css">
	.st0{fill:#013F44;}
	.st1{fill:#FFE600;}
</style>
<g>
	<path class="st0" d="M23.43,6.95h-4.6c-0.67,0-1.22,0.55-1.22,1.22v8.95c0,0.67,0.55,1.22,1.22,1.22h4.6
		c0.67,0,1.22-0.55,1.22-1.22V8.17C24.65,7.5,24.1,6.95,23.43,6.95z M24.36,17.12c0,0.51-0.42,0.93-0.93,0.93h-4.6
		c-0.51,0-0.93-0.42-0.93-0.93v-0.06h6.46V17.12z M24.36,8.23H17.9V8.17c0-0.51,0.42-0.93,0.93-0.93h4.6c0.51,0,0.93,0.42,0.93,0.93
		V8.23z"/>
	<path class="st0" d="M4.7,8.2C4.6,8.3,4.55,8.42,4.55,8.56c0,0.13,0.05,0.26,0.15,0.35C4.79,9,4.92,9.06,5.05,9.06
		C5.18,9.06,5.31,9,5.4,8.91C5.5,8.82,5.55,8.69,5.55,8.56C5.55,8.42,5.5,8.3,5.4,8.2C5.31,8.11,5.18,8.06,5.05,8.06
		C4.92,8.06,4.79,8.11,4.7,8.2"/>
	<path class="st0" d="M4.7,8.2C4.6,8.3,4.55,8.42,4.55,8.56c0,0.13,0.05,0.26,0.15,0.35C4.79,9,4.92,9.06,5.05,9.06
		C5.18,9.06,5.31,9,5.4,8.91C5.5,8.82,5.55,8.69,5.55,8.56C5.55,8.42,5.5,8.3,5.4,8.2C5.31,8.11,5.18,8.06,5.05,8.06
		C4.92,8.06,4.79,8.11,4.7,8.2"/>
	<rect x="17.9" y="8.53" class="st1" width="6.46" height="8.24"/>
	<path class="st0" d="M21.86,17.41h-1.47c-0.08,0-0.15,0.07-0.15,0.15s0.07,0.15,0.15,0.15h1.47c0.08,0,0.15-0.07,0.15-0.15
		S21.94,17.41,21.86,17.41z"/>
	<path class="st0" d="M19.42,0H2.2C0.99,0,0,0.99,0,2.2v10.6c0,1.22,0.99,2.2,2.2,2.2h8.11v2.64H7.66c-0.28,0-0.5,0.23-0.5,0.5
		s0.22,0.5,0.5,0.5h6.3c0.28,0,0.5-0.22,0.5-0.5s-0.22-0.5-0.5-0.5h-2.65v-2.64h4.65c0.28,0,0.5-0.22,0.5-0.5s-0.23-0.5-0.5-0.5H2.2
		c-0.51,0-0.95-0.33-1.12-0.78l2.9-2.9c0.2-0.19,0.2-0.51,0-0.71c-0.19-0.19-0.51-0.19-0.71,0L1,11.9V2.2C1,1.54,1.54,1,2.2,1h5.78
		L2.77,6.21c-0.2,0.2-0.2,0.51,0,0.71c0.1,0.1,0.23,0.15,0.35,0.15c0.13,0,0.26-0.05,0.35-0.15l5.88-5.88
		C9.37,1.02,9.38,1.01,9.38,1h10.04c0.66,0,1.2,0.54,1.2,1.2v3.11c0,0.28,0.22,0.5,0.5,0.5s0.5-0.22,0.5-0.5V2.2
		C21.63,0.99,20.64,0,19.42,0z"/>
</g>
</svg>
