<?xml version="1.0" encoding="utf-8"?>
<!-- Generator: Adobe Illustrator 22.0.0, SVG Export Plug-In . SVG Version: 6.00 Build 0)  -->
<svg version="1.1" id="Layer_1" xmlns="http://www.w3.org/2000/svg" xmlns:xlink="http://www.w3.org/1999/xlink" x="0px" y="0px"
	 viewBox="0 0 50 50" style="enable-background:new 0 0 50 50;" xml:space="preserve">
<style type="text/css">
	.st0{fill:#013F44;}
	.st1{fill:#FFE600;}
</style>
<g>
	<path class="st0" d="M3.9,21.97c-0.25,0.23-0.53,0.17-0.7,0c-0.16-0.16-0.23-0.45,0-0.7c0.19-0.19,0.51-0.19,0.7,0
		C4.09,21.46,4.09,21.77,3.9,21.97"/>
	<path class="st0" d="M22.24,24.15c-0.15,0.55-0.82,0.68-1.04,0.72c-0.27,0.05-0.56,0.08-0.84,0.08c-1.19,0-2.31-0.46-3.15-1.3
		c-0.33-0.33-0.6-0.71-0.81-1.12c-0.12-0.24-0.03-0.54,0.21-0.66c0.19-0.1,0.42-0.06,0.57,0.09c0.04,0.04,0.07,0.08,0.09,0.12
		c0.16,0.32,0.38,0.61,0.64,0.87c0.81,0.81,1.97,1.16,3.11,0.95c0.05-0.01,0.1-0.02,0.14-0.03l-1.9-1.89
		c-0.77-0.77-0.81-2.01-0.1-2.82c0.86-0.76,2.1-0.72,2.87,0.05c0.52,0.52,1.74,1.74,1.77,1.78c0.05,0.05,0.09,0.1,0.12,0.14
		c0.01-0.04,0.02-0.09,0.04-0.15c0.21-1.13-0.14-2.29-0.95-3.1c-1.03-1.02-2.6-1.3-3.92-0.7c-0.19,0.09-0.41,0.04-0.55-0.1
		l-1.05-1.04c-0.04,0-0.09,0-0.13,0c-0.44,0-0.85-0.17-1.16-0.48c-0.31-0.31-0.48-0.72-0.48-1.16c0-0.11,0.01-0.22,0.03-0.33
		c-0.39-0.05-0.75-0.23-1.03-0.51c-0.31-0.31-0.49-0.71-0.52-1.13c-0.35,0.05-0.73,0.02-1.13-0.09c-0.48-0.13-0.96-0.37-1.36-0.67
		c-0.04,0.37-0.16,0.75-0.34,1.1l5.73,5.72c0.14,0.15,0.18,0.37,0.1,0.55c-0.23,0.5-0.34,1.05-0.31,1.6
		c0.01,0.13-0.04,0.26-0.13,0.35c-0.09,0.1-0.21,0.15-0.34,0.16c-0.15,0-0.28-0.05-0.37-0.14c-0.09-0.09-0.14-0.2-0.14-0.33
		c-0.02-0.59,0.07-1.19,0.27-1.74l-0.69-0.69c-0.48,0.24-1.14,0.5-1.73,0.41l-0.4-0.06c-0.7-0.12-0.76-0.13-1.38,0.49l-2.18,2.18
		c0.07,0.16,0.1,0.34,0.1,0.51c0,0.35-0.14,0.68-0.39,0.93l-1.85,1.84c-0.25,0.25-0.58,0.38-0.93,0.38c-0.35,0-0.68-0.14-0.93-0.38
		L4.6,23.37c-0.19-0.19-0.19-0.51,0-0.7c0.19-0.19,0.51-0.19,0.7,0l1.21,1.21c0.13,0.13,0.34,0.13,0.47,0l1.85-1.84
		c0.06-0.06,0.1-0.15,0.1-0.24c0-0.09-0.03-0.17-0.1-0.23l-2.08-2.07c-0.19-0.19-0.19-0.5,0-0.69c0.09-0.09,0.21-0.15,0.35-0.15
		c0.13,0,0.25,0.05,0.35,0.14l1.73,1.73l2.12-2.11c0.94-0.93,1.36-0.91,2.22-0.77l0.39,0.06c0.2,0.03,0.51-0.04,0.85-0.18
		l-3.93-3.92c-0.07,0.08-0.14,0.15-0.21,0.23c-0.09,0.09-0.22,0.14-0.35,0.14c-0.13,0-0.25-0.05-0.35-0.14
		c-0.09-0.09-0.14-0.22-0.14-0.35s0.05-0.25,0.14-0.35c0.53-0.52,0.84-1.2,0.84-1.81c0-0.37-0.12-0.69-0.34-0.91
		c-0.1-0.11-0.15-0.23-0.15-0.36c0-0.13,0.06-0.25,0.15-0.34c0.19-0.18,0.49-0.18,0.68,0l0.97,0.96c0.56,0.54,1.73,1.06,2.44,0.62
		c0.03-0.07,0.1-0.16,0.18-0.25c-0.15-0.21-0.47-0.54-0.61-0.67l-3.06-3.06c-0.08-0.08-0.22-0.08-0.3,0L8.48,9.55
		c-0.38,0.37-0.59,0.97-0.55,1.54c0.08,1.24-0.52,2.39-1.97,3.85l-1.19,1.18l1.48,1.48c0.19,0.19,0.19,0.5,0,0.69
		c-0.19,0.19-0.5,0.19-0.69,0l-1.83-1.82c-0.13-0.13-0.34-0.13-0.47,0l-1.84,1.84c-0.06,0.06-0.1,0.15-0.1,0.24
		c0,0.09,0.03,0.17,0.1,0.23l1.08,1.08c0.19,0.19,0.19,0.51,0,0.7c-0.19,0.19-0.51,0.19-0.7,0l-1.08-1.08l0,0
		c-0.25-0.25-0.38-0.58-0.38-0.93c0-0.35,0.14-0.68,0.39-0.93l1.85-1.85c0.38-0.38,0.95-0.49,1.45-0.28l1.26-1.25
		C6.5,13.01,7,12.08,6.95,11.15c-0.02-0.41,0.04-0.84,0.18-1.23L6,8.8C4.37,9.4,2.53,9,1.3,7.78C0.26,6.73-0.2,5.25,0.08,3.8
		C0.12,3.58,0.25,2.9,0.8,2.76c0.32-0.08,0.64,0.04,0.97,0.36c0.07,0.07,0.14,0.15,0.18,0.2c0.04,0.05,1.72,1.72,1.72,1.72
		c0.4,0.39,1.04,0.42,1.47,0.06C5.48,4.7,5.45,4.06,5.06,3.66C5.05,3.66,3.38,1.99,3.33,1.94C3.27,1.9,3.2,1.83,3.12,1.76
		C2.8,1.43,2.68,1.11,2.76,0.8c0.15-0.55,0.82-0.68,1.04-0.72C5.26-0.2,6.75,0.26,7.79,1.3c1.23,1.23,1.63,3.06,1.03,4.69l0.92,0.92
		l0.28-0.28c0.46-0.46,1.22-0.47,1.68-0.01l1.02-1.02c0.7-0.7,1.85-0.7,2.55,0c0.34,0.34,0.53,0.79,0.53,1.27c0,0.02,0,0.04,0,0.05
		c0.5-0.02,0.97,0.17,1.33,0.53c0.44,0.44,0.62,1.09,0.48,1.69c0.39,0.05,0.75,0.23,1.03,0.51c0.34,0.34,0.53,0.79,0.53,1.27
		c0,0.03,0,0.07,0,0.1c0.41,0.01,0.81,0.18,1.1,0.48c0.31,0.31,0.48,0.72,0.48,1.16c0,0.44-0.17,0.85-0.48,1.16
		c0,0-1.78,1.77-1.8,1.79L19,16.15c1.63-0.6,3.47-0.2,4.7,1.02c1.04,1.04,1.5,2.53,1.22,3.98c-0.04,0.22-0.17,0.89-0.72,1.04
		c-0.32,0.09-0.64-0.04-0.97-0.36c-0.07-0.07-0.14-0.14-0.18-0.2c-0.04-0.05-1.72-1.72-1.72-1.72c-0.4-0.39-1.04-0.42-1.47-0.06
		c-0.34,0.41-0.31,1.05,0.08,1.45c0.01,0,1.68,1.67,1.73,1.72c0.05,0.04,0.13,0.11,0.2,0.18C22.2,23.51,22.32,23.84,22.24,24.15"/>
	<path class="st1" d="M7.62,9.03c0.05-0.06,0.1-0.12,0.16-0.18L9.04,7.6L7.89,6.45C7.75,6.3,7.71,6.08,7.79,5.9
		c0.6-1.31,0.33-2.88-0.69-3.9C6.29,1.18,5.12,0.83,3.99,1.04c-0.06,0.01-0.1,0.02-0.14,0.03c0.05,0.05,0.11,0.11,0.18,0.18
		C4.6,1.83,5.75,2.97,5.75,2.97c0.77,0.77,0.81,2.01,0.1,2.82C4.98,6.55,3.74,6.5,2.97,5.74C2.45,5.22,1.23,4,1.2,3.96
		c-0.05-0.06-0.09-0.1-0.12-0.14C1.07,3.87,1.06,3.92,1.04,3.98c-0.21,1.13,0.14,2.29,0.95,3.1c1.03,1.02,2.6,1.3,3.92,0.7
		c0.18-0.09,0.41-0.05,0.55,0.1L7.62,9.03z"/>
	<path class="st1" d="M14.58,7.46c0.15-0.15,0.24-0.36,0.24-0.58c0-0.22-0.09-0.42-0.24-0.58c-0.32-0.32-0.84-0.32-1.16,0L12.4,7.32
		l1.16,1.16L14.58,7.46z"/>
	<path class="st1" d="M16.45,9.3c0.3-0.32,0.3-0.83-0.01-1.14c-0.32-0.32-0.84-0.32-1.16,0l-1.02,1.02
		c0.28,0.28,0.87,0.88,1.13,1.19L16.45,9.3z"/>
	<path class="st1" d="M17.94,11.51c0.15-0.15,0.24-0.36,0.24-0.58c0-0.22-0.08-0.42-0.23-0.57c0,0-0.01,0-0.01-0.01
		c-0.16-0.15-0.36-0.24-0.58-0.24c-0.22,0-0.43,0.09-0.58,0.24l-1.36,1.36c-0.15,0.15-0.24,0.36-0.24,0.58
		c0,0.22,0.08,0.42,0.24,0.57c0.16,0.16,0.36,0.24,0.58,0.24c0.22,0,0.43-0.08,0.58-0.24L17.94,11.51z"/>
	<path class="st1" d="M19.57,13.13c0.12-0.12,0.19-0.29,0.19-0.46c0-0.17-0.07-0.34-0.19-0.46c-0.12-0.12-0.29-0.19-0.47-0.19
		c-0.18,0-0.34,0.07-0.47,0.19l-1.74,1.73c-0.12,0.12-0.19,0.29-0.19,0.46c0,0.17,0.07,0.34,0.19,0.46c0.26,0.26,0.67,0.26,0.93,0
		L19.57,13.13z"/>
</g>
</svg>
