<?xml version="1.0" encoding="utf-8"?>
<!-- Generator: Adobe Illustrator 22.0.0, SVG Export Plug-In . SVG Version: 6.00 Build 0)  -->
<svg version="1.1" id="Layer_1" xmlns="http://www.w3.org/2000/svg" xmlns:xlink="http://www.w3.org/1999/xlink" x="0px" y="0px"
	 viewBox="0 0 50 50" style="enable-background:new 0 0 50 50;" xml:space="preserve">
<style type="text/css">
	.st0{fill:#013F44;}
	.st1{fill:#FFE600;}
</style>
<g>
	<path class="st0" d="M20.37,20.31c-0.28,0-0.5,0.22-0.5,0.5c0,0.28,0.22,0.5,0.5,0.5c0.28,0,0.5-0.22,0.5-0.5
		C20.87,20.54,20.65,20.31,20.37,20.31"/>
	<path class="st0" d="M24.42,6.63l-1.56-6.25C22.81,0.16,22.61,0,22.38,0H2.06C1.83,0,1.63,0.16,1.58,0.38L0.02,6.63
		C0.01,6.67,0,6.71,0,6.75C0,7.91,0.54,9.02,1.45,9.7c0.07,0.05,0.11,0.14,0.11,0.23v10.89c0,0.28,0.22,0.5,0.5,0.5h7.81
		c0.28,0,0.5-0.23,0.5-0.5v-5.47c0-0.15,0.13-0.28,0.28-0.28h3.12c0.16,0,0.28,0.12,0.28,0.28v5.47c0,0.28,0.22,0.5,0.5,0.5h3.81
		c0.28,0,0.5-0.23,0.5-0.5c0-0.28-0.22-0.5-0.5-0.5h-3.03c-0.15,0-0.28-0.13-0.28-0.28v-5.47c0-0.28-0.22-0.5-0.5-0.5H9.88
		c-0.28,0-0.5,0.22-0.5,0.5v5.47c0,0.15-0.13,0.28-0.28,0.28H2.84c-0.15,0-0.28-0.13-0.28-0.28v-9.44c0-0.08,0.04-0.16,0.1-0.21
		c0.05-0.04,0.12-0.07,0.18-0.07c0.02,0,0.03,0,0.05,0c0.18,0.03,0.35,0.06,0.54,0.06c1.06,0,2.05-0.51,2.7-1.4
		c0.05-0.07,0.14-0.11,0.23-0.11c0.09,0,0.17,0.04,0.23,0.11c0.66,0.89,1.64,1.4,2.7,1.4c1.06,0,2.05-0.51,2.7-1.4
		c0.05-0.07,0.14-0.11,0.23-0.11s0.17,0.04,0.23,0.11c0.66,0.89,1.64,1.4,2.7,1.4c1.06,0,2.05-0.51,2.7-1.4
		c0.05-0.07,0.14-0.11,0.22-0.11s0.17,0.04,0.23,0.11c0.66,0.89,1.64,1.4,2.7,1.4c0.18,0,0.36-0.03,0.54-0.06c0.02,0,0.03,0,0.05,0
		c0.07,0,0.13,0.02,0.18,0.07c0.06,0.05,0.1,0.13,0.1,0.21v10.22c0,0.28,0.22,0.5,0.5,0.5c0.28,0,0.5-0.23,0.5-0.5c0,0,0,0,0-0.01
		V9.92c0-0.09,0.04-0.17,0.11-0.23c0.91-0.68,1.45-1.79,1.45-2.95C24.44,6.71,24.43,6.67,24.42,6.63"/>
	<path class="st1" d="M21.01,9.38c-1.34,0-2.43-1.18-2.43-2.62c0-0.27-0.22-0.5-0.5-0.5c-0.28,0-0.5,0.23-0.5,0.5
		c0,1.45-1.09,2.62-2.43,2.62c-1.34,0-2.43-1.18-2.43-2.62c0-0.27-0.22-0.5-0.5-0.5s-0.5,0.23-0.5,0.5c0,1.45-1.09,2.62-2.43,2.62
		c-1.34,0-2.43-1.18-2.43-2.62c0-0.27-0.22-0.5-0.5-0.5c-0.28,0-0.5,0.23-0.5,0.5c0,1.45-1.09,2.62-2.43,2.62
		c-1.31,0-2.38-1.11-2.42-2.6L2.4,1.21C2.43,1.09,2.55,1,2.67,1h19.09c0.13,0,0.24,0.09,0.27,0.21l1.4,5.64
		C23.39,8.27,22.32,9.38,21.01,9.38"/>
</g>
</svg>
