<?xml version="1.0" encoding="utf-8"?>
<!-- Generator: Adobe Illustrator 22.0.0, SVG Export Plug-In . SVG Version: 6.00 Build 0)  -->
<svg version="1.1" id="Layer_1" xmlns="http://www.w3.org/2000/svg" xmlns:xlink="http://www.w3.org/1999/xlink" x="0px" y="0px"
	 viewBox="0 0 50 50" style="enable-background:new 0 0 50 50;" xml:space="preserve">
<style type="text/css">
	.st0{fill:#013F44;}
	.st1{fill:#FFE600;}
</style>
<g>
	<path class="st0" d="M5.44,0C2.43,0,0,2.43,0,5.43c0,3,2.43,5.43,5.44,5.43c3,0,5.43-2.43,5.43-5.43C10.87,2.43,8.44,0,5.44,0
		 M5.44,9.87C2.99,9.87,1,7.88,1,5.43C1,2.99,2.99,1,5.44,1c2.44,0,4.43,1.99,4.43,4.43C9.87,7.88,7.88,9.87,5.44,9.87"/>
	<path class="st0" d="M19.57,14.13c-3,0-5.44,2.43-5.44,5.43c0,3,2.43,5.43,5.44,5.43c3,0,5.43-2.43,5.43-5.43
		C25,16.56,22.57,14.13,19.57,14.13 M19.57,24c-2.45,0-4.44-1.99-4.44-4.43c0-2.44,1.99-4.43,4.44-4.43c2.44,0,4.43,1.99,4.43,4.43
		C24,22.01,22.01,24,19.57,24"/>
	<path class="st0" d="M25,5.43c0,3-2.43,5.44-5.44,5.44c-3,0-5.43-2.43-5.43-5.44c0-3,2.43-5.43,5.43-5.43C22.57,0,25,2.43,25,5.43"
		/>
	<path class="st1" d="M19.57,9.87c-2.45,0-4.44-1.99-4.44-4.43c0-2.44,1.99-4.43,4.44-4.43C22.01,1,24,2.99,24,5.43
		C24,7.88,22.01,9.87,19.57,9.87"/>
	<path class="st0" d="M5.44,25C2.43,25,0,22.57,0,19.57c0-3,2.43-5.43,5.44-5.43c3,0,5.43,2.43,5.43,5.43
		C10.87,22.57,8.44,25,5.44,25"/>
	<path class="st1" d="M5.44,24C2.99,24,1,22.01,1,19.57c0-2.44,1.99-4.43,4.44-4.43c2.44,0,4.43,1.99,4.43,4.43
		C9.87,22.01,7.88,24,5.44,24"/>
</g>
</svg>
