<?xml version="1.0" encoding="utf-8"?>
<!-- Generator: Adobe Illustrator 22.0.0, SVG Export Plug-In . SVG Version: 6.00 Build 0)  -->
<svg version="1.1" id="Layer_1" xmlns="http://www.w3.org/2000/svg" xmlns:xlink="http://www.w3.org/1999/xlink" x="0px" y="0px"
	 viewBox="0 0 50 50" style="enable-background:new 0 0 50 50;" xml:space="preserve">
<style type="text/css">
	.st0{fill:#013F44;}
	.st1{fill:#FFE600;}
	.st2{fill:#FFFFFF;}
</style>
<g>
	<path class="st0" d="M25.72,8.31C24.13,3.49,19.59,0,14.25,0c-0.06,0-0.12,0.01-0.18,0.01c-0.02,0-0.05,0-0.07,0
		c-1.73,0.04-3.37,0.44-4.85,1.13C9.13,1.15,9.1,1.15,9.07,1.17C9.04,1.18,9.02,1.2,9,1.22C6.08,2.64,3.81,5.19,2.78,8.31
		C1.16,8.78,0,10.28,0,12c0,1.71,1.11,3.18,2.72,3.67c1.53,4.91,6.12,8.48,11.53,8.48c5.41,0,9.99-3.57,11.53-8.48
		c1.61-0.5,2.72-1.96,2.72-3.67C28.5,10.28,27.34,8.78,25.72,8.31z M2.4,14.46C1.55,13.96,1,13.04,1,12c0-1.04,0.57-1.98,1.44-2.48
		c-0.18,0.84-0.27,1.69-0.27,2.56C2.16,12.88,2.24,13.68,2.4,14.46z M26.1,14.46c0.16-0.78,0.24-1.58,0.24-2.39
		c0-0.86-0.09-1.72-0.27-2.56c0.87,0.5,1.44,1.44,1.44,2.48C27.5,13.04,26.95,13.96,26.1,14.46z"/>
	<path class="st1" d="M14.25,23.15c-5.22,0-9.59-3.63-10.76-8.49c-0.05-0.21-0.1-0.42-0.13-0.63c-0.04-0.23-0.08-0.46-0.11-0.69
		c-0.03-0.24-0.04-0.48-0.05-0.71c-0.01-0.18-0.03-0.36-0.03-0.55c0-4.24,2.4-7.93,5.91-9.79c1.34,2.51,3.5,4.46,6.15,5.52
		c0.06,0.02,0.12,0.04,0.19,0.04c0.2,0,0.39-0.12,0.46-0.31c0.1-0.26-0.02-0.55-0.28-0.65c-2.42-0.97-4.39-2.75-5.62-5.03
		c1.2-0.5,2.5-0.79,3.86-0.84c0.92,1.4,2.12,2.62,3.52,3.53c0.08,0.06,0.18,0.08,0.27,0.08c0.16,0,0.32-0.08,0.42-0.23
		c0.15-0.23,0.08-0.54-0.15-0.69C16.82,3,15.86,2.09,15.08,1.04c5.72,0.43,10.25,5.21,10.25,11.03c0,0.19-0.02,0.38-0.03,0.57
		c-0.01,0.23-0.02,0.46-0.05,0.69c-0.03,0.24-0.07,0.47-0.11,0.7c-0.04,0.21-0.08,0.42-0.13,0.62
		C23.84,19.52,19.47,23.15,14.25,23.15z"/>
	<path class="st2" d="M21.74,4.96c-0.19-0.2-0.51-0.21-0.71-0.02c-0.2,0.19-0.21,0.51-0.02,0.71c1.66,1.74,2.57,4.03,2.57,6.43
		c0,0.28,0.22,0.5,0.5,0.5s0.5-0.22,0.5-0.5C24.58,9.41,23.57,6.88,21.74,4.96z"/>
	<path class="st2" d="M20.01,4.73c0.09,0.07,0.2,0.11,0.31,0.11c0.15,0,0.3-0.07,0.4-0.19c0.17-0.22,0.13-0.53-0.09-0.7l-0.15-0.12
		c-0.22-0.17-0.53-0.12-0.7,0.1c-0.17,0.22-0.12,0.53,0.1,0.7L20.01,4.73z"/>
	<path class="st0" d="M18.77,11.34c-1.3,0-2.35,1.06-2.35,2.35c0,0.28,0.22,0.5,0.5,0.5s0.5-0.22,0.5-0.5
		c0-0.75,0.61-1.35,1.35-1.35s1.35,0.61,1.35,1.35c0,0.28,0.22,0.5,0.5,0.5s0.5-0.22,0.5-0.5C21.12,12.39,20.07,11.34,18.77,11.34z"
		/>
	<path class="st0" d="M11.59,14.19c0.28,0,0.5-0.22,0.5-0.5c0-1.3-1.06-2.35-2.35-2.35s-2.35,1.06-2.35,2.35
		c0,0.28,0.22,0.5,0.5,0.5s0.5-0.22,0.5-0.5c0-0.75,0.61-1.35,1.35-1.35s1.35,0.61,1.35,1.35C11.09,13.97,11.31,14.19,11.59,14.19z"
		/>
	<path class="st0" d="M13.51,15.5h1.49c0.28,0,0.5-0.22,0.5-0.5s-0.22-0.5-0.5-0.5h-1.49c-0.28,0-0.5,0.22-0.5,0.5
		S13.23,15.5,13.51,15.5z"/>
	<path class="st0" d="M16.67,17.44c-1.3,1.26-3.54,1.26-4.84,0c-0.2-0.19-0.52-0.19-0.71,0.01c-0.19,0.2-0.19,0.52,0.01,0.71
		c0.84,0.81,1.95,1.26,3.12,1.26s2.28-0.45,3.12-1.26c0.2-0.19,0.2-0.51,0.01-0.71C17.19,17.26,16.87,17.25,16.67,17.44z"/>
</g>
</svg>
