<?xml version="1.0" encoding="utf-8"?>
<!-- Generator: Adobe Illustrator 22.0.0, SVG Export Plug-In . SVG Version: 6.00 Build 0)  -->
<svg version="1.1" id="Layer_1" xmlns="http://www.w3.org/2000/svg" xmlns:xlink="http://www.w3.org/1999/xlink" x="0px" y="0px"
	 viewBox="0 0 50 50" style="enable-background:new 0 0 50 50;" xml:space="preserve">
<style type="text/css">
	.st0{fill:#013F44;}
	.st1{fill:#FFE600;}
</style>
<g id="XMLID_51_">
	<path id="XMLID_76_" class="st0" d="M24.6,6.97C24.49,6.74,24.26,6.59,24,6.59h-0.51c-0.25,0-0.49,0.15-0.59,0.38
		c-0.11,0.23-0.07,0.5,0.09,0.7l0.26,0.31c0.12,0.15,0.31,0.24,0.5,0.24s0.38-0.09,0.5-0.24l0.26-0.31
		C24.67,7.47,24.71,7.2,24.6,6.97L24.6,6.97z"/>
	<path id="XMLID_87_" class="st0" d="M21.99,4.67c-0.15,0-0.3,0.06-0.4,0.17c-0.11,0.11-0.17,0.25-0.17,0.4
		c0,0.15,0.06,0.3,0.17,0.4c0.11,0.11,0.25,0.17,0.4,0.17s0.3-0.06,0.4-0.17c0.11-0.11,0.17-0.25,0.17-0.4c0-0.15-0.06-0.3-0.17-0.4
		S22.14,4.67,21.99,4.67z"/>
	<path id="XMLID_92_" class="st0" d="M25.5,5.81c0.15,0,0.3-0.06,0.4-0.17c0.11-0.11,0.17-0.25,0.17-0.4c0-0.15-0.06-0.3-0.17-0.4
		s-0.25-0.17-0.4-0.17c-0.15,0-0.3,0.06-0.4,0.17c-0.11,0.11-0.17,0.25-0.17,0.4c0,0.15,0.06,0.3,0.17,0.4
		C25.21,5.75,25.35,5.81,25.5,5.81z"/>
	<path class="st0" d="M28.25,3.15c0.07-0.28,0.11-0.57,0.13-0.86c0.04-0.47,0.02-0.95-0.06-1.41c-0.05-0.32-0.25-0.59-0.53-0.75
		c-0.28-0.16-0.62-0.17-0.91-0.05c-0.65,0.27-1.23,0.66-1.73,1.14c-0.26-0.04-0.51-0.06-0.77-0.06h-1.26
		c-0.25,0-0.51,0.02-0.76,0.06c-0.51-0.48-1.09-0.87-1.73-1.14c-0.3-0.13-0.63-0.11-0.91,0.05c-0.28,0.16-0.48,0.43-0.53,0.75
		c-0.08,0.46-0.1,0.94-0.06,1.41c0.02,0.29,0.07,0.57,0.13,0.86c-0.22,0.3-0.4,0.63-0.54,0.97h-8.05c-1.16,0-2.27,0.25-3.31,0.73
		C7.07,4.97,6.94,5.31,7.08,5.59c0.1,0.21,0.3,0.33,0.52,0.33c0.08,0,0.16-0.02,0.24-0.05c0.89-0.41,1.84-0.62,2.83-0.62h7.73
		c-0.03,0.23-0.05,0.46-0.05,0.69c0,2.63,2.14,4.77,4.77,4.77h1.13c-0.42,1.46-1.41,2.7-2.74,3.45l-0.3-0.65
		c-0.13-0.28-0.47-0.41-0.76-0.27c-0.28,0.13-0.41,0.47-0.27,0.76l1.54,3.28c0.03,0.06,0.07,0.11,0.11,0.16l0.66,0.67
		c0.15,0.16,0.11,0.33,0.08,0.4c-0.03,0.07-0.12,0.22-0.34,0.22H20.6c0,0-6.16-7.98-6.17-7.99C13.59,9.68,12.3,9,10.86,9
		c-0.31,0-0.57,0.25-0.57,0.57c0,0.31,0.25,0.57,0.57,0.57c1.89,0,3.43,1.54,3.43,3.43c0,1.08-0.52,2.11-1.39,2.76
		c-0.2,0.15-0.28,0.4-0.2,0.64c0.08,0.23,0.29,0.39,0.54,0.39h0.9c0.87,0,1.61,0.58,1.85,1.37h-5.32c-3.71,0-6.74-3.02-6.74-6.74
		c0-0.98,0.21-1.93,0.62-2.82c0.13-0.29,0.01-0.62-0.28-0.76C3.98,8.28,3.64,8.4,3.51,8.69c-0.48,1.04-0.72,2.14-0.72,3.29
		c0,0.72,0.1,1.42,0.28,2.09C1.26,14.71,0,16.44,0,18.41C0,20.94,2.06,23,4.59,23h15.26c0.31,0,0.57-0.25,0.57-0.57
		c0-1-0.4-1.9-1.04-2.57h2.84c0.62,0,1.15-0.35,1.39-0.92c0.24-0.57,0.11-1.2-0.32-1.64l-0.59-0.6l-0.71-1.52
		c1.77-0.96,3.03-2.64,3.46-4.6c2.12-0.49,3.7-2.39,3.7-4.65C29.15,4.93,28.83,3.96,28.25,3.15z M17.16,18.72
		c-0.24-1.29-1.29-2.3-2.6-2.48c0.5-0.69,0.8-1.52,0.86-2.38l3.75,4.86H17.16z M24.38,9.56h-1.26c-2,0-3.63-1.63-3.63-3.63
		c0-0.84,0.29-1.66,0.82-2.3c0.12-0.14,0.16-0.34,0.11-0.52c-0.08-0.3-0.14-0.61-0.16-0.92c-0.03-0.34-0.02-0.68,0.03-1.02
		c0.55,0.25,1.05,0.61,1.47,1.05c0.14,0.15,0.35,0.21,0.54,0.16c0.27-0.06,0.55-0.1,0.83-0.1h1.26c0.28,0,0.56,0.03,0.83,0.1
		c0.2,0.05,0.41-0.02,0.54-0.16c0.42-0.45,0.91-0.8,1.47-1.05c0.05,0.33,0.06,0.68,0.03,1.02c-0.02,0.28-0.07,0.57-0.14,0.84
		c-0.09,0.19-0.06,0.42,0.08,0.59c0.53,0.65,0.82,1.47,0.82,2.3C28.01,7.94,26.38,9.56,24.38,9.56z"/>
	<path class="st1" d="M4.59,21.86c-1.9,0-3.45-1.55-3.45-3.45c0-1.48,0.95-2.78,2.31-3.26c1.22,2.77,3.99,4.71,7.21,4.71h6.04
		c1.22,0,2.25,0.86,2.51,2L4.59,21.86L4.59,21.86z"/>
	<path id="XMLID_112_" class="st0" d="M5.49,7.39c0.15,0,0.3-0.06,0.4-0.17C6,7.12,6.06,6.97,6.06,6.82c0-0.15-0.06-0.3-0.17-0.4
		c-0.11-0.11-0.25-0.17-0.4-0.17c-0.15,0-0.3,0.06-0.4,0.17c-0.11,0.11-0.17,0.25-0.17,0.4c0,0.15,0.06,0.3,0.17,0.4
		C5.2,7.33,5.34,7.39,5.49,7.39z"/>
</g>
</svg>
