<?xml version="1.0" encoding="utf-8"?>
<!-- Generator: Adobe Illustrator 22.0.0, SVG Export Plug-In . SVG Version: 6.00 Build 0)  -->
<svg version="1.1" id="Layer_1" xmlns="http://www.w3.org/2000/svg" xmlns:xlink="http://www.w3.org/1999/xlink" x="0px" y="0px"
	 viewBox="0 0 50 50" style="enable-background:new 0 0 50 50;" xml:space="preserve">
<style type="text/css">
	.st0{fill:#013F44;}
	.st1{fill:#FFE600;}
</style>
<g>
	<g>
		<path class="st0" d="M0.05,11.19c0,0.05,0,0.09-0.01,0.14C0.02,11.66,0,11.98,0,12.31c0,0.14,0.01,0.27,0.01,0.41
			c0.01,0.23,0.01,0.47,0.03,0.7c0.01,0.16,0.04,0.33,0.06,0.49c0.03,0.2,0.05,0.41,0.09,0.61c0.03,0.18,0.07,0.35,0.1,0.52
			c0.04,0.19,0.09,0.38,0.14,0.57c0.05,0.17,0.1,0.35,0.15,0.52c0.06,0.19,0.13,0.39,0.2,0.58c0.06,0.16,0.12,0.32,0.18,0.47
			c0.1,0.23,0.2,0.45,0.31,0.67c0.06,0.11,0.11,0.23,0.17,0.34c0.17,0.33,0.36,0.65,0.56,0.96c0,0.01,0.01,0.01,0.01,0.01
			c0.45,0.68,0.97,1.33,1.57,1.93c0.01,0.01,0.02,0.03,0.03,0.05c0.01,0.01,0.03,0.02,0.05,0.03c0.61,0.6,1.26,1.13,1.94,1.58
			c0.01,0.01,0.01,0.01,0.02,0.02c0.31,0.2,0.62,0.38,0.95,0.56c0.11,0.06,0.23,0.11,0.34,0.17c0.22,0.11,0.44,0.21,0.67,0.31
			c0.09,0.04,0.18,0.07,0.27,0.11c0.02,0.01,0.03,0.02,0.05,0.03c0.11,0.04,0.22,0.07,0.33,0.11c0.13,0.04,0.25,0.09,0.38,0.13
			c0.03,0.01,0.07,0.02,0.1,0.03c0.05,0.02,0.1,0.04,0.16,0.05c0.13,0.04,0.25,0.06,0.38,0.1c0.12,0.03,0.24,0.06,0.36,0.09
			c0.12,0.03,0.24,0.06,0.36,0.08c0.1,0.02,0.2,0.03,0.29,0.05c0.13,0.02,0.26,0.04,0.4,0.06c0.14,0.02,0.27,0.04,0.41,0.05
			c0.1,0.01,0.19,0.02,0.29,0.03c0.12,0.01,0.25,0.02,0.37,0.02c0.15,0.01,0.3,0.01,0.45,0.02c0.1,0,0.19,0.01,0.29,0.01
			c0.11,0,0.22-0.01,0.34-0.01c0.16-0.01,0.32-0.02,0.47-0.03c0.02,0,0.05,0,0.07,0c0.08-0.01,0.16-0.01,0.24-0.01
			c0.01,0,0.01,0,0.02,0c0.09-0.01,0.17-0.03,0.26-0.04c0.16-0.02,0.31-0.04,0.47-0.07c0.12-0.02,0.24-0.03,0.37-0.06
			c0.08-0.02,0.16-0.04,0.24-0.05c0.15-0.03,0.3-0.07,0.45-0.11c0.13-0.03,0.26-0.06,0.39-0.1c0.09-0.02,0.17-0.05,0.26-0.08
			c0.03-0.01,0.05-0.01,0.08-0.02c0.11-0.03,0.21-0.08,0.31-0.11c0.14-0.05,0.27-0.09,0.41-0.14c0.09-0.04,0.19-0.07,0.28-0.1
			c0.11-0.04,0.21-0.1,0.32-0.15c0.15-0.06,0.29-0.13,0.43-0.2c0,0,0.01,0,0.01-0.01c0.19-0.09,0.37-0.19,0.55-0.29
			c0.13-0.07,0.25-0.14,0.38-0.22c0.09-0.05,0.18-0.11,0.27-0.16c0.1-0.07,0.2-0.14,0.31-0.21c0.11-0.07,0.21-0.15,0.32-0.23
			c0.11-0.08,0.22-0.16,0.33-0.25c0.09-0.07,0.17-0.13,0.26-0.2c0.09-0.07,0.17-0.15,0.25-0.22c0.12-0.11,0.24-0.22,0.36-0.33
			c0.08-0.08,0.17-0.15,0.25-0.23c0.05-0.05,0.1-0.11,0.16-0.17c0.12-0.12,0.23-0.25,0.34-0.37c0.12-0.14,0.24-0.27,0.35-0.41
			c0.11-0.14,0.22-0.28,0.33-0.43c0.1-0.14,0.2-0.27,0.3-0.42c0.04-0.06,0.09-0.12,0.13-0.18c0.06-0.09,0.11-0.19,0.17-0.29
			c0.09-0.14,0.17-0.28,0.26-0.43c0.09-0.16,0.18-0.33,0.26-0.49c0.08-0.15,0.15-0.31,0.22-0.47c0.07-0.16,0.14-0.32,0.2-0.48
			c0.07-0.17,0.13-0.34,0.2-0.52c0.05-0.15,0.1-0.31,0.15-0.47c0.06-0.19,0.11-0.37,0.16-0.56c0.04-0.15,0.07-0.31,0.11-0.46
			c0.04-0.19,0.08-0.38,0.11-0.57c0.03-0.16,0.05-0.33,0.07-0.49c0.01-0.11,0.04-0.22,0.05-0.33c0.01-0.07,0.01-0.15,0.01-0.22
			c0.01-0.17,0.02-0.35,0.03-0.53c0.01-0.17,0.01-0.34,0.01-0.51c0-0.19-0.01-0.38-0.02-0.56c-0.01-0.16-0.02-0.32-0.03-0.49
			c-0.01-0.08-0.01-0.17-0.02-0.25c-0.01-0.11-0.03-0.21-0.05-0.32c-0.02-0.16-0.05-0.32-0.07-0.48c-0.03-0.18-0.07-0.35-0.11-0.53
			c-0.04-0.17-0.08-0.35-0.12-0.52c-0.04-0.16-0.09-0.31-0.13-0.46c-0.06-0.19-0.12-0.38-0.19-0.56c-0.05-0.13-0.1-0.26-0.15-0.4
			c-0.08-0.2-0.16-0.39-0.25-0.59c-0.06-0.12-0.11-0.24-0.17-0.36c-0.1-0.19-0.19-0.38-0.3-0.57c-0.07-0.13-0.15-0.25-0.22-0.37
			c-0.06-0.09-0.11-0.19-0.17-0.28c-0.02-0.03-0.04-0.06-0.07-0.08c0,0,0,0,0,0c-0.45-0.67-0.95-1.31-1.52-1.88
			c-0.01-0.01-0.01-0.02-0.02-0.03c-0.01-0.01-0.03-0.02-0.05-0.03c-0.01-0.01-0.02-0.02-0.03-0.03c-0.01,0-0.01,0-0.02-0.01
			c-0.04-0.02-0.08-0.04-0.12-0.05c-0.01,0-0.02,0-0.04-0.01c-0.05-0.01-0.09-0.01-0.13-0.01c-0.01,0-0.02,0.01-0.04,0.01
			c-0.04,0.01-0.09,0.02-0.13,0.04c-0.02,0.01-0.04,0.03-0.06,0.04c-0.03,0.02-0.05,0.03-0.08,0.05c0,0,0,0,0,0l0,0l-1.41,1.41
			l-14,14L4,20.07c-0.67-0.73-1.24-1.52-1.69-2.37c-0.02-0.03-0.03-0.07-0.05-0.1c-0.14-0.28-0.28-0.57-0.4-0.86
			c-0.03-0.08-0.06-0.16-0.09-0.24c-0.1-0.25-0.19-0.5-0.27-0.76c-0.03-0.09-0.05-0.18-0.08-0.27c-0.07-0.26-0.14-0.52-0.19-0.78
			c-0.02-0.08-0.03-0.16-0.05-0.24c-0.05-0.29-0.1-0.59-0.13-0.89c0-0.05-0.01-0.09-0.02-0.14c-0.13-1.42,0-2.86,0.41-4.24
			c0.02-0.07,0.05-0.14,0.07-0.22c0.08-0.25,0.16-0.5,0.26-0.75c0.05-0.12,0.1-0.24,0.15-0.35c0.09-0.2,0.18-0.4,0.27-0.59
			c0.07-0.13,0.13-0.26,0.2-0.39c0.1-0.18,0.21-0.36,0.32-0.54c0.08-0.12,0.15-0.24,0.23-0.36C3.1,5.79,3.25,5.6,3.4,5.4
			c0.07-0.09,0.13-0.17,0.2-0.26C3.83,4.87,4.07,4.6,4.33,4.33c0,0,0,0,0,0l0,0c1.86-1.86,4.32-3.02,6.93-3.28
			c2.58-0.25,5.18,0.38,7.33,1.78c0.23,0.15,0.54,0.08,0.69-0.15c0.13-0.2,0.1-0.46-0.06-0.63C19.2,2.04,19.17,2.02,19.14,2
			c-2.35-1.53-5.18-2.22-7.98-1.94C8.32,0.34,5.65,1.61,3.62,3.63C3.35,3.9,3.09,4.19,2.84,4.49c-0.1,0.12-0.2,0.25-0.29,0.38
			C2.42,5.05,2.29,5.22,2.16,5.4C2.05,5.56,1.95,5.73,1.84,5.9C1.75,6.05,1.66,6.2,1.57,6.35c-0.1,0.18-0.2,0.37-0.29,0.56
			c-0.07,0.15-0.14,0.3-0.21,0.46C0.99,7.55,0.9,7.74,0.83,7.94C0.76,8.11,0.71,8.28,0.65,8.45C0.59,8.63,0.53,8.81,0.47,8.99
			C0.41,9.21,0.36,9.44,0.31,9.66C0.28,9.8,0.24,9.93,0.22,10.07c-0.07,0.36-0.12,0.73-0.16,1.1C0.05,11.18,0.06,11.18,0.05,11.19z"
			/>
		<path class="st1" d="M5.74,19.74l14-14c0,0,0,0,0,0c0,0,0,0,0,0l1.04-1.04c0.49,0.53,0.92,1.11,1.3,1.72
			c0.07,0.12,0.14,0.23,0.21,0.35c0.1,0.17,0.19,0.34,0.27,0.51c0.06,0.11,0.11,0.22,0.16,0.33c0.08,0.18,0.16,0.35,0.23,0.53
			c0.05,0.12,0.1,0.24,0.14,0.37c0.06,0.17,0.12,0.34,0.17,0.51c0.04,0.14,0.09,0.29,0.13,0.43c0.04,0.15,0.08,0.31,0.11,0.46
			c0.04,0.17,0.07,0.33,0.1,0.5c0.02,0.14,0.05,0.28,0.06,0.42c0.02,0.18,0.05,0.36,0.06,0.54c0.01,0.14,0.02,0.29,0.03,0.43
			c0.01,0.18,0.02,0.35,0.02,0.53c0,0.16,0,0.31-0.01,0.46c-0.01,0.16-0.01,0.32-0.03,0.49c-0.01,0.17-0.03,0.34-0.05,0.51
			c-0.02,0.15-0.04,0.3-0.06,0.45c-0.03,0.18-0.06,0.35-0.1,0.53c-0.03,0.14-0.06,0.29-0.1,0.43c-0.04,0.17-0.09,0.34-0.14,0.51
			c-0.05,0.15-0.09,0.29-0.14,0.44c-0.05,0.16-0.11,0.31-0.18,0.46c-0.06,0.15-0.12,0.31-0.19,0.46c-0.06,0.14-0.13,0.28-0.2,0.42
			c-0.08,0.16-0.16,0.31-0.24,0.46c-0.07,0.13-0.15,0.26-0.23,0.39c-0.09,0.14-0.18,0.29-0.27,0.43c-0.1,0.14-0.2,0.28-0.3,0.42
			c-0.09,0.12-0.18,0.24-0.27,0.36c-0.12,0.14-0.24,0.28-0.36,0.42c-0.09,0.1-0.19,0.21-0.28,0.31c-0.11,0.11-0.22,0.22-0.33,0.33
			c-0.17,0.16-0.33,0.31-0.51,0.46c-0.09,0.08-0.19,0.16-0.29,0.24c-0.04,0.03-0.08,0.06-0.12,0.09c-0.15,0.11-0.29,0.22-0.44,0.33
			c-0.07,0.05-0.14,0.1-0.21,0.14c-0.1,0.06-0.2,0.13-0.3,0.19c-0.16,0.1-0.33,0.2-0.5,0.29c-0.01,0-0.01,0.01-0.02,0.01
			c-0.14,0.07-0.27,0.15-0.41,0.22c-0.18,0.09-0.37,0.18-0.55,0.26c-0.13,0.06-0.26,0.11-0.39,0.16c-0.23,0.09-0.47,0.17-0.7,0.25
			c-0.07,0.02-0.15,0.05-0.22,0.07c-0.04,0.01-0.08,0.02-0.12,0.03c-0.28,0.08-0.56,0.15-0.85,0.21c-0.07,0.02-0.15,0.03-0.23,0.04
			c-0.28,0.05-0.55,0.09-0.83,0.12c-0.07,0.01-0.15,0.01-0.22,0.02c-0.29,0.02-0.58,0.04-0.87,0.04c-0.06,0-0.12,0-0.18,0
			c-0.32,0-0.64-0.02-0.96-0.05c0,0-0.01,0-0.01,0c-0.06-0.01-0.12-0.01-0.18-0.02c-0.28-0.03-0.56-0.07-0.84-0.12
			c-0.09-0.02-0.18-0.04-0.27-0.05c-0.25-0.05-0.5-0.11-0.75-0.18c-0.1-0.03-0.2-0.05-0.29-0.08C8.77,23.18,8.53,23.1,8.28,23
			c-0.09-0.03-0.17-0.06-0.26-0.1c-0.29-0.12-0.57-0.25-0.85-0.39c-0.03-0.02-0.07-0.03-0.1-0.05c-0.84-0.44-1.64-1.01-2.37-1.69
			L5.74,19.74z"/>
	</g>
	<g>
		<path class="st0" d="M13.16,11.76l-0.28-0.08V6.58c-0.16-0.01-0.32-0.03-0.48-0.03c-0.18,0-0.35,0.01-0.52,0.03v4.83l-0.28-0.08
			c-1.15-0.37-2.33-1-2.33-2.49c0-1.68,1.08-2.56,3.13-2.56c0.91,0,1.79,0.16,2.79,0.49c0.08,0.02,0.15,0.04,0.21,0.04
			c0.27,0,0.56-0.2,0.56-0.52c0-0.3-0.25-0.44-0.36-0.49c-0.83-0.38-2.2-0.51-3.2-0.51c-2.66,0-4.25,1.33-4.25,3.56
			c0,2.2,1.59,3.11,3.45,3.66l0.28,0.08v5.63c0.11,0,0.21,0.01,0.32,0.01c0.23,0,0.46-0.02,0.68-0.07v-5.29l0.28,0.08v0
			c1.14,0.37,2.41,1.03,2.41,2.59c0,2.04-1.75,2.96-3.37,2.96c-1.33,0-2.16-0.23-3.37-0.61c-0.06-0.03-0.12-0.03-0.19-0.03
			c-0.28,0-0.56,0.19-0.56,0.5c0,0.22,0.12,0.39,0.36,0.51c0.9,0.4,2.3,0.64,3.77,0.64c2.16,0,4.49-1.24,4.49-3.97
			C16.69,13.24,15.06,12.33,13.16,11.76z"/>
		<path class="st0" d="M12.88,5.02V4.43c0-0.28-0.22-0.5-0.5-0.5s-0.5,0.22-0.5,0.5v0.61C12.06,5.03,12.22,5,12.4,5
			C12.55,5,12.72,5.01,12.88,5.02z"/>
		<path class="st0" d="M11.88,19.76v0.58c0,0.28,0.22,0.5,0.5,0.5s0.5-0.22,0.5-0.5v-0.61c-0.23,0.03-0.45,0.04-0.68,0.04
			C12.09,19.77,11.99,19.76,11.88,19.76z"/>
	</g>
</g>
</svg>
