<?xml version="1.0" encoding="utf-8"?>
<!-- Generator: Adobe Illustrator 22.0.0, SVG Export Plug-In . SVG Version: 6.00 Build 0)  -->
<svg version="1.1" id="Layer_1" xmlns="http://www.w3.org/2000/svg" xmlns:xlink="http://www.w3.org/1999/xlink" x="0px" y="0px"
	 viewBox="0 0 50 50" style="enable-background:new 0 0 50 50;" xml:space="preserve">
<style type="text/css">
	.st0{fill:#013F44;}
	.st1{fill:#FFFFFF;}
	.st2{fill:#FFE600;}
</style>
<g>
	<path class="st0" d="M14.29,19.97c-0.28,0-0.5,0.23-0.5,0.5c0.01,0.34,0.27,0.5,0.5,0.5c0.24,0,0.49-0.16,0.5-0.5
		C14.79,20.19,14.57,19.97,14.29,19.97"/>
	<path class="st0" d="M25.3,21.82l-2.25-2.25c1.17-1.53,1.08-3.72-0.32-5.12c-1.52-1.52-3.99-1.52-5.51,0
		c-1.52,1.52-1.52,3.99,0,5.51c0.76,0.76,1.76,1.14,2.75,1.14c0.84,0,1.67-0.28,2.36-0.82l2.25,2.25c0.1,0.1,0.23,0.15,0.35,0.15
		s0.26-0.05,0.35-0.15C25.5,22.33,25.5,22.01,25.3,21.82 M22.03,19.25c-1.13,1.13-2.96,1.13-4.09,0c-1.13-1.13-1.13-2.96,0-4.09
		c0.56-0.56,1.3-0.85,2.05-0.85c0.74,0,1.48,0.28,2.05,0.85C23.15,16.29,23.15,18.12,22.03,19.25"/>
	<path class="st0" d="M12.28,19.97H2.16c-0.36,0-0.61-0.24-0.61-0.61v-7.21c0-0.3-0.2-0.5-0.5-0.5c-0.3,0-0.5,0.2-0.5,0.5v7.21
		c0,0.92,0.69,1.61,1.61,1.61h10.12c0.3,0,0.5-0.2,0.5-0.5C12.78,20.17,12.59,19.97,12.28,19.97"/>
	<path class="st0" d="M14.46,14.34v-1.82l8.29-1.78v0.96c0,0.3,0.2,0.5,0.5,0.5c0.3,0,0.5-0.19,0.5-0.5l0.02-1.5
		c0.35-0.32,0.54-0.73,0.54-1.16V5.49c0-0.92-0.69-1.61-1.61-1.61h-6.16V1.61c0-0.44-0.16-0.85-0.46-1.15
		C15.77,0.16,15.37,0,14.92,0H9.38C8.46,0,7.77,0.69,7.77,1.61v2.27H1.61C0.69,3.88,0,4.57,0,5.49v3.55c0,0.74,0.52,1.39,1.23,1.55
		l8.61,1.96v1.78c0,0.37,0.3,0.67,0.67,0.67h3.27C14.16,15.01,14.46,14.71,14.46,14.34 M8.77,3.88V1.61C8.77,1.24,9.01,1,9.38,1
		h5.55c0.37,0,0.61,0.24,0.61,0.61v2.27H8.77z"/>
	<rect x="10.84" y="11.39" class="st1" width="2.62" height="2.62"/>
	<path class="st2" d="M22.69,4.88H1.61C1.25,4.88,1,5.13,1,5.49v3.55c0,0.31,0.19,0.55,0.49,0.61l8.35,1.87v-0.31v-0.04
		c0-0.37,0.3-0.67,0.68-0.67h3.27c0.37,0,0.67,0.3,0.67,0.67v0.04v0.24l8.35-1.8c0.3-0.06,0.49-0.3,0.49-0.61V5.49
		C23.3,5.13,23.05,4.88,22.69,4.88"/>
</g>
</svg>
