<?xml version="1.0" encoding="utf-8"?>
<!-- Generator: Adobe Illustrator 22.0.0, SVG Export Plug-In . SVG Version: 6.00 Build 0)  -->
<svg version="1.1" id="Layer_1" xmlns="http://www.w3.org/2000/svg" xmlns:xlink="http://www.w3.org/1999/xlink" x="0px" y="0px"
	 viewBox="0 0 50 50" style="enable-background:new 0 0 50 50;" xml:space="preserve">
<style type="text/css">
	.st0{fill:#013F44;}
	.st1{fill:#FFE600;}
</style>
<g>
	<path class="st0" d="M22.96,10.09l-3.15-6.9c-0.31-0.68-0.66-1.05-1.35-1.39l-3.48-1.75C14.87,0,14.74-0.02,14.62,0.02
		c-2.42,0.65-3.82,0.65-6.24,0C8.26-0.02,8.14,0,8.03,0.05L4.55,1.8C3.86,2.15,3.51,2.51,3.2,3.19l-3.15,6.9
		c-0.1,0.23-0.02,0.5,0.19,0.63L4,13.08V24.5C4,24.78,4.22,25,4.5,25h14c0.28,0,0.5-0.22,0.5-0.5V13.08l3.76-2.35
		C22.98,10.59,23.06,10.32,22.96,10.09 M14.16,1.16c-0.31,1.07-1.39,1.86-2.66,1.86c-1.28,0-2.35-0.79-2.66-1.86
		C10.79,1.62,12.21,1.62,14.16,1.16 M19,11.9V8.8c0-0.28-0.22-0.5-0.5-0.5c-0.28,0-0.5,0.22-0.5,0.5V24H5V8.8
		c0-0.28-0.22-0.5-0.5-0.5C4.22,8.3,4,8.52,4,8.8v3.1l-2.86-1.79l2.97-6.5C4.32,3.13,4.51,2.94,5,2.7l1.02-0.51
		C6.52,3.61,7.64,4.8,9.1,5.43c0.07,0.03,0.13,0.04,0.2,0.04c0.19,0,0.38-0.11,0.46-0.3C9.86,4.92,9.75,4.62,9.5,4.51
		C8.25,3.98,7.31,2.95,6.92,1.73l0.92-0.46C8.2,2.84,9.7,4.03,11.5,4.03c1.79,0,3.3-1.18,3.66-2.76l0.92,0.46
		c-0.4,1.22-1.34,2.25-2.58,2.78c-0.25,0.11-0.37,0.4-0.26,0.66c0.08,0.19,0.27,0.3,0.46,0.3c0.07,0,0.13-0.01,0.2-0.04
		c1.46-0.63,2.58-1.82,3.08-3.25l1.02,0.51c0.48,0.24,0.67,0.44,0.89,0.91l2.97,6.5L19,11.9z"/>
	<path class="st0" d="M11.5,4.93L11.5,4.93c-0.28,0-0.5,0.22-0.5,0.5c0,0.28,0.22,0.5,0.5,0.5c0.28,0,0.5-0.22,0.5-0.5
		C12,5.15,11.78,4.93,11.5,4.93"/>
	<path class="st0" d="M11.5,19.03c-0.42,0-0.79-0.26-0.94-0.65c-0.29-0.78-0.92-1.41-1.7-1.7c-0.39-0.14-0.65-0.52-0.65-0.94
		c0-0.42,0.26-0.79,0.65-0.94c0.79-0.29,1.41-0.91,1.7-1.7c0.15-0.39,0.52-0.65,0.94-0.65c0.42,0,0.79,0.26,0.94,0.65
		c0.29,0.79,0.91,1.41,1.7,1.7c0.39,0.14,0.65,0.52,0.65,0.94c0,0.42-0.26,0.79-0.65,0.94c-0.79,0.29-1.41,0.91-1.7,1.7
		C12.29,18.77,11.92,19.03,11.5,19.03z"/>
	<path class="st1" d="M11.5,13.45c0.39,1.06,1.23,1.9,2.29,2.29c-1.06,0.39-1.9,1.23-2.29,2.29c-0.39-1.05-1.25-1.91-2.29-2.29
		C10.26,15.35,11.11,14.51,11.5,13.45"/>
</g>
</svg>
