<?xml version="1.0" encoding="utf-8"?>
<!-- Generator: Adobe Illustrator 22.0.0, SVG Export Plug-In . SVG Version: 6.00 Build 0)  -->
<svg version="1.1" id="Layer_1" xmlns="http://www.w3.org/2000/svg" xmlns:xlink="http://www.w3.org/1999/xlink" x="0px" y="0px"
	 viewBox="0 0 50 50" style="enable-background:new 0 0 50 50;" xml:space="preserve">
<style type="text/css">
	.st0{fill:#013F44;}
	.st1{fill:#FFE600;}
</style>
<g>
	<path class="st0" d="M36.99,6.16c-0.04-0.19-0.52-1.87-3.84-3.1c-2.7-1-5.04-0.74-5.76-0.62c-0.77-0.47-3.8-2.11-8.85-2.41
		c-1.76-0.12-6.78,0.55-7.09,0.59c0,0,0,0,0,0c0,0,0,0,0,0c0,0-0.01,0-0.01,0L2.49,1.9C1.07,2.11,0,3.34,0,4.78v0.78
		c0,1.25,0.79,2.39,1.97,2.81L3.8,9.03c0.43,1.37,1.7,2.38,3.22,2.38c1.28,0,2.39-0.73,2.96-1.78H26.7
		c0.57,1.06,1.68,1.78,2.96,1.78c1.28,0,2.39-0.73,2.96-1.78h2.77C36.28,9.63,37,8.9,37,8.02V6.27C37,6.23,37,6.19,36.99,6.16z
		 M35.94,8.02c0,0.31-0.25,0.55-0.55,0.55h-2.4c0.03-0.18,0.06-0.36,0.06-0.55c0-1.87-1.52-3.39-3.39-3.39
		c-1.26,0-2.35,0.7-2.93,1.72H14.79c-0.6,0-1.18-0.22-1.63-0.61l-1.12-0.98c-0.22-0.19-0.55-0.17-0.75,0.05
		c-0.19,0.22-0.17,0.55,0.05,0.75l1.12,0.98c0.64,0.56,1.47,0.87,2.32,0.87h11.55c-0.04,0.2-0.06,0.4-0.06,0.61
		c0,0.19,0.03,0.37,0.06,0.55H10.35c0.03-0.18,0.06-0.36,0.06-0.55c0-1.87-1.52-3.39-3.39-3.39c-1.81,0-3.28,1.43-3.37,3.21
		L2.33,7.37C1.57,7.1,1.06,6.37,1.06,5.55V4.78c0-0.91,0.68-1.7,1.58-1.83l8.4-1.21l0.12,1.03c0.03,0.22,0.19,0.41,0.41,0.45
		l1.75,0.38c0.04,0.01,0.08,0.01,0.11,0.01c0.24,0,0.46-0.17,0.52-0.42c0.06-0.28-0.12-0.57-0.4-0.63l-1.39-0.3l-0.08-0.68
		c1.36-0.17,5.02-0.6,6.38-0.52c3.69,0.22,6.25,1.21,7.54,1.83l-1.68,0.64c-0.7,0.27-1.46,0.35-2.21,0.24l-6.4-0.92
		c-0.29-0.04-0.56,0.16-0.6,0.45c-0.04,0.29,0.16,0.56,0.45,0.6l6.4,0.92c0.26,0.04,0.52,0.06,0.78,0.06c0.66,0,1.33-0.12,1.95-0.36
		l2.71-1.03c0.16-0.03,2.57-0.49,5.36,0.55c1.54,0.57,2.35,1.23,2.76,1.7h-0.84c-0.29,0-0.53,0.24-0.53,0.53S34.4,6.8,34.69,6.8
		h1.25V8.02z"/>
	<circle class="st1" cx="7.02" cy="8.02" r="2.33"/>
	<path class="st1" d="M29.66,10.35c-1.28,0-2.33-1.04-2.33-2.33s1.05-2.33,2.33-2.33s2.33,1.04,2.33,2.33S30.94,10.35,29.66,10.35z"
		/>
	<path class="st0" d="M7.09,7.21L6.2,8.1c-0.21,0.21-0.21,0.54,0,0.75C6.3,8.95,6.44,9,6.57,9s0.27-0.05,0.37-0.15l0.89-0.89
		c0.21-0.21,0.21-0.54,0-0.75C7.63,7,7.29,7,7.09,7.21z"/>
	<path class="st0" d="M29.59,7.21C29.38,7,29.05,7,28.84,7.21c-0.21,0.21-0.21,0.54,0,0.75l0.89,0.89C29.83,8.95,29.97,9,30.1,9
		s0.27-0.05,0.37-0.15c0.21-0.21,0.21-0.54,0-0.75L29.59,7.21z"/>
</g>
</svg>
