<?xml version="1.0" encoding="utf-8"?>
<!-- Generator: Adobe Illustrator 22.0.0, SVG Export Plug-In . SVG Version: 6.00 Build 0)  -->
<svg version="1.1" id="Layer_1" xmlns="http://www.w3.org/2000/svg" xmlns:xlink="http://www.w3.org/1999/xlink" x="0px" y="0px"
	 viewBox="0 0 50 50" style="enable-background:new 0 0 50 50;" xml:space="preserve">
<style type="text/css">
	.st0{fill:#013F44;}
	.st1{fill:#FFE600;}
</style>
<g>
	<path class="st0" d="M1.43,24.8C0.64,24.8,0,24.16,0,23.37v-8.93c0-0.28,0.22-0.5,0.5-0.5h0.15l-0.03-2.61c0-0.27,0.22-0.5,0.5-0.5
		h0.16L1.24,4.28c0-0.27,0.22-0.5,0.5-0.5c0.08,0,0.15,0.02,0.22,0.05l2.42,1.21c0.59,0.29,0.96,0.9,0.96,1.56v4.27l0.12-0.03
		c0.28,0,0.5,0.22,0.5,0.5v2.64l0.12-0.03c0.27,0,0.5,0.22,0.5,0.5v8.93c0,0.79-0.64,1.43-1.43,1.43H1.43z M1,23.37
		c0,0.24,0.19,0.43,0.43,0.43h3.73c0.24,0,0.43-0.19,0.43-0.43v-1.54L1,20.49V23.37z M1,16.99l4.63,1.35l-0.04-3.43L1,14.95V16.99z
		 M1.62,13.98L5,13.95l-0.03-2.14l-3.35,0.03V13.98z M2.24,10.88l2.14-0.03L4.35,6.6c0-0.28-0.16-0.54-0.41-0.66l-1.7-0.85V10.88z"
		/>
	<polygon class="st1" points="5.62,20.86 0.96,19.47 0.96,17.96 5.62,19.35 	"/>
	<path class="st0" d="M25.03,9.15c0-5.05-4.11-9.15-9.15-9.15S6.73,4.11,6.73,9.15c0,4.89,3.86,8.9,8.69,9.14v1.76h-0.98
		c-1.6,0-2.9,1.3-2.9,2.9v1.35c0,0.26,0.21,0.47,0.47,0.47h7.76c0.26,0,0.47-0.21,0.47-0.47v-1.35c0-1.6-1.3-2.9-2.9-2.9h-0.98
		v-1.76C21.18,18.05,25.03,14.04,25.03,9.15 M17.33,20.99c1.08,0,1.97,0.88,1.97,1.97v0.89h-6.83v-0.89c0-1.08,0.88-1.97,1.97-1.97
		H17.33z"/>
	<path class="st1" d="M15.88,17.37c-4.53,0-8.22-3.69-8.22-8.22c0-4.53,3.69-8.22,8.22-8.22c4.53,0,8.22,3.69,8.22,8.22
		C24.1,13.68,20.41,17.37,15.88,17.37"/>
	<path class="st0" d="M10.87,11.09c-0.13,0-0.26-0.05-0.35-0.15c-0.09-0.1-0.15-0.22-0.15-0.35c0-0.13,0.05-0.26,0.15-0.35
		l6.78-6.78c0.09-0.09,0.22-0.15,0.35-0.15s0.26,0.05,0.35,0.15c0.19,0.19,0.19,0.51,0,0.71l-6.78,6.78
		C11.13,11.04,11.01,11.09,10.87,11.09"/>
	<path class="st0" d="M14.85,12.03c-0.13,0-0.26-0.05-0.35-0.15c-0.09-0.1-0.15-0.22-0.15-0.35c0-0.13,0.05-0.26,0.15-0.35
		l3.35-3.35c0.1-0.09,0.22-0.15,0.35-0.15s0.26,0.05,0.35,0.15c0.09,0.1,0.15,0.22,0.15,0.35c0,0.13-0.05,0.26-0.15,0.35l-3.35,3.35
		C15.11,11.98,14.98,12.03,14.85,12.03"/>
</g>
</svg>
