<?xml version="1.0" encoding="utf-8"?>
<!-- Generator: Adobe Illustrator 22.0.0, SVG Export Plug-In . SVG Version: 6.00 Build 0)  -->
<svg version="1.1" id="Layer_1" xmlns="http://www.w3.org/2000/svg" xmlns:xlink="http://www.w3.org/1999/xlink" x="0px" y="0px"
	 viewBox="0 0 50 50" style="enable-background:new 0 0 50 50;" xml:space="preserve">
<style type="text/css">
	.st0{fill:#013F44;}
	.st1{fill:#FFE600;}
</style>
<g>
	<path class="st0" d="M13,15.22c-2.63,0-4.77,2.14-4.77,4.77c0,2.63,2.14,4.77,4.77,4.77c0.44,0,0.88-0.06,1.3-0.18
		c0.12-0.03,0.21-0.11,0.27-0.21c0.06-0.1,0.07-0.23,0.04-0.34c-0.05-0.19-0.23-0.33-0.43-0.33c-0.04,0-0.08,0.01-0.12,0.02
		c-0.34,0.1-0.7,0.15-1.06,0.15c-2.14,0-3.87-1.74-3.87-3.87c0-2.13,1.74-3.87,3.87-3.87c2.13,0,3.87,1.74,3.87,3.87
		c0,1.17-0.52,2.26-1.42,3c-0.19,0.16-0.22,0.44-0.06,0.63c0.09,0.1,0.21,0.17,0.35,0.17c0.1,0,0.21-0.04,0.28-0.1
		c1.11-0.91,1.75-2.26,1.75-3.69C17.77,17.36,15.63,15.22,13,15.22"/>
	<path class="st0" d="M24.09,11.59v-0.5C24.09,4.98,19.11,0,13,0c-1.57,0-3.08,0.32-4.5,0.96C7.12,1.57,5.91,2.44,4.88,3.54
		C4.8,3.63,4.76,3.75,4.76,3.87C4.76,3.99,4.82,4.1,4.9,4.18C4.98,4.25,5.09,4.3,5.21,4.3c0.12,0,0.24-0.05,0.33-0.14
		C7.46,2.08,10.18,0.9,13,0.9c5.47,0,9.95,4.34,10.19,9.75c-0.22-0.38-0.63-0.64-1.09-0.64l-0.9,0.06C20.96,8.13,20.03,6.33,18.58,5
		C17.05,3.6,15.07,2.82,13,2.82c-2.09,0-4.08,0.78-5.62,2.21c-1.43,1.33-2.35,3.12-2.52,4.98H3.9c-0.46,0-0.87,0.26-1.09,0.64
		c0.08-1.87,0.67-3.67,1.71-5.22c0.14-0.2,0.08-0.48-0.12-0.62C4.33,4.75,4.24,4.73,4.16,4.73c-0.15,0-0.29,0.07-0.37,0.2
		c-1.23,1.83-1.88,3.96-1.88,6.17l0.07,0.43C0.87,11.6,0,12.52,0,13.63v6.06c0,1.17,0.95,2.11,2.11,2.11l0.54-0.07v0.33
		c0,0.69,0.56,1.25,1.25,1.25h1.65c0.69,0,1.25-0.56,1.25-1.25v-10.8c0-0.63-0.48-1.17-1.05-1.17c-0.02,0-0.03,0-0.05,0
		c0.5-3.63,3.64-6.37,7.3-6.37c3.54,0,6.58,2.55,7.29,5.92c0.02,0.12,0.05,0.25,0.07,0.37c-0.65,0.05-1.16,0.59-1.16,1.24v10.8
		c0,0.69,0.56,1.25,1.25,1.25h1.65c0.69,0,1.25-0.56,1.25-1.25l-0.07-0.26h0.61c1.16,0,2.11-0.95,2.11-2.11v-6.06
		C26,12.52,25.13,11.6,24.09,11.59"/>
	<path class="st1" d="M25.1,19.69c0,0.67-0.55,1.22-1.22,1.22l-0.54,0.07v-5.91c0-0.25-0.2-0.45-0.45-0.45
		c-0.25,0-0.45,0.2-0.45,0.45v6.99c0,0.19-0.16,0.35-0.36,0.35h-1.65c-0.2,0-0.35-0.16-0.35-0.35V11.26c0-0.2,0.16-0.35,0.35-0.35
		h1.65c0.2,0,0.36,0.16,0.36,0.35v2.02c0,0.25,0.2,0.45,0.45,0.45c0.25,0,0.45-0.2,0.45-0.45l-0.07-0.87h0.61
		c0.67,0,1.22,0.55,1.22,1.22V19.69z"/>
	<path class="st1" d="M3.55,22.06v-10.8c0-0.2,0.16-0.35,0.35-0.35h1.65c0.2,0,0.35,0.16,0.35,0.35v10.8c0,0.2-0.16,0.35-0.35,0.35
		H3.9C3.71,22.42,3.55,22.26,3.55,22.06"/>
	<path class="st1" d="M2.11,20.91c-0.67,0-1.22-0.55-1.22-1.22v-6.06c0-0.67,0.54-1.22,1.22-1.22l0.54-0.07h0l0.07,8.54v0.02H2.11z"
		/>
	<path class="st0" d="M9.97,13.35c0.25,0,0.45-0.2,0.45-0.45V9.84c0-0.25-0.2-0.45-0.45-0.45c-0.25,0-0.45,0.2-0.45,0.45v3.07
		C9.52,13.15,9.72,13.35,9.97,13.35"/>
	<path class="st0" d="M17.54,9.92c-0.25,0-0.45,0.2-0.45,0.45v2.01c0,0.25,0.2,0.45,0.45,0.45c0.25,0,0.45-0.2,0.45-0.45v-2.01
		C17.99,10.12,17.79,9.92,17.54,9.92"/>
	<path class="st0" d="M11.93,13.75V8.99c0-0.25-0.2-0.45-0.45-0.45c-0.25,0-0.45,0.2-0.45,0.45v4.77c0,0.25,0.2,0.45,0.45,0.45
		C11.73,14.2,11.93,14,11.93,13.75"/>
	<path class="st0" d="M13.45,13.33V9.41c0-0.25-0.2-0.45-0.45-0.45c-0.25,0-0.45,0.2-0.45,0.45v3.92c0,0.25,0.2,0.45,0.45,0.45
		C13.25,13.78,13.45,13.58,13.45,13.33"/>
	<path class="st0" d="M16.48,13.75V8.99c0-0.25-0.2-0.45-0.45-0.45c-0.25,0-0.45,0.2-0.45,0.45v4.77c0,0.25,0.2,0.45,0.45,0.45
		C16.28,14.2,16.48,14,16.48,13.75"/>
	<path class="st0" d="M14.96,11.85V10.9c0-0.25-0.2-0.45-0.45-0.45c-0.25,0-0.45,0.2-0.45,0.45v0.95c0,0.25,0.2,0.45,0.45,0.45
		C14.76,12.29,14.96,12.09,14.96,11.85"/>
	<path class="st0" d="M8.91,11.85V10.9c0-0.25-0.2-0.45-0.45-0.45s-0.45,0.2-0.45,0.45v0.95c0,0.25,0.2,0.45,0.45,0.45
		S8.91,12.09,8.91,11.85"/>
	<path class="st0" d="M15.55,19.99c0-0.27-0.14-0.51-0.38-0.65l-2.96-1.71c-0.11-0.07-0.24-0.1-0.38-0.1c-0.13,0-0.26,0.04-0.37,0.1
		c-0.23,0.14-0.38,0.38-0.38,0.65v3.42c0,0.27,0.14,0.51,0.38,0.65c0.12,0.07,0.24,0.1,0.37,0.1c0.13,0,0.26-0.04,0.38-0.1
		l2.96-1.71C15.41,20.5,15.55,20.26,15.55,19.99"/>
	<polygon class="st1" points="14.51,19.99 11.98,21.44 11.98,18.53 	"/>
</g>
</svg>
