<?xml version="1.0" encoding="utf-8"?>
<!-- Generator: Adobe Illustrator 22.0.0, SVG Export Plug-In . SVG Version: 6.00 Build 0)  -->
<svg version="1.1" id="Layer_1" xmlns="http://www.w3.org/2000/svg" xmlns:xlink="http://www.w3.org/1999/xlink" x="0px" y="0px"
	 viewBox="0 0 50 50" style="enable-background:new 0 0 50 50;" xml:space="preserve">
<style type="text/css">
	.st0{fill:#013F44;}
	.st1{fill:#FFE600;}
	.st2{fill:#FFFFFF;}
</style>
<g>
	<path class="st0" d="M21.55,8.97c-0.01-0.01-0.02-0.01-0.03-0.02c-0.01,0-0.01,0-0.01,0c-0.02-0.01-0.05,0-0.07-0.01
		c-0.04,0-0.07-0.01-0.1-0.01c-0.04,0-0.07,0.02-0.11,0.03c-0.02,0.01-0.04,0.01-0.06,0.02l-11.01,5.35v-0.98
		c0-0.82-0.13-1.64-0.38-2.42L8.41,6.71L7.47,3.81c0.36-0.05,0.63-0.34,0.63-0.71V0.73C8.11,0.33,7.78,0,7.38,0H2.77
		c-0.4,0-0.73,0.33-0.73,0.73v2.38c0,0.37,0.28,0.66,0.63,0.71l-0.9,2.81C1.74,6.68,1.72,6.73,1.71,6.79l-1.33,4.14
		C0.13,11.72,0,12.54,0,13.36v8.48c0,1.22,0.99,2.21,2.21,2.21h5.72c1.03,0,1.9-0.71,2.14-1.67h6.29h1.65h5.71
		c0.7,0,1.27-0.57,1.27-1.27v-2.42V15.1C25,12.34,23.42,9.56,21.55,8.97 M7.15,2.87H6.82H3.33H3V0.96h4.15V2.87z M17.35,11.9
		c0.07,0.93,0.84,1.66,1.79,1.66c0.99,0,1.8-0.81,1.8-1.8c0-0.52-0.23-0.99-0.59-1.32l1.03-0.5c1.21,0.47,2.47,2.38,2.63,4.68h-0.84
		H11.75L17.35,11.9z M24.04,21.1c0,0.17-0.14,0.31-0.31,0.31h-4.56c0.19-0.33,0.3-0.71,0.3-1.11c0-1.26-1.02-2.28-2.28-2.28
		c-1.26,0-2.28,1.02-2.28,2.28c0,0.4,0.11,0.78,0.3,1.11h-5.07v-5.83h0.57c-0.14,0.25-0.22,0.54-0.22,0.85c0,0.99,0.81,1.8,1.8,1.8
		c0.99,0,1.8-0.81,1.8-1.8c0-0.31-0.09-0.6-0.22-0.85h8.16c-0.21,0.36-0.32,0.77-0.32,1.2c0,1.3,1.04,2.36,2.33,2.41V21.1z"/>
	<path class="st1" d="M7.94,23.09H2.21c-0.69,0-1.25-0.56-1.25-1.25v-8.48c0-0.72,0.11-1.44,0.33-2.13l1.25-3.9H7.6l1.25,3.9
		c0.22,0.69,0.33,1.4,0.33,2.13v1.74v6.73C9.19,22.52,8.62,23.09,7.94,23.09"/>
	<path class="st0" d="M2.52,13.87c-0.27,0-0.48,0.22-0.48,0.48v7.01c0,0.26,0.21,0.48,0.48,0.48c0.27,0,0.48-0.21,0.48-0.48v-7.01
		C3,14.08,2.79,13.87,2.52,13.87"/>
	<path class="st0" d="M2.18,13.1c0.09,0.09,0.21,0.14,0.34,0.14c0.07,0,0.12-0.02,0.18-0.04c0.07-0.03,0.12-0.06,0.16-0.11
		C2.95,13.01,3,12.88,3,12.75c0-0.12-0.05-0.25-0.13-0.34c-0.05-0.05-0.1-0.08-0.16-0.11c-0.17-0.07-0.38-0.03-0.52,0.11
		c-0.09,0.09-0.14,0.21-0.14,0.34c0,0.07,0.02,0.12,0.04,0.19C2.1,13,2.13,13.05,2.18,13.1"/>
	<path class="st1" d="M24.04,18.24c-0.76-0.05-1.37-0.68-1.37-1.46c0-0.48,0.24-0.93,0.63-1.2h0.74V18.24z"/>
	<path class="st1" d="M19.98,11.76c0,0.46-0.38,0.84-0.84,0.84s-0.84-0.38-0.84-0.84c0-0.12,0.03-0.25,0.08-0.36l0.95-0.46
		C19.7,11.03,19.98,11.36,19.98,11.76"/>
	<path class="st1" d="M13.13,16.43c0,0.46-0.38,0.84-0.84,0.84s-0.84-0.38-0.84-0.84c0-0.46,0.38-0.84,0.84-0.84
		S13.13,15.97,13.13,16.43"/>
	<polygon class="st2" points="3.68,3.83 6.47,3.83 7.29,6.38 2.86,6.38 	"/>
	<path class="st1" d="M16.49,21.41c-0.38-0.24-0.62-0.66-0.62-1.11c0-0.73,0.59-1.32,1.32-1.32c0.72,0,1.31,0.59,1.31,1.32
		c0,0.46-0.23,0.88-0.62,1.11H16.49z"/>
</g>
</svg>
