<?xml version="1.0" encoding="utf-8"?>
<!-- Generator: Adobe Illustrator 22.0.0, SVG Export Plug-In . SVG Version: 6.00 Build 0)  -->
<svg version="1.1" id="Layer_1" xmlns="http://www.w3.org/2000/svg" xmlns:xlink="http://www.w3.org/1999/xlink" x="0px" y="0px"
	 viewBox="0 0 50 50" style="enable-background:new 0 0 50 50;" xml:space="preserve">
<style type="text/css">
	.st0{fill:#FFE600;}
	.st1{fill:#013F44;}
</style>
<g>
	<path class="st0" d="M9.22,7.56l1.97-6.12c0.4-1.26,2.18-1.26,2.58,0l1.99,6.13h6.47c1.32,0,1.86,1.69,0.8,2.46l-5.22,3.79
		l2.01,6.11c0.41,1.25-1.02,2.3-2.09,1.52l-5.2-3.78l-5.22,3.8c-1.06,0.78-2.5-0.27-2.09-1.52l2-6.14l-5.23-3.78
		c-1.07-0.77-0.52-2.46,0.8-2.46H9.22z"/>
	<path class="st1" d="M6.5,22.22c-0.38,0-0.76-0.12-1.09-0.36c-0.66-0.48-0.93-1.29-0.67-2.07l1.89-5.8l-4.94-3.57
		C1.02,9.94,0.76,9.13,1.01,8.35c0.25-0.78,0.94-1.28,1.76-1.28h6.09l1.86-5.78C10.97,0.5,11.66,0,12.48,0h0
		c0.82,0,1.51,0.5,1.76,1.28l1.88,5.79h0.66c0.27,0,0.49,0.22,0.49,0.49s-0.22,0.49-0.49,0.49h-1.02c-0.21,0-0.4-0.14-0.47-0.34
		l-1.99-6.13c-0.14-0.44-0.52-0.6-0.82-0.6h0c-0.3,0-0.68,0.16-0.82,0.6L9.69,7.71c-0.06,0.2-0.25,0.34-0.47,0.34H2.77
		c-0.46,0-0.73,0.31-0.82,0.6c-0.09,0.29-0.06,0.7,0.32,0.97L7.5,13.4c0.17,0.12,0.25,0.35,0.18,0.55l-2,6.14
		c-0.14,0.44,0.07,0.79,0.31,0.97c0.25,0.18,0.64,0.27,1.02,0l5.22-3.8c0.17-0.12,0.41-0.13,0.58,0l5.2,3.78
		c0.38,0.27,0.77,0.18,1.02,0c0.25-0.18,0.46-0.53,0.31-0.97l-2.01-6.11c-0.07-0.2,0.01-0.43,0.18-0.55l5.22-3.79
		c0.38-0.27,0.41-0.68,0.32-0.97c-0.09-0.29-0.36-0.6-0.82-0.6h-1.02c-0.27,0-0.49-0.22-0.49-0.49s0.22-0.49,0.49-0.49h1.02
		c0.82,0,1.51,0.5,1.76,1.28c0.25,0.78-0.01,1.59-0.67,2.07l-4.93,3.57l1.89,5.77c0.26,0.78-0.01,1.59-0.67,2.07s-1.52,0.48-2.18,0
		l-4.91-3.57l-4.93,3.59C7.26,22.1,6.88,22.22,6.5,22.22"/>
	<path class="st1" d="M12.5,25.2c-0.27,0-0.49-0.22-0.49-0.49v-3.98c0-0.27,0.22-0.49,0.49-0.49c0.27,0,0.49,0.22,0.49,0.49v3.98
		C12.99,24.98,12.77,25.2,12.5,25.2"/>
	<path class="st1" d="M24.51,16.48c-0.05,0-0.1-0.01-0.15-0.02l-3.79-1.23c-0.26-0.08-0.4-0.36-0.32-0.62
		c0.08-0.26,0.36-0.4,0.62-0.31l3.79,1.23c0.26,0.08,0.4,0.36,0.32,0.62C24.91,16.35,24.71,16.48,24.51,16.48"/>
	<path class="st1" d="M17.58,5.58c-0.1,0-0.2-0.03-0.29-0.09c-0.22-0.16-0.27-0.47-0.11-0.69l2.34-3.22
		c0.16-0.22,0.47-0.27,0.69-0.11c0.22,0.16,0.27,0.47,0.11,0.69l-2.34,3.22C17.88,5.51,17.73,5.58,17.58,5.58"/>
	<path class="st1" d="M7.42,5.58c-0.15,0-0.3-0.07-0.4-0.2L4.68,2.16C4.52,1.94,4.57,1.63,4.79,1.47c0.22-0.16,0.53-0.11,0.69,0.11
		L7.82,4.8c0.16,0.22,0.11,0.53-0.11,0.69C7.62,5.55,7.52,5.58,7.42,5.58"/>
	<path class="st1" d="M0.49,16.48c-0.21,0-0.4-0.13-0.47-0.34c-0.08-0.26,0.06-0.54,0.32-0.62l3.79-1.23
		c0.26-0.08,0.54,0.06,0.62,0.31c0.08,0.26-0.06,0.54-0.32,0.62l-3.79,1.23C0.59,16.47,0.54,16.48,0.49,16.48"/>
	<path class="st1" d="M19,8.05c-0.13,0-0.26-0.05-0.35-0.14c-0.09-0.09-0.14-0.22-0.14-0.35c0-0.13,0.05-0.26,0.14-0.35
		c0.09-0.09,0.22-0.14,0.35-0.14c0.13,0,0.26,0.05,0.35,0.14c0.09,0.09,0.14,0.22,0.14,0.35c0,0.13-0.05,0.26-0.14,0.35
		C19.25,8,19.13,8.05,19,8.05"/>
</g>
</svg>
